<svg viewBox="0 0 186.144 49" xmlns="http://www.w3.org/2000/svg" xmlns:xlink="http://www.w3.org/1999/xlink" width="186.143997" height="49.000000" fill="none" customFrame="#000000">
	<g id="text">
		<path id="Wedding Dress &quot;Veronica&quot;" d="M15.008 5.82L15.008 6.14C14.7947 6.19333 14.5653 6.33733 14.32 6.572C14.0747 6.796 13.8667 7.17467 13.696 7.708L10.752 17.212C10.7093 17.212 10.6613 17.212 10.608 17.212C10.5653 17.212 10.5227 17.212 10.48 17.212C10.4267 17.212 10.3787 17.212 10.336 17.212C10.2933 17.212 10.2507 17.212 10.208 17.212L6.816 7.116C6.688 6.72133 6.53866 6.46533 6.368 6.348C6.208 6.22 6.05333 6.15067 5.904 6.14L5.904 5.82C6.128 5.83067 6.40533 5.84133 6.736 5.852C7.06666 5.86267 7.38666 5.868 7.696 5.868C8.13333 5.868 8.53866 5.86267 8.912 5.852C9.296 5.84133 9.6 5.83067 9.824 5.82L9.824 6.14C9.504 6.15067 9.248 6.188 9.056 6.252C8.87466 6.30533 8.768 6.42267 8.736 6.604C8.71466 6.78533 8.768 7.07867 8.896 7.484L11.248 14.716L10.976 15.068L12.992 8.716C13.2053 8.05467 13.3013 7.54267 13.28 7.18C13.2693 6.80667 13.1467 6.54533 12.912 6.396C12.688 6.236 12.3573 6.15067 11.92 6.14L11.92 5.82C12.24 5.83067 12.56 5.84133 12.88 5.852C13.2 5.86267 13.5093 5.868 13.808 5.868C14.0747 5.868 14.2987 5.86267 14.48 5.852C14.672 5.84133 14.848 5.83067 15.008 5.82ZM3.744 5.82L3.744 6.14C3.488 6.16133 3.30666 6.22533 3.2 6.332C3.09333 6.428 3.04 6.572 3.04 6.764C3.05066 6.94533 3.104 7.18533 3.2 7.484L5.68 14.892L5.264 15.356L7.44 8.588L7.68 8.988L5.072 17.212C5.02933 17.212 4.98666 17.212 4.944 17.212C4.90133 17.212 4.85333 17.212 4.8 17.212C4.75733 17.212 4.70933 17.212 4.656 17.212C4.61333 17.212 4.57066 17.212 4.528 17.212L1.072 7.164C0.933331 6.75867 0.762664 6.492 0.559997 6.364C0.357331 6.22533 0.170664 6.15067 -2.81632e-06 6.14L-2.81632e-06 5.82C0.255997 5.83067 0.559997 5.84133 0.911997 5.852C1.264 5.86267 1.60533 5.868 1.936 5.868C2.32 5.868 2.66666 5.86267 2.976 5.852C3.296 5.84133 3.552 5.83067 3.744 5.82ZM18.2471 8.668C19.1858 8.668 19.9218 8.95067 20.4551 9.516C20.9885 10.0813 21.2551 10.9773 21.2551 12.204L15.7351 12.204L15.7031 11.9L19.5591 11.9C19.5698 11.3773 19.5271 10.8973 19.4311 10.46C19.3351 10.012 19.1858 9.65467 18.9831 9.388C18.7805 9.12133 18.5138 8.988 18.1831 8.988C17.7245 8.988 17.3245 9.23333 16.9831 9.724C16.6525 10.204 16.4498 10.9773 16.3751 12.044L16.4231 12.124C16.4125 12.2733 16.4018 12.4387 16.3911 12.62C16.3805 12.7907 16.3751 12.9613 16.3751 13.132C16.3751 13.868 16.4871 14.4867 16.7111 14.988C16.9351 15.4893 17.2285 15.868 17.5911 16.124C17.9538 16.3693 18.3218 16.492 18.6951 16.492C18.9831 16.492 19.2605 16.4493 19.5271 16.364C19.8045 16.268 20.0658 16.1133 20.3111 15.9C20.5565 15.676 20.7751 15.372 20.9671 14.988L21.2871 15.116C21.1591 15.4787 20.9618 15.836 20.6951 16.188C20.4285 16.54 20.0871 16.828 19.6711 17.052C19.2551 17.2653 18.7698 17.372 18.2151 17.372C17.4685 17.372 16.8178 17.2067 16.2631 16.876C15.7085 16.5347 15.2818 16.0493 14.9831 15.42C14.6845 14.7907 14.5351 14.044 14.5351 13.18C14.5351 12.2307 14.6898 11.42 14.9991 10.748C15.3085 10.076 15.7405 9.564 16.2951 9.212C16.8605 8.84933 17.5111 8.668 18.2471 8.668ZM29.8452 4.604L29.8452 15.404C29.8452 15.884 29.9252 16.2413 30.0852 16.476C30.2559 16.7 30.5599 16.812 30.9972 16.812L30.9972 17.148C30.6666 17.116 30.3359 17.1 30.0052 17.1C29.6426 17.1 29.3012 17.116 28.9812 17.148C28.6719 17.18 28.3839 17.2387 28.1172 17.324L28.1172 6.524C28.1172 6.044 28.0319 5.692 27.8612 5.468C27.7012 5.23333 27.4026 5.116 26.9652 5.116L26.9652 4.78C27.3066 4.812 27.6372 4.828 27.9572 4.828C28.3092 4.828 28.6452 4.812 28.9652 4.78C29.2852 4.73733 29.5786 4.67867 29.8452 4.604ZM26.2452 8.668C26.7146 8.668 27.1412 8.76933 27.5252 8.972C27.9199 9.17467 28.1972 9.516 28.3572 9.996L28.1652 10.172C28.0159 9.788 27.7972 9.51067 27.5092 9.34C27.2212 9.15867 26.8959 9.068 26.5332 9.068C25.9252 9.068 25.4292 9.39333 25.0452 10.044C24.6612 10.684 24.4746 11.676 24.4852 13.02C24.4852 13.9053 24.5599 14.6307 24.7092 15.196C24.8586 15.7507 25.0772 16.1613 25.3652 16.428C25.6639 16.6947 26.0212 16.828 26.4372 16.828C26.8532 16.828 27.2266 16.652 27.5572 16.3C27.8986 15.948 28.1012 15.4413 28.1652 14.78L28.3092 15.116C28.2026 15.8413 27.9466 16.4013 27.5412 16.796C27.1359 17.18 26.5919 17.372 25.9092 17.372C25.2586 17.372 24.6826 17.2173 24.1812 16.908C23.6906 16.588 23.3119 16.108 23.0452 15.468C22.7786 14.8173 22.6452 14.0013 22.6452 13.02C22.6452 12.0493 22.8052 11.244 23.1252 10.604C23.4559 9.95333 23.8932 9.468 24.4372 9.148C24.9812 8.828 25.5839 8.668 26.2452 8.668ZM39.2359 4.604L39.2359 15.404C39.2359 15.884 39.3159 16.2413 39.4759 16.476C39.6465 16.7 39.9505 16.812 40.3879 16.812L40.3879 17.148C40.0572 17.116 39.7265 17.1 39.3959 17.1C39.0332 17.1 38.6919 17.116 38.3719 17.148C38.0625 17.18 37.7745 17.2387 37.5079 17.324L37.5079 6.524C37.5079 6.044 37.4225 5.692 37.2519 5.468C37.0919 5.23333 36.7932 5.116 36.3559 5.116L36.3559 4.78C36.6972 4.812 37.0279 4.828 37.3479 4.828C37.6999 4.828 38.0359 4.812 38.3559 4.78C38.6759 4.73733 38.9692 4.67867 39.2359 4.604ZM35.6359 8.668C36.1052 8.668 36.5319 8.76933 36.9159 8.972C37.3105 9.17467 37.5879 9.516 37.7479 9.996L37.5559 10.172C37.4065 9.788 37.1879 9.51067 36.8999 9.34C36.6119 9.15867 36.2865 9.068 35.9239 9.068C35.3159 9.068 34.8199 9.39333 34.4359 10.044C34.0519 10.684 33.8652 11.676 33.8759 13.02C33.8759 13.9053 33.9505 14.6307 34.0999 15.196C34.2492 15.7507 34.4679 16.1613 34.7559 16.428C35.0545 16.6947 35.4119 16.828 35.8279 16.828C36.2439 16.828 36.6172 16.652 36.9479 16.3C37.2892 15.948 37.4919 15.4413 37.5559 14.78L37.6999 15.116C37.5932 15.8413 37.3372 16.4013 36.9319 16.796C36.5265 17.18 35.9825 17.372 35.2999 17.372C34.6492 17.372 34.0732 17.2173 33.5719 16.908C33.0812 16.588 32.7025 16.108 32.4359 15.468C32.1692 14.8173 32.0359 14.0013 32.0359 13.02C32.0359 12.0493 32.1959 11.244 32.5159 10.604C32.8465 9.95333 33.2839 9.468 33.8279 9.148C34.3719 8.828 34.9745 8.668 35.6359 8.668ZM43.0585 4.86C43.3892 4.86 43.6665 4.96667 43.8905 5.18C44.1145 5.38267 44.2265 5.63867 44.2265 5.948C44.2265 6.25733 44.1145 6.51867 43.8905 6.732C43.6665 6.93467 43.3892 7.036 43.0585 7.036C42.7278 7.036 42.4505 6.93467 42.2265 6.732C42.0025 6.51867 41.8905 6.25733 41.8905 5.948C41.8905 5.63867 42.0025 5.38267 42.2265 5.18C42.4505 4.96667 42.7278 4.86 43.0585 4.86ZM44.0185 8.716L44.0185 15.66C44.0185 16.108 44.1038 16.412 44.2745 16.572C44.4558 16.732 44.7545 16.812 45.1705 16.812L45.1705 17.148C44.9892 17.1373 44.7065 17.1267 44.3225 17.116C43.9492 17.0947 43.5652 17.084 43.1705 17.084C42.7972 17.084 42.4132 17.0947 42.0185 17.116C41.6238 17.1267 41.3305 17.1373 41.1385 17.148L41.1385 16.812C41.5545 16.812 41.8478 16.732 42.0185 16.572C42.1998 16.412 42.2905 16.108 42.2905 15.66L42.2905 10.636C42.2905 10.156 42.2105 9.804 42.0505 9.58C41.8905 9.34533 41.5865 9.228 41.1385 9.228L41.1385 8.892C41.4798 8.924 41.8105 8.94 42.1305 8.94C42.4932 8.94 42.8292 8.924 43.1385 8.892C43.4585 8.84933 43.7518 8.79067 44.0185 8.716ZM51.5034 8.668C51.93 8.668 52.2767 8.72667 52.5434 8.844C52.8207 8.95067 53.05 9.1 53.2314 9.292C53.4234 9.49467 53.5567 9.756 53.6314 10.076C53.7167 10.396 53.7594 10.828 53.7594 11.372L53.7594 15.66C53.7594 16.108 53.8447 16.412 54.0154 16.572C54.1967 16.732 54.4954 16.812 54.9114 16.812L54.9114 17.148C54.73 17.1373 54.4474 17.1267 54.0634 17.116C53.6794 17.0947 53.3007 17.084 52.9274 17.084C52.5647 17.084 52.202 17.0947 51.8394 17.116C51.4874 17.1267 51.2207 17.1373 51.0394 17.148L51.0394 16.812C51.402 16.812 51.658 16.732 51.8074 16.572C51.9567 16.412 52.0314 16.108 52.0314 15.66L52.0314 10.924C52.0314 10.6147 52.0047 10.3373 51.9514 10.092C51.898 9.836 51.786 9.63333 51.6154 9.484C51.4447 9.324 51.1887 9.244 50.8474 9.244C50.4527 9.244 50.1007 9.356 49.7914 9.58C49.4927 9.804 49.2527 10.1133 49.0714 10.508C48.9007 10.892 48.8154 11.324 48.8154 11.804L48.8154 15.66C48.8154 16.108 48.89 16.412 49.0394 16.572C49.1994 16.732 49.4554 16.812 49.8074 16.812L49.8074 17.148C49.6367 17.1373 49.3754 17.1267 49.0234 17.116C48.682 17.0947 48.3247 17.084 47.9514 17.084C47.5887 17.084 47.21 17.0947 46.8154 17.116C46.4207 17.1267 46.1274 17.1373 45.9354 17.148L45.9354 16.812C46.3514 16.812 46.6447 16.732 46.8154 16.572C46.9967 16.412 47.0874 16.108 47.0874 15.66L47.0874 10.636C47.0874 10.156 47.0074 9.804 46.8474 9.58C46.6874 9.34533 46.3834 9.228 45.9354 9.228L45.9354 8.892C46.2767 8.924 46.6074 8.94 46.9274 8.94C47.29 8.94 47.626 8.924 47.9354 8.892C48.2554 8.84933 48.5487 8.79067 48.8154 8.716L48.8154 10.46C49.0927 9.79867 49.4714 9.33467 49.9514 9.068C50.442 8.80133 50.9594 8.668 51.5034 8.668ZM58.4434 20.156C57.846 20.156 57.2914 20.0973 56.7794 19.98C56.278 19.8627 55.8727 19.6813 55.5634 19.436C55.2647 19.2013 55.1154 18.8973 55.1154 18.524C55.1154 18.172 55.2647 17.8627 55.5634 17.596C55.862 17.3293 56.2834 17.1267 56.8274 16.988L56.9394 17.244C56.7154 17.34 56.5394 17.4947 56.4114 17.708C56.294 17.9213 56.2354 18.156 56.2354 18.412C56.2354 18.8813 56.454 19.244 56.8914 19.5C57.3287 19.756 57.9047 19.884 58.6194 19.884C59.0994 19.884 59.5527 19.82 59.9794 19.692C60.4167 19.5747 60.7687 19.3773 61.0354 19.1C61.3127 18.8227 61.4514 18.4653 61.4514 18.028C61.4514 17.6867 61.3287 17.3987 61.0834 17.164C60.838 16.94 60.3527 16.828 59.6274 16.828L58.5074 16.828C58.134 16.828 57.7874 16.796 57.4674 16.732C57.1474 16.668 56.886 16.5453 56.6834 16.364C56.4914 16.172 56.3954 15.9053 56.3954 15.564C56.3954 15.18 56.5554 14.8173 56.8754 14.476C57.1954 14.1347 57.734 13.7987 58.4914 13.468L58.6834 13.612C58.374 13.7827 58.0967 13.9587 57.8514 14.14C57.6167 14.3107 57.4994 14.524 57.4994 14.78C57.4994 15.1213 57.7447 15.292 58.2354 15.292L60.1394 15.292C60.6407 15.292 61.094 15.3613 61.4994 15.5C61.9047 15.628 62.23 15.836 62.4754 16.124C62.7207 16.412 62.8434 16.7907 62.8434 17.26C62.8434 17.7613 62.678 18.2307 62.3474 18.668C62.0274 19.116 61.542 19.4733 60.8914 19.74C60.2407 20.0173 59.4247 20.156 58.4434 20.156ZM58.5394 13.74C57.9954 13.74 57.4994 13.6547 57.0514 13.484C56.6034 13.3027 56.2514 13.0253 55.9954 12.652C55.7394 12.2787 55.6114 11.7987 55.6114 11.212C55.6114 10.6253 55.7394 10.1453 55.9954 9.772C56.2514 9.388 56.6034 9.11067 57.0514 8.94C57.4994 8.75867 57.9954 8.668 58.5394 8.668C59.1047 8.668 59.606 8.75867 60.0434 8.94C60.4807 9.11067 60.8274 9.388 61.0834 9.772C61.3394 10.1453 61.4674 10.6253 61.4674 11.212C61.4674 11.7987 61.3394 12.2787 61.0834 12.652C60.8274 13.0253 60.4807 13.3027 60.0434 13.484C59.606 13.6547 59.1047 13.74 58.5394 13.74ZM58.5394 13.452C58.9127 13.452 59.2007 13.292 59.4034 12.972C59.606 12.652 59.7074 12.0653 59.7074 11.212C59.7074 10.3587 59.606 9.772 59.4034 9.452C59.2007 9.12133 58.9127 8.956 58.5394 8.956C58.1874 8.956 57.9047 9.12133 57.6914 9.452C57.478 9.772 57.3714 10.3587 57.3714 11.212C57.3714 12.0653 57.478 12.652 57.6914 12.972C57.9047 13.292 58.1874 13.452 58.5394 13.452ZM60.9074 10.012L60.6194 9.9C60.7687 9.52667 61.0247 9.20133 61.3874 8.924C61.75 8.64667 62.1287 8.508 62.5234 8.508C62.822 8.508 63.0567 8.59333 63.2274 8.764C63.4087 8.924 63.4994 9.15333 63.4994 9.452C63.4994 9.78267 63.4087 10.0173 63.2274 10.156C63.0567 10.2947 62.8754 10.364 62.6834 10.364C62.5127 10.364 62.3527 10.3053 62.2034 10.188C62.0647 10.0707 61.9847 9.88933 61.9634 9.644C61.942 9.388 62.022 9.06267 62.2034 8.668L62.3794 8.732C61.9527 8.90267 61.638 9.084 61.4354 9.276C61.2434 9.45733 61.0674 9.70267 60.9074 10.012ZM72.6717 5.82C74.6451 5.82 76.1117 6.3 77.0717 7.26C78.0317 8.20933 78.5117 9.57467 78.5117 11.356C78.5117 12.5187 78.2771 13.5373 77.8077 14.412C77.3384 15.276 76.6557 15.948 75.7598 16.428C74.8744 16.908 73.7971 17.148 72.5277 17.148C72.3677 17.148 72.1491 17.1427 71.8717 17.132C71.6051 17.1213 71.3277 17.116 71.0397 17.116C70.7517 17.1053 70.4904 17.1 70.2557 17.1C69.8504 17.1 69.4504 17.1053 69.0557 17.116C68.6717 17.116 68.3571 17.1267 68.1117 17.148L68.1117 16.828C68.4744 16.8067 68.7464 16.764 68.9277 16.7C69.1091 16.636 69.2264 16.508 69.2797 16.316C69.3438 16.124 69.3757 15.836 69.3757 15.452L69.3757 7.516C69.3757 7.12133 69.3438 6.83333 69.2797 6.652C69.2264 6.46 69.1037 6.332 68.9118 6.268C68.7304 6.19333 68.4637 6.15067 68.1117 6.14L68.1117 5.82C68.3571 5.83067 68.6717 5.84667 69.0557 5.868C69.4504 5.87867 69.8397 5.87867 70.2237 5.868C70.6077 5.85733 71.0344 5.84667 71.5037 5.836C71.9837 5.82533 72.3731 5.82 72.6717 5.82ZM72.3997 6.108C71.9091 6.108 71.5891 6.19867 71.4398 6.38C71.2904 6.56133 71.2157 6.92933 71.2157 7.484L71.2157 15.484C71.2157 16.0387 71.2904 16.4067 71.4398 16.588C71.5997 16.7693 71.9251 16.86 72.4157 16.86C73.4931 16.86 74.3304 16.652 74.9277 16.236C75.5251 15.8093 75.9464 15.1907 76.1917 14.38C76.4371 13.5693 76.5597 12.5827 76.5597 11.42C76.5597 10.2253 76.4264 9.23867 76.1597 8.46C75.8931 7.67067 75.4557 7.084 74.8477 6.7C74.2504 6.30533 73.4344 6.108 72.3997 6.108ZM84.9311 8.668C85.2405 8.668 85.5018 8.732 85.7151 8.86C85.9391 8.988 86.1045 9.15333 86.2111 9.356C86.3285 9.548 86.3871 9.76667 86.3871 10.012C86.3871 10.3213 86.2911 10.588 86.0991 10.812C85.9178 11.0253 85.6725 11.132 85.3631 11.132C85.0965 11.132 84.8671 11.052 84.6751 10.892C84.4938 10.732 84.4031 10.5133 84.4031 10.236C84.4031 10.0013 84.4618 9.804 84.5791 9.644C84.7071 9.47333 84.8511 9.34 85.0111 9.244C84.9045 9.15867 84.7765 9.12133 84.6271 9.132C84.3391 9.14267 84.0725 9.23867 83.8271 9.42C83.5818 9.59067 83.3738 9.81467 83.2031 10.092C83.0325 10.3587 82.8991 10.6467 82.8031 10.956C82.7071 11.2653 82.6591 11.5533 82.6591 11.82L82.6591 15.5C82.6591 16.0227 82.8031 16.3747 83.0911 16.556C83.3791 16.7267 83.7791 16.812 84.2911 16.812L84.2911 17.148C84.0458 17.1373 83.6938 17.1267 83.2351 17.116C82.7871 17.0947 82.3125 17.084 81.8111 17.084C81.4271 17.084 81.0431 17.0947 80.6591 17.116C80.2751 17.1267 79.9818 17.1373 79.7791 17.148L79.7791 16.812C80.1951 16.812 80.4885 16.732 80.6591 16.572C80.8405 16.412 80.9311 16.108 80.9311 15.66L80.9311 10.636C80.9311 10.156 80.8511 9.804 80.6911 9.58C80.5311 9.34533 80.2271 9.228 79.7791 9.228L79.7791 8.892C80.1205 8.924 80.4511 8.94 80.7711 8.94C81.1338 8.94 81.4698 8.924 81.7791 8.892C82.0991 8.84933 82.3925 8.79067 82.6591 8.716L82.6591 10.556C82.7871 10.2467 82.9578 9.948 83.1711 9.66C83.3845 9.372 83.6405 9.13733 83.9391 8.956C84.2378 8.764 84.5685 8.668 84.9311 8.668ZM90.7002 8.668C91.6389 8.668 92.3749 8.95067 92.9082 9.516C93.4416 10.0813 93.7082 10.9773 93.7082 12.204L88.1882 12.204L88.1562 11.9L92.0122 11.9C92.0229 11.3773 91.9802 10.8973 91.8842 10.46C91.7882 10.012 91.6389 9.65467 91.4362 9.388C91.2336 9.12133 90.9669 8.988 90.6362 8.988C90.1776 8.988 89.7776 9.23333 89.4362 9.724C89.1056 10.204 88.9029 10.9773 88.8282 12.044L88.8763 12.124C88.8656 12.2733 88.8549 12.4387 88.8442 12.62C88.8336 12.7907 88.8282 12.9613 88.8282 13.132C88.8282 13.868 88.9402 14.4867 89.1642 14.988C89.3882 15.4893 89.6816 15.868 90.0443 16.124C90.4069 16.3693 90.7749 16.492 91.1482 16.492C91.4362 16.492 91.7136 16.4493 91.9802 16.364C92.2576 16.268 92.5189 16.1133 92.7642 15.9C93.0096 15.676 93.2282 15.372 93.4202 14.988L93.7402 15.116C93.6122 15.4787 93.4149 15.836 93.1482 16.188C92.8816 16.54 92.5402 16.828 92.1242 17.052C91.7082 17.2653 91.2229 17.372 90.6682 17.372C89.9216 17.372 89.2709 17.2067 88.7162 16.876C88.1616 16.5347 87.7349 16.0493 87.4362 15.42C87.1376 14.7907 86.9883 14.044 86.9883 13.18C86.9883 12.2307 87.1429 11.42 87.4522 10.748C87.7616 10.076 88.1936 9.564 88.7482 9.212C89.3136 8.84933 89.9642 8.668 90.7002 8.668ZM97.7864 8.668C98.213 8.668 98.581 8.73733 98.8904 8.876C99.2104 9.004 99.4397 9.12133 99.5784 9.228C99.9304 9.50533 100.149 9.324 100.234 8.684L100.586 8.684C100.565 8.98267 100.549 9.34533 100.538 9.772C100.528 10.188 100.522 10.7427 100.522 11.436L100.17 11.436C100.106 11.0413 99.9944 10.6573 99.8344 10.284C99.685 9.91067 99.461 9.60133 99.1624 9.356C98.8744 9.11067 98.4957 8.988 98.0264 8.988C97.6744 8.988 97.381 9.08933 97.1464 9.292C96.9117 9.484 96.7944 9.772 96.7944 10.156C96.7944 10.476 96.8904 10.7533 97.0824 10.988C97.2744 11.2227 97.5197 11.4413 97.8184 11.644C98.1277 11.8467 98.4584 12.0653 98.8104 12.3C99.205 12.5667 99.557 12.8333 99.8664 13.1C100.186 13.356 100.437 13.644 100.618 13.964C100.81 14.284 100.906 14.6573 100.906 15.084C100.906 15.5747 100.773 15.9907 100.506 16.332C100.25 16.6733 99.909 16.9347 99.4824 17.116C99.0557 17.2867 98.5864 17.372 98.0744 17.372C97.8184 17.372 97.5784 17.3453 97.3544 17.292C97.1304 17.2493 96.9224 17.1907 96.7304 17.116C96.613 17.052 96.4957 16.988 96.3784 16.924C96.2717 16.8493 96.165 16.78 96.0584 16.716C95.9517 16.6413 95.8557 16.652 95.7704 16.748C95.685 16.844 95.621 17.0147 95.5784 17.26L95.2264 17.26C95.2477 16.9187 95.2637 16.5027 95.2744 16.012C95.285 15.5213 95.2904 14.8707 95.2904 14.06L95.6424 14.06C95.717 14.6467 95.829 15.164 95.9784 15.612C96.1277 16.06 96.3464 16.412 96.6344 16.668C96.933 16.9133 97.3384 17.036 97.8504 17.036C98.053 17.036 98.2557 16.9933 98.4584 16.908C98.661 16.812 98.8264 16.6627 98.9544 16.46C99.093 16.2573 99.1624 15.9853 99.1624 15.644C99.1624 15.1747 98.997 14.7907 98.6664 14.492C98.3464 14.1827 97.9304 13.8573 97.4184 13.516C97.0557 13.26 96.709 13.0093 96.3784 12.764C96.0584 12.508 95.797 12.2253 95.5944 11.916C95.3917 11.596 95.2904 11.2173 95.2904 10.78C95.2904 10.3 95.4024 9.90533 95.6264 9.596C95.861 9.28667 96.1704 9.05733 96.5544 8.908C96.9384 8.748 97.349 8.668 97.7864 8.668ZM105.021 8.668C105.447 8.668 105.815 8.73733 106.125 8.876C106.445 9.004 106.674 9.12133 106.813 9.228C107.165 9.50533 107.383 9.324 107.469 8.684L107.821 8.684C107.799 8.98267 107.783 9.34533 107.773 9.772C107.762 10.188 107.757 10.7427 107.757 11.436L107.405 11.436C107.341 11.0413 107.229 10.6573 107.069 10.284C106.919 9.91067 106.695 9.60133 106.397 9.356C106.109 9.11067 105.73 8.988 105.261 8.988C104.909 8.988 104.615 9.08933 104.381 9.292C104.146 9.484 104.029 9.772 104.029 10.156C104.029 10.476 104.125 10.7533 104.317 10.988C104.509 11.2227 104.754 11.4413 105.053 11.644C105.362 11.8467 105.693 12.0653 106.045 12.3C106.439 12.5667 106.791 12.8333 107.101 13.1C107.421 13.356 107.671 13.644 107.853 13.964C108.045 14.284 108.141 14.6573 108.141 15.084C108.141 15.5747 108.007 15.9907 107.741 16.332C107.485 16.6733 107.143 16.9347 106.717 17.116C106.29 17.2867 105.821 17.372 105.309 17.372C105.053 17.372 104.813 17.3453 104.589 17.292C104.365 17.2493 104.157 17.1907 103.965 17.116C103.847 17.052 103.73 16.988 103.613 16.924C103.506 16.8493 103.399 16.78 103.293 16.716C103.186 16.6413 103.09 16.652 103.005 16.748C102.919 16.844 102.855 17.0147 102.813 17.26L102.461 17.26C102.482 16.9187 102.498 16.5027 102.509 16.012C102.519 15.5213 102.525 14.8707 102.525 14.06L102.877 14.06C102.951 14.6467 103.063 15.164 103.213 15.612C103.362 16.06 103.581 16.412 103.869 16.668C104.167 16.9133 104.573 17.036 105.085 17.036C105.287 17.036 105.49 16.9933 105.693 16.908C105.895 16.812 106.061 16.6627 106.189 16.46C106.327 16.2573 106.397 15.9853 106.397 15.644C106.397 15.1747 106.231 14.7907 105.901 14.492C105.581 14.1827 105.165 13.8573 104.653 13.516C104.29 13.26 103.943 13.0093 103.613 12.764C103.293 12.508 103.031 12.2253 102.829 11.916C102.626 11.596 102.525 11.2173 102.525 10.78C102.525 10.3 102.637 9.90533 102.861 9.596C103.095 9.28667 103.405 9.05733 103.789 8.908C104.173 8.748 104.583 8.668 105.021 8.668ZM114.056 5.468C114.258 5.468 114.429 5.54267 114.568 5.692C114.706 5.84133 114.776 6.04933 114.776 6.316C114.776 6.65733 114.744 6.97733 114.68 7.276C114.626 7.564 114.552 7.89467 114.456 8.268C114.37 8.63067 114.274 9.09467 114.168 9.66L113.944 9.66C113.848 9.116 113.752 8.66267 113.656 8.3C113.56 7.93733 113.48 7.60667 113.416 7.308C113.362 6.99867 113.336 6.67333 113.336 6.332C113.336 6.06533 113.405 5.85733 113.544 5.708C113.682 5.55867 113.853 5.47867 114.056 5.468ZM116.072 5.468C116.274 5.468 116.445 5.54267 116.584 5.692C116.722 5.84133 116.792 6.04933 116.792 6.316C116.792 6.65733 116.76 6.97733 116.696 7.276C116.642 7.564 116.568 7.89467 116.472 8.268C116.386 8.63067 116.29 9.09467 116.184 9.66L115.96 9.66C115.864 9.116 115.768 8.66267 115.672 8.3C115.576 7.93733 115.496 7.60667 115.432 7.308C115.378 6.99867 115.352 6.67333 115.352 6.332C115.352 6.06533 115.421 5.85733 115.56 5.708C115.698 5.55867 115.869 5.47867 116.072 5.468ZM128.06 5.82L128.06 6.14C127.847 6.19333 127.617 6.33733 127.372 6.572C127.137 6.80667 126.919 7.18533 126.716 7.708L123.084 17.212C123.041 17.212 122.999 17.212 122.956 17.212C122.913 17.212 122.865 17.212 122.812 17.212C122.769 17.212 122.727 17.212 122.684 17.212C122.641 17.212 122.599 17.212 122.556 17.212L118.588 7.164C118.428 6.76933 118.252 6.50267 118.06 6.364C117.868 6.22533 117.687 6.15067 117.516 6.14L117.516 5.82C117.761 5.83067 118.06 5.84133 118.412 5.852C118.775 5.86267 119.127 5.868 119.468 5.868C119.905 5.868 120.316 5.86267 120.7 5.852C121.095 5.84133 121.409 5.83067 121.644 5.82L121.644 6.14C121.292 6.15067 121.02 6.19333 120.828 6.268C120.636 6.34267 120.529 6.476 120.508 6.668C120.497 6.84933 120.561 7.12133 120.7 7.484L123.66 15.212L123.372 15.532L125.964 8.716C126.209 8.06533 126.332 7.55867 126.332 7.196C126.332 6.82267 126.215 6.556 125.98 6.396C125.745 6.236 125.404 6.15067 124.956 6.14L124.956 5.82C125.287 5.83067 125.612 5.84133 125.932 5.852C126.252 5.86267 126.556 5.868 126.844 5.868C127.111 5.868 127.34 5.86267 127.532 5.852C127.724 5.84133 127.9 5.83067 128.06 5.82ZM131.341 8.668C132.28 8.668 133.016 8.95067 133.549 9.516C134.082 10.0813 134.349 10.9773 134.349 12.204L128.829 12.204L128.797 11.9L132.653 11.9C132.664 11.3773 132.621 10.8973 132.525 10.46C132.429 10.012 132.28 9.65467 132.077 9.388C131.874 9.12133 131.608 8.988 131.277 8.988C130.818 8.988 130.418 9.23333 130.077 9.724C129.746 10.204 129.544 10.9773 129.469 12.044L129.517 12.124C129.506 12.2733 129.496 12.4387 129.485 12.62C129.474 12.7907 129.469 12.9613 129.469 13.132C129.469 13.868 129.581 14.4867 129.805 14.988C130.029 15.4893 130.322 15.868 130.685 16.124C131.048 16.3693 131.416 16.492 131.789 16.492C132.077 16.492 132.354 16.4493 132.621 16.364C132.898 16.268 133.16 16.1133 133.405 15.9C133.65 15.676 133.869 15.372 134.061 14.988L134.381 15.116C134.253 15.4787 134.056 15.836 133.789 16.188C133.522 16.54 133.181 16.828 132.765 17.052C132.349 17.2653 131.864 17.372 131.309 17.372C130.562 17.372 129.912 17.2067 129.357 16.876C128.802 16.5347 128.376 16.0493 128.077 15.42C127.778 14.7907 127.629 14.044 127.629 13.18C127.629 12.2307 127.784 11.42 128.093 10.748C128.402 10.076 128.834 9.564 129.389 9.212C129.954 8.84933 130.605 8.668 131.341 8.668ZM140.572 8.668C140.881 8.668 141.142 8.732 141.356 8.86C141.58 8.988 141.745 9.15333 141.852 9.356C141.969 9.548 142.028 9.76667 142.028 10.012C142.028 10.3213 141.932 10.588 141.74 10.812C141.558 11.0253 141.313 11.132 141.004 11.132C140.737 11.132 140.508 11.052 140.316 10.892C140.134 10.732 140.044 10.5133 140.044 10.236C140.044 10.0013 140.102 9.804 140.22 9.644C140.348 9.47333 140.492 9.34 140.652 9.244C140.545 9.15867 140.417 9.12133 140.268 9.132C139.98 9.14267 139.713 9.23867 139.468 9.42C139.222 9.59067 139.014 9.81467 138.844 10.092C138.673 10.3587 138.54 10.6467 138.444 10.956C138.348 11.2653 138.3 11.5533 138.3 11.82L138.3 15.5C138.3 16.0227 138.444 16.3747 138.732 16.556C139.02 16.7267 139.42 16.812 139.932 16.812L139.932 17.148C139.686 17.1373 139.334 17.1267 138.876 17.116C138.428 17.0947 137.953 17.084 137.452 17.084C137.068 17.084 136.684 17.0947 136.3 17.116C135.916 17.1267 135.622 17.1373 135.42 17.148L135.42 16.812C135.836 16.812 136.129 16.732 136.3 16.572C136.481 16.412 136.572 16.108 136.572 15.66L136.572 10.636C136.572 10.156 136.492 9.804 136.332 9.58C136.172 9.34533 135.868 9.228 135.42 9.228L135.42 8.892C135.761 8.924 136.092 8.94 136.412 8.94C136.774 8.94 137.11 8.924 137.42 8.892C137.74 8.84933 138.033 8.79067 138.3 8.716L138.3 10.556C138.428 10.2467 138.598 9.948 138.812 9.66C139.025 9.372 139.281 9.13733 139.58 8.956C139.878 8.764 140.209 8.668 140.572 8.668ZM146.373 8.668C147.088 8.668 147.722 8.81733 148.277 9.116C148.832 9.41467 149.274 9.884 149.605 10.524C149.936 11.164 150.101 12.0013 150.101 13.036C150.101 14.0707 149.936 14.908 149.605 15.548C149.274 16.1773 148.832 16.6413 148.277 16.94C147.722 17.228 147.088 17.372 146.373 17.372C145.669 17.372 145.034 17.228 144.469 16.94C143.904 16.6413 143.456 16.1773 143.125 15.548C142.805 14.908 142.645 14.0707 142.645 13.036C142.645 12.0013 142.805 11.164 143.125 10.524C143.456 9.884 143.904 9.41467 144.469 9.116C145.034 8.81733 145.669 8.668 146.373 8.668ZM146.373 8.988C145.818 8.988 145.365 9.308 145.013 9.948C144.661 10.5773 144.485 11.6067 144.485 13.036C144.485 14.4653 144.661 15.4947 145.013 16.124C145.365 16.7427 145.818 17.052 146.373 17.052C146.917 17.052 147.365 16.7427 147.717 16.124C148.08 15.4947 148.261 14.4653 148.261 13.036C148.261 11.6067 148.08 10.5773 147.717 9.948C147.365 9.308 146.917 8.988 146.373 8.988ZM156.8 8.668C157.227 8.668 157.574 8.72667 157.84 8.844C158.118 8.95067 158.347 9.1 158.528 9.292C158.72 9.49467 158.854 9.756 158.928 10.076C159.014 10.396 159.056 10.828 159.056 11.372L159.056 15.66C159.056 16.108 159.142 16.412 159.312 16.572C159.494 16.732 159.792 16.812 160.208 16.812L160.208 17.148C160.027 17.1373 159.744 17.1267 159.36 17.116C158.976 17.0947 158.598 17.084 158.224 17.084C157.862 17.084 157.499 17.0947 157.136 17.116C156.784 17.1267 156.518 17.1373 156.336 17.148L156.336 16.812C156.699 16.812 156.955 16.732 157.104 16.572C157.254 16.412 157.328 16.108 157.328 15.66L157.328 10.924C157.328 10.6147 157.302 10.3373 157.248 10.092C157.195 9.836 157.083 9.63333 156.912 9.484C156.742 9.324 156.486 9.244 156.144 9.244C155.75 9.244 155.398 9.356 155.088 9.58C154.79 9.804 154.55 10.1133 154.368 10.508C154.198 10.892 154.112 11.324 154.112 11.804L154.112 15.66C154.112 16.108 154.187 16.412 154.336 16.572C154.496 16.732 154.752 16.812 155.104 16.812L155.104 17.148C154.934 17.1373 154.672 17.1267 154.32 17.116C153.979 17.0947 153.622 17.084 153.248 17.084C152.886 17.084 152.507 17.0947 152.112 17.116C151.718 17.1267 151.424 17.1373 151.232 17.148L151.232 16.812C151.648 16.812 151.942 16.732 152.112 16.572C152.294 16.412 152.384 16.108 152.384 15.66L152.384 10.636C152.384 10.156 152.304 9.804 152.144 9.58C151.984 9.34533 151.68 9.228 151.232 9.228L151.232 8.892C151.574 8.924 151.904 8.94 152.224 8.94C152.587 8.94 152.923 8.924 153.232 8.892C153.552 8.84933 153.846 8.79067 154.112 8.716L154.112 10.46C154.39 9.79867 154.768 9.33467 155.248 9.068C155.739 8.80133 156.256 8.668 156.8 8.668ZM162.793 4.86C163.124 4.86 163.401 4.96667 163.625 5.18C163.849 5.38267 163.961 5.63867 163.961 5.948C163.961 6.25733 163.849 6.51867 163.625 6.732C163.401 6.93467 163.124 7.036 162.793 7.036C162.462 7.036 162.185 6.93467 161.961 6.732C161.737 6.51867 161.625 6.25733 161.625 5.948C161.625 5.63867 161.737 5.38267 161.961 5.18C162.185 4.96667 162.462 4.86 162.793 4.86ZM163.753 8.716L163.753 15.66C163.753 16.108 163.838 16.412 164.009 16.572C164.19 16.732 164.489 16.812 164.905 16.812L164.905 17.148C164.724 17.1373 164.441 17.1267 164.057 17.116C163.684 17.0947 163.3 17.084 162.905 17.084C162.532 17.084 162.148 17.0947 161.753 17.116C161.358 17.1267 161.065 17.1373 160.873 17.148L160.873 16.812C161.289 16.812 161.582 16.732 161.753 16.572C161.934 16.412 162.025 16.108 162.025 15.66L162.025 10.636C162.025 10.156 161.945 9.804 161.785 9.58C161.625 9.34533 161.321 9.228 160.873 9.228L160.873 8.892C161.214 8.924 161.545 8.94 161.865 8.94C162.228 8.94 162.564 8.924 162.873 8.892C163.193 8.84933 163.486 8.79067 163.753 8.716ZM169.734 8.668C170.096 8.668 170.443 8.716 170.774 8.812C171.104 8.89733 171.392 9.02 171.638 9.18C171.894 9.34 172.086 9.532 172.214 9.756C172.352 9.98 172.422 10.2253 172.422 10.492C172.422 10.812 172.331 11.0627 172.15 11.244C171.968 11.4253 171.734 11.516 171.446 11.516C171.158 11.516 170.918 11.436 170.726 11.276C170.534 11.116 170.438 10.8867 170.438 10.588C170.438 10.3107 170.518 10.0867 170.678 9.916C170.838 9.73467 171.024 9.61733 171.238 9.564C171.142 9.404 170.971 9.27067 170.726 9.164C170.491 9.04667 170.235 8.988 169.958 8.988C169.67 8.988 169.392 9.06267 169.126 9.212C168.87 9.36133 168.64 9.59067 168.438 9.9C168.235 10.2093 168.07 10.6093 167.942 11.1C167.824 11.5907 167.766 12.1827 167.766 12.876C167.766 13.772 167.867 14.4867 168.07 15.02C168.283 15.5427 168.56 15.916 168.902 16.14C169.243 16.364 169.611 16.476 170.006 16.476C170.262 16.476 170.523 16.428 170.79 16.332C171.067 16.236 171.328 16.076 171.574 15.852C171.83 15.628 172.054 15.324 172.246 14.94L172.55 15.052C172.432 15.404 172.246 15.7613 171.99 16.124C171.744 16.4867 171.419 16.7853 171.014 17.02C170.608 17.2547 170.112 17.372 169.526 17.372C168.854 17.372 168.246 17.2067 167.702 16.876C167.158 16.5453 166.726 16.0653 166.406 15.436C166.086 14.796 165.926 14.0173 165.926 13.1C165.926 12.204 166.086 11.4253 166.406 10.764C166.736 10.092 167.19 9.57467 167.766 9.212C168.342 8.84933 168.998 8.668 169.734 8.668ZM175.754 17.26C175.306 17.26 174.922 17.1747 174.602 17.004C174.282 16.8333 174.042 16.5987 173.882 16.3C173.722 16.0013 173.642 15.66 173.642 15.276C173.642 14.8067 173.749 14.428 173.962 14.14C174.175 13.8413 174.447 13.6013 174.778 13.42C175.119 13.2387 175.477 13.0893 175.85 12.972C176.234 12.844 176.591 12.7267 176.922 12.62C177.263 12.5027 177.541 12.3693 177.754 12.22C177.978 12.0707 178.09 11.8733 178.09 11.628L178.09 10.54C178.09 10.156 178.026 9.852 177.898 9.628C177.781 9.39333 177.615 9.228 177.402 9.132C177.199 9.036 176.954 8.988 176.666 8.988C176.421 8.988 176.159 9.02533 175.882 9.1C175.605 9.164 175.386 9.29733 175.226 9.5C175.461 9.564 175.653 9.692 175.802 9.884C175.962 10.0653 176.042 10.2947 176.042 10.572C176.042 10.8707 175.941 11.1053 175.738 11.276C175.546 11.4467 175.301 11.532 175.002 11.532C174.671 11.532 174.426 11.4307 174.266 11.228C174.106 11.0147 174.026 10.7693 174.026 10.492C174.026 10.204 174.095 9.96933 174.234 9.788C174.383 9.60667 174.575 9.436 174.81 9.276C175.066 9.10533 175.391 8.96133 175.786 8.844C176.191 8.72667 176.639 8.668 177.13 8.668C177.589 8.668 177.983 8.72133 178.314 8.828C178.655 8.924 178.938 9.084 179.162 9.308C179.429 9.55333 179.605 9.86267 179.69 10.236C179.775 10.5987 179.818 11.0413 179.818 11.564L179.818 15.98C179.818 16.2467 179.85 16.4387 179.914 16.556C179.989 16.6627 180.106 16.716 180.266 16.716C180.373 16.716 180.474 16.6893 180.57 16.636C180.677 16.5827 180.799 16.5027 180.938 16.396L181.098 16.668C180.874 16.8493 180.645 16.9933 180.41 17.1C180.186 17.2067 179.898 17.26 179.546 17.26C179.205 17.26 178.927 17.2067 178.714 17.1C178.501 16.9933 178.341 16.8387 178.234 16.636C178.138 16.4333 178.09 16.1827 178.09 15.884C177.813 16.332 177.482 16.6733 177.098 16.908C176.714 17.1427 176.266 17.26 175.754 17.26ZM176.522 16.492C176.821 16.492 177.098 16.4067 177.354 16.236C177.621 16.0653 177.866 15.8093 178.09 15.468L178.09 12.284C177.973 12.4547 177.802 12.604 177.578 12.732C177.354 12.8493 177.114 12.972 176.858 13.1C176.602 13.228 176.357 13.3773 176.122 13.548C175.898 13.708 175.711 13.916 175.562 14.172C175.413 14.428 175.338 14.7533 175.338 15.148C175.338 15.564 175.445 15.8947 175.658 16.14C175.871 16.3747 176.159 16.492 176.522 16.492ZM182.321 5.468C182.524 5.468 182.695 5.54267 182.833 5.692C182.972 5.84133 183.041 6.04933 183.041 6.316C183.041 6.65733 183.009 6.97733 182.945 7.276C182.892 7.564 182.817 7.89467 182.721 8.268C182.636 8.63067 182.54 9.09467 182.433 9.66L182.209 9.66C182.113 9.116 182.017 8.66267 181.921 8.3C181.825 7.93733 181.745 7.60667 181.681 7.308C181.628 6.99867 181.601 6.67333 181.601 6.332C181.601 6.06533 181.671 5.85733 181.809 5.708C181.948 5.55867 182.119 5.47867 182.321 5.468ZM184.337 5.468C184.54 5.468 184.711 5.54267 184.849 5.692C184.988 5.84133 185.057 6.04933 185.057 6.316C185.057 6.65733 185.025 6.97733 184.961 7.276C184.908 7.564 184.833 7.89467 184.737 8.268C184.652 8.63067 184.556 9.09467 184.449 9.66L184.225 9.66C184.129 9.116 184.033 8.66267 183.937 8.3C183.841 7.93733 183.761 7.60667 183.697 7.308C183.644 6.99867 183.617 6.67333 183.617 6.332C183.617 6.06533 183.687 5.85733 183.825 5.708C183.964 5.55867 184.135 5.47867 184.337 5.468Z" fill="rgb(0,0,0)" fill-rule="nonzero" />
		<path id="1200 $ USD" d="M4.096 44.516L2.848 44.516L2.848 35.428L0.431997 36.916L0.431997 35.556L2.912 34.052L4.096 34.052L4.096 44.516ZM12.5319 44.516L5.92387 44.516L5.92387 43.444C9.23054 40.948 10.8839 38.868 10.8839 37.204C10.8839 36.5427 10.6919 36.036 10.3079 35.684C9.92387 35.3213 9.40654 35.14 8.75587 35.14C7.91321 35.14 7.08121 35.4547 6.25987 36.084L6.25987 34.82C7.01721 34.2333 7.88654 33.94 8.86787 33.94C9.80654 33.94 10.5959 34.212 11.2359 34.756C11.8759 35.3 12.1959 36.0733 12.1959 37.076C12.1959 38.964 10.6865 41.076 7.66787 43.412L12.5319 43.412L12.5319 44.516ZM21.2381 39.252C21.2381 40.884 20.9181 42.1907 20.2781 43.172C19.6381 44.1533 18.7261 44.644 17.5421 44.644C16.4435 44.644 15.5635 44.1533 14.9021 43.172C14.2408 42.1907 13.9101 40.884 13.9101 39.252C13.9101 37.6093 14.2408 36.3133 14.9021 35.364C15.5741 34.404 16.4541 33.924 17.5421 33.924C18.6728 33.924 19.5688 34.404 20.2301 35.364C20.9021 36.3133 21.2381 37.6093 21.2381 39.252ZM15.8941 36.212C15.4355 36.9267 15.2061 37.94 15.2061 39.252C15.2061 40.564 15.4301 41.5933 15.8781 42.34C16.3261 43.076 16.8808 43.444 17.5421 43.444C18.2781 43.444 18.8595 43.0813 19.2861 42.356C19.7235 41.6307 19.9421 40.596 19.9421 39.252C19.9421 37.9187 19.7128 36.9 19.2541 36.196C18.8061 35.4813 18.2355 35.124 17.5421 35.124C16.9021 35.124 16.3528 35.4867 15.8941 36.212ZM29.9412 39.252C29.9412 40.884 29.6212 42.1907 28.9812 43.172C28.3412 44.1533 27.4292 44.644 26.2452 44.644C25.1466 44.644 24.2666 44.1533 23.6052 43.172C22.9439 42.1907 22.6132 40.884 22.6132 39.252C22.6132 37.6093 22.9439 36.3133 23.6052 35.364C24.2772 34.404 25.1572 33.924 26.2452 33.924C27.3759 33.924 28.2719 34.404 28.9332 35.364C29.6052 36.3133 29.9412 37.6093 29.9412 39.252ZM24.5972 36.212C24.1386 36.9267 23.9092 37.94 23.9092 39.252C23.9092 40.564 24.1332 41.5933 24.5812 42.34C25.0292 43.076 25.5839 43.444 26.2452 43.444C26.9812 43.444 27.5626 43.0813 27.9892 42.356C28.4266 41.6307 28.6452 40.596 28.6452 39.252C28.6452 37.9187 28.4159 36.9 27.9572 36.196C27.5092 35.4813 26.9386 35.124 26.2452 35.124C25.6052 35.124 25.0559 35.4867 24.5972 36.212ZM38.7586 46.26L37.6546 46.26L37.6546 44.596C36.78 44.5107 36.0386 44.292 35.4306 43.94L35.4306 42.548C36.2093 43.1347 37.1586 43.428 38.2786 43.428C38.9506 43.428 39.4786 43.2787 39.8626 42.98C40.2573 42.6707 40.4546 42.2387 40.4546 41.684C40.4546 41.428 40.4013 41.204 40.2946 41.012C40.1986 40.8093 40.012 40.6173 39.7346 40.436C39.468 40.2547 39.2546 40.1267 39.0946 40.052C38.9453 39.9667 38.652 39.8333 38.2146 39.652C38.0866 39.5987 37.9906 39.556 37.9266 39.524C37.5426 39.3533 37.2226 39.1987 36.9666 39.06C36.7213 38.9107 36.46 38.7187 36.1826 38.484C35.916 38.2493 35.7133 37.972 35.5746 37.652C35.4466 37.332 35.3826 36.9693 35.3826 36.564C35.3826 35.7107 35.6706 35.028 36.2466 34.516C36.8333 34.004 37.5746 33.716 38.4706 33.652L38.4706 31.988L39.5746 31.988L39.5746 33.684C40.204 33.7587 40.748 33.908 41.2066 34.132L41.2066 35.492C40.556 35.0653 39.7826 34.852 38.8866 34.852C38.236 34.852 37.7186 35.0067 37.3346 35.316C36.9506 35.6147 36.7586 36.0093 36.7586 36.5C36.7586 36.7667 36.8066 37.0013 36.9026 37.204C37.0093 37.396 37.196 37.5827 37.4626 37.764C37.74 37.9453 37.9533 38.0787 38.1026 38.164C38.2626 38.2387 38.5506 38.3667 38.9666 38.548C39.0413 38.58 39.1 38.6067 39.1426 38.628C39.548 38.8093 39.8786 38.9747 40.1346 39.124C40.3906 39.2627 40.6626 39.4493 40.9506 39.684C41.2386 39.9187 41.452 40.2013 41.5906 40.532C41.7293 40.8627 41.7986 41.236 41.7986 41.652C41.7986 42.5267 41.516 43.22 40.9506 43.732C40.396 44.244 39.6653 44.5373 38.7586 44.612L38.7586 46.26ZM55.623 40.42C55.623 41.8067 55.271 42.8573 54.567 43.572C53.8737 44.2867 52.903 44.644 51.655 44.644C50.4283 44.644 49.4683 44.2973 48.775 43.604C48.0817 42.9 47.735 41.8813 47.735 40.548L47.735 33.732L49.031 33.732L49.031 40.532C49.031 41.524 49.2657 42.2547 49.735 42.724C50.215 43.1933 50.855 43.428 51.655 43.428C53.4363 43.428 54.327 42.436 54.327 40.452L54.327 33.732L55.623 33.732L55.623 40.42ZM64.3035 41.652C64.3035 42.6013 63.9782 43.3373 63.3275 43.86C62.6768 44.372 61.8395 44.628 60.8155 44.628C59.6848 44.628 58.7248 44.3987 57.9355 43.94L57.9355 42.548C58.7142 43.1347 59.6635 43.428 60.7835 43.428C61.4555 43.428 61.9835 43.2787 62.3675 42.98C62.7515 42.6813 62.9435 42.2493 62.9435 41.684C62.9435 41.4493 62.8955 41.2413 62.7995 41.06C62.7142 40.868 62.5648 40.6973 62.3515 40.548C62.1488 40.388 61.9515 40.26 61.7595 40.164C61.5782 40.0573 61.3275 39.9293 61.0075 39.78C60.9435 39.748 60.8475 39.7053 60.7195 39.652C60.2608 39.4493 59.9088 39.284 59.6635 39.156C59.4288 39.028 59.1462 38.8413 58.8155 38.596C58.4955 38.34 58.2608 38.0467 58.1115 37.716C57.9622 37.3853 57.8875 37.0013 57.8875 36.564C57.8875 35.6467 58.2128 34.932 58.8635 34.42C59.5248 33.8973 60.3515 33.636 61.3435 33.636C62.2715 33.636 63.0608 33.8013 63.7115 34.132L63.7115 35.492C63.0608 35.0653 62.2822 34.852 61.3755 34.852C60.7248 34.852 60.2075 35.0067 59.8235 35.316C59.4395 35.6147 59.2475 36.0093 59.2475 36.5C59.2475 36.756 59.2955 36.9853 59.3915 37.188C59.4982 37.3907 59.6795 37.5827 59.9355 37.764C60.1915 37.9347 60.4102 38.068 60.5915 38.164C60.7728 38.2493 61.0555 38.3773 61.4395 38.548C61.8022 38.708 62.0795 38.836 62.2715 38.932C62.4635 39.0173 62.7088 39.1613 63.0075 39.364C63.3168 39.556 63.5462 39.748 63.6955 39.94C63.8555 40.1213 63.9942 40.3667 64.1115 40.676C64.2395 40.9747 64.3035 41.3 64.3035 41.652ZM69.7181 44.516L66.4541 44.516L66.4541 33.732L69.6541 33.732C71.2435 33.732 72.5448 34.228 73.5581 35.22C74.5821 36.2013 75.0941 37.476 75.0941 39.044C75.0941 40.6013 74.6195 41.9027 73.6701 42.948C72.7315 43.9933 71.4141 44.516 69.7181 44.516ZM69.6381 34.884L67.7661 34.884L67.7661 43.38L69.7021 43.38C71.0355 43.38 72.0435 42.9693 72.7261 42.148C73.4088 41.316 73.7501 40.2813 73.7501 39.044C73.7501 37.8707 73.3661 36.884 72.5981 36.084C71.8408 35.284 70.8541 34.884 69.6381 34.884Z" fill="rgb(117.938,116.955,116.955)" fill-rule="nonzero" />
	</g>
</svg>
