<svg viewBox="0 0 150.144 49" xmlns="http://www.w3.org/2000/svg" xmlns:xlink="http://www.w3.org/1999/xlink" width="150.144012" height="49.000000" fill="none" customFrame="#000000">
	<g id="text">
		<path id="Wedding Dress &quot;Ella&quot;" d="M15.008 5.82L15.008 6.14C14.7947 6.19333 14.5653 6.33733 14.32 6.572C14.0747 6.796 13.8667 7.17467 13.696 7.708L10.752 17.212C10.7093 17.212 10.6613 17.212 10.608 17.212C10.5653 17.212 10.5227 17.212 10.48 17.212C10.4267 17.212 10.3787 17.212 10.336 17.212C10.2933 17.212 10.2507 17.212 10.208 17.212L6.81601 7.116C6.68801 6.72133 6.53868 6.46533 6.36801 6.348C6.20801 6.22 6.05335 6.15067 5.90401 6.14L5.90401 5.82C6.12801 5.83067 6.40535 5.84133 6.73601 5.852C7.06668 5.86267 7.38668 5.868 7.69601 5.868C8.13335 5.868 8.53868 5.86267 8.91201 5.852C9.29601 5.84133 9.60001 5.83067 9.82401 5.82L9.82401 6.14C9.50401 6.15067 9.24801 6.188 9.05601 6.252C8.87468 6.30533 8.76801 6.42267 8.73601 6.604C8.71468 6.78533 8.76801 7.07867 8.89601 7.484L11.248 14.716L10.976 15.068L12.992 8.716C13.2053 8.05467 13.3013 7.54267 13.28 7.18C13.2693 6.80667 13.1467 6.54533 12.912 6.396C12.688 6.236 12.3573 6.15067 11.92 6.14L11.92 5.82C12.24 5.83067 12.56 5.84133 12.88 5.852C13.2 5.86267 13.5093 5.868 13.808 5.868C14.0747 5.868 14.2987 5.86267 14.48 5.852C14.672 5.84133 14.848 5.83067 15.008 5.82ZM3.74401 5.82L3.74401 6.14C3.48801 6.16133 3.30668 6.22533 3.20001 6.332C3.09335 6.428 3.04001 6.572 3.04001 6.764C3.05068 6.94533 3.10401 7.18533 3.20001 7.484L5.68001 14.892L5.26401 15.356L7.44001 8.588L7.68001 8.988L5.07201 17.212C5.02935 17.212 4.98668 17.212 4.94401 17.212C4.90135 17.212 4.85335 17.212 4.80001 17.212C4.75735 17.212 4.70935 17.212 4.65601 17.212C4.61335 17.212 4.57068 17.212 4.52801 17.212L1.07201 7.164C0.933346 6.75867 0.762679 6.492 0.560012 6.364C0.357346 6.22533 0.170679 6.15067 1.24425e-05 6.14L1.24425e-05 5.82C0.256012 5.83067 0.560012 5.84133 0.912012 5.852C1.26401 5.86267 1.60535 5.868 1.93601 5.868C2.32001 5.868 2.66668 5.86267 2.97601 5.852C3.29601 5.84133 3.55201 5.83067 3.74401 5.82ZM18.2471 8.668C19.1858 8.668 19.9218 8.95067 20.4551 9.516C20.9885 10.0813 21.2551 10.9773 21.2551 12.204L15.7351 12.204L15.7031 11.9L19.5591 11.9C19.5698 11.3773 19.5271 10.8973 19.4311 10.46C19.3351 10.012 19.1858 9.65467 18.9831 9.388C18.7805 9.12133 18.5138 8.988 18.1831 8.988C17.7245 8.988 17.3245 9.23333 16.9831 9.724C16.6525 10.204 16.4498 10.9773 16.3751 12.044L16.4231 12.124C16.4125 12.2733 16.4018 12.4387 16.3911 12.62C16.3805 12.7907 16.3751 12.9613 16.3751 13.132C16.3751 13.868 16.4871 14.4867 16.7111 14.988C16.9351 15.4893 17.2285 15.868 17.5911 16.124C17.9538 16.3693 18.3218 16.492 18.6951 16.492C18.9831 16.492 19.2605 16.4493 19.5271 16.364C19.8045 16.268 20.0658 16.1133 20.3111 15.9C20.5565 15.676 20.7751 15.372 20.9671 14.988L21.2871 15.116C21.1591 15.4787 20.9618 15.836 20.6951 16.188C20.4285 16.54 20.0871 16.828 19.6711 17.052C19.2551 17.2653 18.7698 17.372 18.2151 17.372C17.4685 17.372 16.8178 17.2067 16.2631 16.876C15.7085 16.5347 15.2818 16.0493 14.9831 15.42C14.6845 14.7907 14.5351 14.044 14.5351 13.18C14.5351 12.2307 14.6898 11.42 14.9991 10.748C15.3085 10.076 15.7405 9.564 16.2951 9.212C16.8605 8.84933 17.5111 8.668 18.2471 8.668ZM29.8453 4.604L29.8453 15.404C29.8453 15.884 29.9253 16.2413 30.0853 16.476C30.2559 16.7 30.5599 16.812 30.9973 16.812L30.9973 17.148C30.6666 17.116 30.3359 17.1 30.0053 17.1C29.6426 17.1 29.3013 17.116 28.9813 17.148C28.6719 17.18 28.3839 17.2387 28.1173 17.324L28.1173 6.524C28.1173 6.044 28.0319 5.692 27.8613 5.468C27.7013 5.23333 27.4026 5.116 26.9653 5.116L26.9653 4.78C27.3066 4.812 27.6373 4.828 27.9573 4.828C28.3093 4.828 28.6453 4.812 28.9653 4.78C29.2853 4.73733 29.5786 4.67867 29.8453 4.604ZM26.2453 8.668C26.7146 8.668 27.1413 8.76933 27.5253 8.972C27.9199 9.17467 28.1973 9.516 28.3573 9.996L28.1653 10.172C28.0159 9.788 27.7973 9.51067 27.5093 9.34C27.2213 9.15867 26.8959 9.068 26.5333 9.068C25.9253 9.068 25.4293 9.39333 25.0453 10.044C24.6613 10.684 24.4746 11.676 24.4853 13.02C24.4853 13.9053 24.5599 14.6307 24.7093 15.196C24.8586 15.7507 25.0773 16.1613 25.3653 16.428C25.6639 16.6947 26.0213 16.828 26.4373 16.828C26.8533 16.828 27.2266 16.652 27.5573 16.3C27.8986 15.948 28.1013 15.4413 28.1653 14.78L28.3093 15.116C28.2026 15.8413 27.9466 16.4013 27.5413 16.796C27.1359 17.18 26.5919 17.372 25.9093 17.372C25.2586 17.372 24.6826 17.2173 24.1813 16.908C23.6906 16.588 23.3119 16.108 23.0453 15.468C22.7786 14.8173 22.6453 14.0013 22.6453 13.02C22.6453 12.0493 22.8053 11.244 23.1253 10.604C23.4559 9.95333 23.8933 9.468 24.4373 9.148C24.9813 8.828 25.5839 8.668 26.2453 8.668ZM39.2359 4.604L39.2359 15.404C39.2359 15.884 39.3159 16.2413 39.4759 16.476C39.6466 16.7 39.9506 16.812 40.3879 16.812L40.3879 17.148C40.0572 17.116 39.7266 17.1 39.3959 17.1C39.0332 17.1 38.6919 17.116 38.3719 17.148C38.0626 17.18 37.7746 17.2387 37.5079 17.324L37.5079 6.524C37.5079 6.044 37.4226 5.692 37.2519 5.468C37.0919 5.23333 36.7932 5.116 36.3559 5.116L36.3559 4.78C36.6972 4.812 37.0279 4.828 37.3479 4.828C37.6999 4.828 38.0359 4.812 38.3559 4.78C38.6759 4.73733 38.9692 4.67867 39.2359 4.604ZM35.6359 8.668C36.1052 8.668 36.5319 8.76933 36.9159 8.972C37.3106 9.17467 37.5879 9.516 37.7479 9.996L37.5559 10.172C37.4066 9.788 37.1879 9.51067 36.8999 9.34C36.6119 9.15867 36.2866 9.068 35.9239 9.068C35.3159 9.068 34.8199 9.39333 34.4359 10.044C34.0519 10.684 33.8652 11.676 33.8759 13.02C33.8759 13.9053 33.9506 14.6307 34.0999 15.196C34.2492 15.7507 34.4679 16.1613 34.7559 16.428C35.0546 16.6947 35.4119 16.828 35.8279 16.828C36.2439 16.828 36.6172 16.652 36.9479 16.3C37.2892 15.948 37.4919 15.4413 37.5559 14.78L37.6999 15.116C37.5932 15.8413 37.3372 16.4013 36.9319 16.796C36.5266 17.18 35.9826 17.372 35.2999 17.372C34.6492 17.372 34.0732 17.2173 33.5719 16.908C33.0812 16.588 32.7026 16.108 32.4359 15.468C32.1692 14.8173 32.0359 14.0013 32.0359 13.02C32.0359 12.0493 32.1959 11.244 32.5159 10.604C32.8466 9.95333 33.2839 9.468 33.8279 9.148C34.3719 8.828 34.9746 8.668 35.6359 8.668ZM43.0585 4.86C43.3892 4.86 43.6665 4.96667 43.8905 5.18C44.1145 5.38267 44.2265 5.63867 44.2265 5.948C44.2265 6.25733 44.1145 6.51867 43.8905 6.732C43.6665 6.93467 43.3892 7.036 43.0585 7.036C42.7278 7.036 42.4505 6.93467 42.2265 6.732C42.0025 6.51867 41.8905 6.25733 41.8905 5.948C41.8905 5.63867 42.0025 5.38267 42.2265 5.18C42.4505 4.96667 42.7278 4.86 43.0585 4.86ZM44.0185 8.716L44.0185 15.66C44.0185 16.108 44.1038 16.412 44.2745 16.572C44.4558 16.732 44.7545 16.812 45.1705 16.812L45.1705 17.148C44.9892 17.1373 44.7065 17.1267 44.3225 17.116C43.9492 17.0947 43.5652 17.084 43.1705 17.084C42.7972 17.084 42.4132 17.0947 42.0185 17.116C41.6238 17.1267 41.3305 17.1373 41.1385 17.148L41.1385 16.812C41.5545 16.812 41.8478 16.732 42.0185 16.572C42.1998 16.412 42.2905 16.108 42.2905 15.66L42.2905 10.636C42.2905 10.156 42.2105 9.804 42.0505 9.58C41.8905 9.34533 41.5865 9.228 41.1385 9.228L41.1385 8.892C41.4798 8.924 41.8105 8.94 42.1305 8.94C42.4932 8.94 42.8292 8.924 43.1385 8.892C43.4585 8.84933 43.7518 8.79067 44.0185 8.716ZM51.5034 8.668C51.9301 8.668 52.2767 8.72667 52.5434 8.844C52.8207 8.95067 53.0501 9.1 53.2314 9.292C53.4234 9.49467 53.5567 9.756 53.6314 10.076C53.7167 10.396 53.7594 10.828 53.7594 11.372L53.7594 15.66C53.7594 16.108 53.8447 16.412 54.0154 16.572C54.1967 16.732 54.4954 16.812 54.9114 16.812L54.9114 17.148C54.7301 17.1373 54.4474 17.1267 54.0634 17.116C53.6794 17.0947 53.3007 17.084 52.9274 17.084C52.5647 17.084 52.2021 17.0947 51.8394 17.116C51.4874 17.1267 51.2207 17.1373 51.0394 17.148L51.0394 16.812C51.4021 16.812 51.6581 16.732 51.8074 16.572C51.9567 16.412 52.0314 16.108 52.0314 15.66L52.0314 10.924C52.0314 10.6147 52.0047 10.3373 51.9514 10.092C51.8981 9.836 51.7861 9.63333 51.6154 9.484C51.4447 9.324 51.1887 9.244 50.8474 9.244C50.4527 9.244 50.1007 9.356 49.7914 9.58C49.4927 9.804 49.2527 10.1133 49.0714 10.508C48.9007 10.892 48.8154 11.324 48.8154 11.804L48.8154 15.66C48.8154 16.108 48.8901 16.412 49.0394 16.572C49.1994 16.732 49.4554 16.812 49.8074 16.812L49.8074 17.148C49.6367 17.1373 49.3754 17.1267 49.0234 17.116C48.6821 17.0947 48.3247 17.084 47.9514 17.084C47.5887 17.084 47.2101 17.0947 46.8154 17.116C46.4207 17.1267 46.1274 17.1373 45.9354 17.148L45.9354 16.812C46.3514 16.812 46.6447 16.732 46.8154 16.572C46.9967 16.412 47.0874 16.108 47.0874 15.66L47.0874 10.636C47.0874 10.156 47.0074 9.804 46.8474 9.58C46.6874 9.34533 46.3834 9.228 45.9354 9.228L45.9354 8.892C46.2767 8.924 46.6074 8.94 46.9274 8.94C47.2901 8.94 47.6261 8.924 47.9354 8.892C48.2554 8.84933 48.5487 8.79067 48.8154 8.716L48.8154 10.46C49.0927 9.79867 49.4714 9.33467 49.9514 9.068C50.4421 8.80133 50.9594 8.668 51.5034 8.668ZM58.4434 20.156C57.8461 20.156 57.2914 20.0973 56.7794 19.98C56.2781 19.8627 55.8727 19.6813 55.5634 19.436C55.2647 19.2013 55.1154 18.8973 55.1154 18.524C55.1154 18.172 55.2647 17.8627 55.5634 17.596C55.8621 17.3293 56.2834 17.1267 56.8274 16.988L56.9394 17.244C56.7154 17.34 56.5394 17.4947 56.4114 17.708C56.2941 17.9213 56.2354 18.156 56.2354 18.412C56.2354 18.8813 56.4541 19.244 56.8914 19.5C57.3287 19.756 57.9047 19.884 58.6194 19.884C59.0994 19.884 59.5527 19.82 59.9794 19.692C60.4167 19.5747 60.7687 19.3773 61.0354 19.1C61.3127 18.8227 61.4514 18.4653 61.4514 18.028C61.4514 17.6867 61.3287 17.3987 61.0834 17.164C60.8381 16.94 60.3527 16.828 59.6274 16.828L58.5074 16.828C58.1341 16.828 57.7874 16.796 57.4674 16.732C57.1474 16.668 56.8861 16.5453 56.6834 16.364C56.4914 16.172 56.3954 15.9053 56.3954 15.564C56.3954 15.18 56.5554 14.8173 56.8754 14.476C57.1954 14.1347 57.7341 13.7987 58.4914 13.468L58.6834 13.612C58.3741 13.7827 58.0967 13.9587 57.8514 14.14C57.6167 14.3107 57.4994 14.524 57.4994 14.78C57.4994 15.1213 57.7447 15.292 58.2354 15.292L60.1394 15.292C60.6407 15.292 61.0941 15.3613 61.4994 15.5C61.9047 15.628 62.2301 15.836 62.4754 16.124C62.7207 16.412 62.8434 16.7907 62.8434 17.26C62.8434 17.7613 62.6781 18.2307 62.3474 18.668C62.0274 19.116 61.5421 19.4733 60.8914 19.74C60.2407 20.0173 59.4247 20.156 58.4434 20.156ZM58.5394 13.74C57.9954 13.74 57.4994 13.6547 57.0514 13.484C56.6034 13.3027 56.2514 13.0253 55.9954 12.652C55.7394 12.2787 55.6114 11.7987 55.6114 11.212C55.6114 10.6253 55.7394 10.1453 55.9954 9.772C56.2514 9.388 56.6034 9.11067 57.0514 8.94C57.4994 8.75867 57.9954 8.668 58.5394 8.668C59.1047 8.668 59.6061 8.75867 60.0434 8.94C60.4807 9.11067 60.8274 9.388 61.0834 9.772C61.3394 10.1453 61.4674 10.6253 61.4674 11.212C61.4674 11.7987 61.3394 12.2787 61.0834 12.652C60.8274 13.0253 60.4807 13.3027 60.0434 13.484C59.6061 13.6547 59.1047 13.74 58.5394 13.74ZM58.5394 13.452C58.9127 13.452 59.2007 13.292 59.4034 12.972C59.6061 12.652 59.7074 12.0653 59.7074 11.212C59.7074 10.3587 59.6061 9.772 59.4034 9.452C59.2007 9.12133 58.9127 8.956 58.5394 8.956C58.1874 8.956 57.9047 9.12133 57.6914 9.452C57.4781 9.772 57.3714 10.3587 57.3714 11.212C57.3714 12.0653 57.4781 12.652 57.6914 12.972C57.9047 13.292 58.1874 13.452 58.5394 13.452ZM60.9074 10.012L60.6194 9.9C60.7687 9.52667 61.0247 9.20133 61.3874 8.924C61.7501 8.64667 62.1287 8.508 62.5234 8.508C62.8221 8.508 63.0567 8.59333 63.2274 8.764C63.4087 8.924 63.4994 9.15333 63.4994 9.452C63.4994 9.78267 63.4087 10.0173 63.2274 10.156C63.0567 10.2947 62.8754 10.364 62.6834 10.364C62.5127 10.364 62.3527 10.3053 62.2034 10.188C62.0647 10.0707 61.9847 9.88933 61.9634 9.644C61.9421 9.388 62.0221 9.06267 62.2034 8.668L62.3794 8.732C61.9527 8.90267 61.6381 9.084 61.4354 9.276C61.2434 9.45733 61.0674 9.70267 60.9074 10.012ZM72.6718 5.82C74.6451 5.82 76.1118 6.3 77.0718 7.26C78.0318 8.20933 78.5118 9.57467 78.5118 11.356C78.5118 12.5187 78.2771 13.5373 77.8078 14.412C77.3384 15.276 76.6558 15.948 75.7598 16.428C74.8744 16.908 73.7971 17.148 72.5278 17.148C72.3678 17.148 72.1491 17.1427 71.8718 17.132C71.6051 17.1213 71.3278 17.116 71.0398 17.116C70.7518 17.1053 70.4904 17.1 70.2558 17.1C69.8504 17.1 69.4504 17.1053 69.0558 17.116C68.6718 17.116 68.3571 17.1267 68.1118 17.148L68.1118 16.828C68.4744 16.8067 68.7464 16.764 68.9278 16.7C69.1091 16.636 69.2264 16.508 69.2798 16.316C69.3438 16.124 69.3758 15.836 69.3758 15.452L69.3758 7.516C69.3758 7.12133 69.3438 6.83333 69.2798 6.652C69.2264 6.46 69.1038 6.332 68.9118 6.268C68.7304 6.19333 68.4638 6.15067 68.1118 6.14L68.1118 5.82C68.3571 5.83067 68.6718 5.84667 69.0558 5.868C69.4504 5.87867 69.8398 5.87867 70.2238 5.868C70.6078 5.85733 71.0344 5.84667 71.5038 5.836C71.9838 5.82533 72.3731 5.82 72.6718 5.82ZM72.3998 6.108C71.9091 6.108 71.5891 6.19867 71.4398 6.38C71.2904 6.56133 71.2158 6.92933 71.2158 7.484L71.2158 15.484C71.2158 16.0387 71.2904 16.4067 71.4398 16.588C71.5998 16.7693 71.9251 16.86 72.4158 16.86C73.4931 16.86 74.3304 16.652 74.9278 16.236C75.5251 15.8093 75.9464 15.1907 76.1918 14.38C76.4371 13.5693 76.5598 12.5827 76.5598 11.42C76.5598 10.2253 76.4264 9.23867 76.1598 8.46C75.8931 7.67067 75.4558 7.084 74.8478 6.7C74.2504 6.30533 73.4344 6.108 72.3998 6.108ZM84.9311 8.668C85.2405 8.668 85.5018 8.732 85.7151 8.86C85.9391 8.988 86.1045 9.15333 86.2111 9.356C86.3285 9.548 86.3871 9.76667 86.3871 10.012C86.3871 10.3213 86.2911 10.588 86.0991 10.812C85.9178 11.0253 85.6725 11.132 85.3631 11.132C85.0965 11.132 84.8671 11.052 84.6751 10.892C84.4938 10.732 84.4031 10.5133 84.4031 10.236C84.4031 10.0013 84.4618 9.804 84.5791 9.644C84.7071 9.47333 84.8511 9.34 85.0111 9.244C84.9045 9.15867 84.7765 9.12133 84.6271 9.132C84.3391 9.14267 84.0725 9.23867 83.8271 9.42C83.5818 9.59067 83.3738 9.81467 83.2031 10.092C83.0325 10.3587 82.8991 10.6467 82.8031 10.956C82.7071 11.2653 82.6591 11.5533 82.6591 11.82L82.6591 15.5C82.6591 16.0227 82.8031 16.3747 83.0911 16.556C83.3791 16.7267 83.7791 16.812 84.2911 16.812L84.2911 17.148C84.0458 17.1373 83.6938 17.1267 83.2351 17.116C82.7871 17.0947 82.3125 17.084 81.8111 17.084C81.4271 17.084 81.0431 17.0947 80.6591 17.116C80.2751 17.1267 79.9818 17.1373 79.7791 17.148L79.7791 16.812C80.1951 16.812 80.4885 16.732 80.6591 16.572C80.8405 16.412 80.9311 16.108 80.9311 15.66L80.9311 10.636C80.9311 10.156 80.8511 9.804 80.6911 9.58C80.5311 9.34533 80.2271 9.228 79.7791 9.228L79.7791 8.892C80.1205 8.924 80.4511 8.94 80.7711 8.94C81.1338 8.94 81.4698 8.924 81.7791 8.892C82.0991 8.84933 82.3925 8.79067 82.6591 8.716L82.6591 10.556C82.7871 10.2467 82.9578 9.948 83.1711 9.66C83.3845 9.372 83.6405 9.13733 83.9391 8.956C84.2378 8.764 84.5685 8.668 84.9311 8.668ZM90.7003 8.668C91.6389 8.668 92.3749 8.95067 92.9083 9.516C93.4416 10.0813 93.7083 10.9773 93.7083 12.204L88.1883 12.204L88.1563 11.9L92.0123 11.9C92.0229 11.3773 91.9803 10.8973 91.8843 10.46C91.7883 10.012 91.6389 9.65467 91.4363 9.388C91.2336 9.12133 90.9669 8.988 90.6363 8.988C90.1776 8.988 89.7776 9.23333 89.4363 9.724C89.1056 10.204 88.9029 10.9773 88.8283 12.044L88.8763 12.124C88.8656 12.2733 88.8549 12.4387 88.8443 12.62C88.8336 12.7907 88.8283 12.9613 88.8283 13.132C88.8283 13.868 88.9403 14.4867 89.1643 14.988C89.3883 15.4893 89.6816 15.868 90.0443 16.124C90.4069 16.3693 90.7749 16.492 91.1483 16.492C91.4363 16.492 91.7136 16.4493 91.9803 16.364C92.2576 16.268 92.5189 16.1133 92.7643 15.9C93.0096 15.676 93.2283 15.372 93.4203 14.988L93.7403 15.116C93.6123 15.4787 93.4149 15.836 93.1483 16.188C92.8816 16.54 92.5403 16.828 92.1243 17.052C91.7083 17.2653 91.2229 17.372 90.6683 17.372C89.9216 17.372 89.2709 17.2067 88.7163 16.876C88.1616 16.5347 87.7349 16.0493 87.4363 15.42C87.1376 14.7907 86.9883 14.044 86.9883 13.18C86.9883 12.2307 87.1429 11.42 87.4523 10.748C87.7616 10.076 88.1936 9.564 88.7483 9.212C89.3136 8.84933 89.9643 8.668 90.7003 8.668ZM97.7864 8.668C98.2131 8.668 98.5811 8.73733 98.8904 8.876C99.2104 9.004 99.4397 9.12133 99.5784 9.228C99.9304 9.50533 100.149 9.324 100.234 8.684L100.586 8.684C100.565 8.98267 100.549 9.34533 100.538 9.772C100.528 10.188 100.522 10.7427 100.522 11.436L100.17 11.436C100.106 11.0413 99.9944 10.6573 99.8344 10.284C99.6851 9.91067 99.4611 9.60133 99.1624 9.356C98.8744 9.11067 98.4957 8.988 98.0264 8.988C97.6744 8.988 97.3811 9.08933 97.1464 9.292C96.9117 9.484 96.7944 9.772 96.7944 10.156C96.7944 10.476 96.8904 10.7533 97.0824 10.988C97.2744 11.2227 97.5197 11.4413 97.8184 11.644C98.1277 11.8467 98.4584 12.0653 98.8104 12.3C99.2051 12.5667 99.5571 12.8333 99.8664 13.1C100.186 13.356 100.437 13.644 100.618 13.964C100.81 14.284 100.906 14.6573 100.906 15.084C100.906 15.5747 100.773 15.9907 100.506 16.332C100.25 16.6733 99.9091 16.9347 99.4824 17.116C99.0557 17.2867 98.5864 17.372 98.0744 17.372C97.8184 17.372 97.5784 17.3453 97.3544 17.292C97.1304 17.2493 96.9224 17.1907 96.7304 17.116C96.6131 17.052 96.4957 16.988 96.3784 16.924C96.2717 16.8493 96.1651 16.78 96.0584 16.716C95.9517 16.6413 95.8557 16.652 95.7704 16.748C95.6851 16.844 95.6211 17.0147 95.5784 17.26L95.2264 17.26C95.2477 16.9187 95.2637 16.5027 95.2744 16.012C95.2851 15.5213 95.2904 14.8707 95.2904 14.06L95.6424 14.06C95.7171 14.6467 95.8291 15.164 95.9784 15.612C96.1277 16.06 96.3464 16.412 96.6344 16.668C96.9331 16.9133 97.3384 17.036 97.8504 17.036C98.0531 17.036 98.2557 16.9933 98.4584 16.908C98.6611 16.812 98.8264 16.6627 98.9544 16.46C99.0931 16.2573 99.1624 15.9853 99.1624 15.644C99.1624 15.1747 98.9971 14.7907 98.6664 14.492C98.3464 14.1827 97.9304 13.8573 97.4184 13.516C97.0557 13.26 96.7091 13.0093 96.3784 12.764C96.0584 12.508 95.7971 12.2253 95.5944 11.916C95.3917 11.596 95.2904 11.2173 95.2904 10.78C95.2904 10.3 95.4024 9.90533 95.6264 9.596C95.8611 9.28667 96.1704 9.05733 96.5544 8.908C96.9384 8.748 97.3491 8.668 97.7864 8.668ZM105.021 8.668C105.447 8.668 105.815 8.73733 106.125 8.876C106.445 9.004 106.674 9.12133 106.813 9.228C107.165 9.50533 107.383 9.324 107.469 8.684L107.821 8.684C107.799 8.98267 107.783 9.34533 107.773 9.772C107.762 10.188 107.757 10.7427 107.757 11.436L107.405 11.436C107.341 11.0413 107.229 10.6573 107.069 10.284C106.919 9.91067 106.695 9.60133 106.397 9.356C106.109 9.11067 105.73 8.988 105.261 8.988C104.909 8.988 104.615 9.08933 104.381 9.292C104.146 9.484 104.029 9.772 104.029 10.156C104.029 10.476 104.125 10.7533 104.317 10.988C104.509 11.2227 104.754 11.4413 105.053 11.644C105.362 11.8467 105.693 12.0653 106.045 12.3C106.439 12.5667 106.791 12.8333 107.101 13.1C107.421 13.356 107.671 13.644 107.853 13.964C108.045 14.284 108.141 14.6573 108.141 15.084C108.141 15.5747 108.007 15.9907 107.741 16.332C107.485 16.6733 107.143 16.9347 106.717 17.116C106.29 17.2867 105.821 17.372 105.309 17.372C105.053 17.372 104.813 17.3453 104.589 17.292C104.365 17.2493 104.157 17.1907 103.965 17.116C103.847 17.052 103.73 16.988 103.613 16.924C103.506 16.8493 103.399 16.78 103.293 16.716C103.186 16.6413 103.09 16.652 103.005 16.748C102.919 16.844 102.855 17.0147 102.813 17.26L102.461 17.26C102.482 16.9187 102.498 16.5027 102.509 16.012C102.519 15.5213 102.525 14.8707 102.525 14.06L102.877 14.06C102.951 14.6467 103.063 15.164 103.213 15.612C103.362 16.06 103.581 16.412 103.869 16.668C104.167 16.9133 104.573 17.036 105.085 17.036C105.287 17.036 105.49 16.9933 105.693 16.908C105.895 16.812 106.061 16.6627 106.189 16.46C106.327 16.2573 106.397 15.9853 106.397 15.644C106.397 15.1747 106.231 14.7907 105.901 14.492C105.581 14.1827 105.165 13.8573 104.653 13.516C104.29 13.26 103.943 13.0093 103.613 12.764C103.293 12.508 103.031 12.2253 102.829 11.916C102.626 11.596 102.525 11.2173 102.525 10.78C102.525 10.3 102.637 9.90533 102.861 9.596C103.095 9.28667 103.405 9.05733 103.789 8.908C104.173 8.748 104.583 8.668 105.021 8.668ZM114.056 5.468C114.258 5.468 114.429 5.54267 114.568 5.692C114.706 5.84133 114.776 6.04933 114.776 6.316C114.776 6.65733 114.744 6.97733 114.68 7.276C114.626 7.564 114.552 7.89467 114.456 8.268C114.37 8.63067 114.274 9.09467 114.168 9.66L113.944 9.66C113.848 9.116 113.752 8.66267 113.656 8.3C113.56 7.93733 113.48 7.60667 113.416 7.308C113.362 6.99867 113.336 6.67333 113.336 6.332C113.336 6.06533 113.405 5.85733 113.544 5.708C113.682 5.55867 113.853 5.47867 114.056 5.468ZM116.072 5.468C116.274 5.468 116.445 5.54267 116.584 5.692C116.722 5.84133 116.792 6.04933 116.792 6.316C116.792 6.65733 116.76 6.97733 116.696 7.276C116.642 7.564 116.568 7.89467 116.472 8.268C116.386 8.63067 116.29 9.09467 116.184 9.66L115.96 9.66C115.864 9.116 115.768 8.66267 115.672 8.3C115.576 7.93733 115.496 7.60667 115.432 7.308C115.378 6.99867 115.352 6.67333 115.352 6.332C115.352 6.06533 115.421 5.85733 115.56 5.708C115.698 5.55867 115.869 5.47867 116.072 5.468ZM126.444 5.82C126.401 6.22533 126.369 6.62 126.348 7.004C126.337 7.37733 126.332 7.66533 126.332 7.868C126.332 8.07067 126.337 8.26267 126.348 8.444C126.359 8.62533 126.369 8.77467 126.38 8.892L126.012 8.892C125.937 8.20933 125.82 7.67067 125.66 7.276C125.511 6.88133 125.281 6.604 124.972 6.444C124.673 6.27333 124.252 6.188 123.708 6.188L122.604 6.188C122.263 6.188 122.001 6.22 121.82 6.284C121.649 6.33733 121.532 6.45467 121.468 6.636C121.404 6.80667 121.372 7.07867 121.372 7.452L121.372 15.516C121.372 15.8787 121.404 16.1507 121.468 16.332C121.532 16.5133 121.649 16.636 121.82 16.7C122.001 16.7533 122.263 16.78 122.604 16.78L123.644 16.78C124.252 16.78 124.732 16.684 125.084 16.492C125.447 16.3 125.719 15.9853 125.9 15.548C126.092 15.1107 126.236 14.5133 126.332 13.756L126.7 13.756C126.668 14.0653 126.652 14.4707 126.652 14.972C126.652 15.1853 126.657 15.4947 126.668 15.9C126.689 16.3053 126.721 16.7213 126.764 17.148C126.22 17.1267 125.607 17.116 124.924 17.116C124.241 17.1053 123.633 17.1 123.1 17.1C122.855 17.1 122.54 17.1 122.156 17.1C121.772 17.1 121.356 17.1053 120.908 17.116C120.471 17.116 120.023 17.1213 119.564 17.132C119.116 17.132 118.684 17.1373 118.268 17.148L118.268 16.828C118.631 16.8067 118.903 16.764 119.084 16.7C119.265 16.636 119.383 16.508 119.436 16.316C119.5 16.124 119.532 15.836 119.532 15.452L119.532 7.516C119.532 7.12133 119.5 6.83333 119.436 6.652C119.383 6.46 119.26 6.332 119.068 6.268C118.887 6.19333 118.62 6.15067 118.268 6.14L118.268 5.82C118.684 5.83067 119.116 5.84133 119.564 5.852C120.023 5.852 120.471 5.85733 120.908 5.868C121.356 5.868 121.772 5.868 122.156 5.868C122.54 5.868 122.855 5.868 123.1 5.868C123.591 5.868 124.145 5.868 124.764 5.868C125.393 5.85733 125.953 5.84133 126.444 5.82ZM123.788 11.292C123.788 11.292 123.788 11.3453 123.788 11.452C123.788 11.5587 123.788 11.612 123.788 11.612L120.892 11.612C120.892 11.612 120.892 11.5587 120.892 11.452C120.892 11.3453 120.892 11.292 120.892 11.292L123.788 11.292ZM124.252 9.18C124.209 9.788 124.188 10.252 124.188 10.572C124.199 10.892 124.204 11.1853 124.204 11.452C124.204 11.7187 124.209 12.012 124.22 12.332C124.231 12.652 124.257 13.116 124.3 13.724L123.932 13.724C123.879 13.372 123.809 13.036 123.724 12.716C123.639 12.3853 123.484 12.1187 123.26 11.916C123.047 11.7133 122.711 11.612 122.252 11.612L122.252 11.292C122.593 11.292 122.86 11.2227 123.052 11.084C123.255 10.9453 123.409 10.764 123.516 10.54C123.623 10.316 123.697 10.0867 123.74 9.852C123.793 9.60667 123.841 9.38267 123.884 9.18L124.252 9.18ZM130.735 4.604L130.735 15.66C130.735 16.108 130.82 16.412 130.991 16.572C131.172 16.732 131.471 16.812 131.887 16.812L131.887 17.148C131.706 17.1373 131.423 17.1267 131.039 17.116C130.655 17.0947 130.271 17.084 129.887 17.084C129.503 17.084 129.114 17.0947 128.719 17.116C128.335 17.1267 128.047 17.1373 127.855 17.148L127.855 16.812C128.271 16.812 128.564 16.732 128.735 16.572C128.916 16.412 129.007 16.108 129.007 15.66L129.007 6.524C129.007 6.044 128.927 5.692 128.767 5.468C128.607 5.23333 128.303 5.116 127.855 5.116L127.855 4.78C128.196 4.812 128.527 4.828 128.847 4.828C129.199 4.828 129.535 4.812 129.855 4.78C130.175 4.73733 130.468 4.67867 130.735 4.604ZM135.469 4.604L135.469 15.66C135.469 16.108 135.555 16.412 135.725 16.572C135.907 16.732 136.205 16.812 136.621 16.812L136.621 17.148C136.44 17.1373 136.157 17.1267 135.773 17.116C135.389 17.0947 135.005 17.084 134.621 17.084C134.237 17.084 133.848 17.0947 133.453 17.116C133.069 17.1267 132.781 17.1373 132.589 17.148L132.589 16.812C133.005 16.812 133.299 16.732 133.469 16.572C133.651 16.412 133.741 16.108 133.741 15.66L133.741 6.524C133.741 6.044 133.661 5.692 133.501 5.468C133.341 5.23333 133.037 5.116 132.589 5.116L132.589 4.78C132.931 4.812 133.261 4.828 133.581 4.828C133.933 4.828 134.269 4.812 134.589 4.78C134.909 4.73733 135.203 4.67867 135.469 4.604ZM139.645 17.26C139.197 17.26 138.813 17.1747 138.493 17.004C138.173 16.8333 137.933 16.5987 137.773 16.3C137.613 16.0013 137.533 15.66 137.533 15.276C137.533 14.8067 137.639 14.428 137.853 14.14C138.066 13.8413 138.338 13.6013 138.669 13.42C139.01 13.2387 139.367 13.0893 139.741 12.972C140.125 12.844 140.482 12.7267 140.813 12.62C141.154 12.5027 141.431 12.3693 141.645 12.22C141.869 12.0707 141.981 11.8733 141.981 11.628L141.981 10.54C141.981 10.156 141.917 9.852 141.789 9.628C141.671 9.39333 141.506 9.228 141.293 9.132C141.09 9.036 140.845 8.988 140.557 8.988C140.311 8.988 140.05 9.02533 139.773 9.1C139.495 9.164 139.277 9.29733 139.117 9.5C139.351 9.564 139.543 9.692 139.693 9.884C139.853 10.0653 139.933 10.2947 139.933 10.572C139.933 10.8707 139.831 11.1053 139.629 11.276C139.437 11.4467 139.191 11.532 138.893 11.532C138.562 11.532 138.317 11.4307 138.157 11.228C137.997 11.0147 137.917 10.7693 137.917 10.492C137.917 10.204 137.986 9.96933 138.125 9.788C138.274 9.60667 138.466 9.436 138.701 9.276C138.957 9.10533 139.282 8.96133 139.677 8.844C140.082 8.72667 140.53 8.668 141.021 8.668C141.479 8.668 141.874 8.72133 142.205 8.828C142.546 8.924 142.829 9.084 143.053 9.308C143.319 9.55333 143.495 9.86267 143.581 10.236C143.666 10.5987 143.709 11.0413 143.709 11.564L143.709 15.98C143.709 16.2467 143.741 16.4387 143.805 16.556C143.879 16.6627 143.997 16.716 144.157 16.716C144.263 16.716 144.365 16.6893 144.461 16.636C144.567 16.5827 144.69 16.5027 144.829 16.396L144.989 16.668C144.765 16.8493 144.535 16.9933 144.301 17.1C144.077 17.2067 143.789 17.26 143.437 17.26C143.095 17.26 142.818 17.2067 142.605 17.1C142.391 16.9933 142.231 16.8387 142.125 16.636C142.029 16.4333 141.981 16.1827 141.981 15.884C141.703 16.332 141.373 16.6733 140.989 16.908C140.605 17.1427 140.157 17.26 139.645 17.26ZM140.413 16.492C140.711 16.492 140.989 16.4067 141.245 16.236C141.511 16.0653 141.757 15.8093 141.981 15.468L141.981 12.284C141.863 12.4547 141.693 12.604 141.469 12.732C141.245 12.8493 141.005 12.972 140.749 13.1C140.493 13.228 140.247 13.3773 140.013 13.548C139.789 13.708 139.602 13.916 139.453 14.172C139.303 14.428 139.229 14.7533 139.229 15.148C139.229 15.564 139.335 15.8947 139.549 16.14C139.762 16.3747 140.05 16.492 140.413 16.492ZM146.212 5.468C146.415 5.468 146.585 5.54267 146.724 5.692C146.863 5.84133 146.932 6.04933 146.932 6.316C146.932 6.65733 146.9 6.97733 146.836 7.276C146.783 7.564 146.708 7.89467 146.612 8.268C146.527 8.63067 146.431 9.09467 146.324 9.66L146.1 9.66C146.004 9.116 145.908 8.66267 145.812 8.3C145.716 7.93733 145.636 7.60667 145.572 7.308C145.519 6.99867 145.492 6.67333 145.492 6.332C145.492 6.06533 145.561 5.85733 145.7 5.708C145.839 5.55867 146.009 5.47867 146.212 5.468ZM148.228 5.468C148.431 5.468 148.601 5.54267 148.74 5.692C148.879 5.84133 148.948 6.04933 148.948 6.316C148.948 6.65733 148.916 6.97733 148.852 7.276C148.799 7.564 148.724 7.89467 148.628 8.268C148.543 8.63067 148.447 9.09467 148.34 9.66L148.116 9.66C148.02 9.116 147.924 8.66267 147.828 8.3C147.732 7.93733 147.652 7.60667 147.588 7.308C147.535 6.99867 147.508 6.67333 147.508 6.332C147.508 6.06533 147.577 5.85733 147.716 5.708C147.855 5.55867 148.025 5.47867 148.228 5.468Z" fill="rgb(0,0,0)" fill-rule="nonzero" />
		<path id="1800 $ USD" d="M4.09601 44.516L2.84801 44.516L2.84801 35.428L0.432012 36.916L0.432012 35.556L2.91201 34.052L4.09601 34.052L4.09601 44.516ZM13.0759 41.796C13.0759 42.66 12.7399 43.3533 12.0679 43.876C11.3959 44.388 10.5532 44.644 9.53989 44.644C8.56922 44.644 7.75855 44.3933 7.10789 43.892C6.45722 43.3907 6.13189 42.7187 6.13189 41.876C6.13189 41.2467 6.29722 40.7133 6.62789 40.276C6.96922 39.828 7.43322 39.5027 8.01989 39.3C6.87855 38.8627 6.30789 38.0573 6.30789 36.884C6.30789 35.956 6.62789 35.236 7.26789 34.724C7.90789 34.2013 8.66522 33.94 9.53989 33.94C10.4466 33.94 11.2199 34.196 11.8599 34.708C12.4999 35.2093 12.8199 35.94 12.8199 36.9C12.8199 37.444 12.6706 37.924 12.3719 38.34C12.0732 38.7453 11.6626 39.0547 11.1399 39.268C12.4306 39.6627 13.0759 40.5053 13.0759 41.796ZM7.41189 41.812C7.41189 42.3027 7.59855 42.7133 7.97189 43.044C8.34522 43.364 8.87322 43.524 9.55589 43.524C10.2706 43.524 10.8199 43.348 11.2039 42.996C11.5879 42.644 11.7799 42.2067 11.7799 41.684C11.7799 41.172 11.5932 40.74 11.2199 40.388C10.8466 40.036 10.2919 39.8653 9.55589 39.876C8.84122 39.8867 8.30255 40.0787 7.93989 40.452C7.58789 40.8147 7.41189 41.268 7.41189 41.812ZM7.58789 36.868C7.58789 37.476 7.77455 37.9347 8.14789 38.244C8.53189 38.5533 9.01722 38.708 9.60389 38.708C10.1692 38.708 10.6332 38.548 10.9959 38.228C11.3586 37.8973 11.5399 37.4387 11.5399 36.852C11.5399 36.34 11.3692 35.9133 11.0279 35.572C10.6866 35.2307 10.1906 35.06 9.53989 35.06C8.94255 35.06 8.46789 35.236 8.11589 35.588C7.76389 35.94 7.58789 36.3667 7.58789 36.868ZM21.91 39.252C21.91 40.884 21.59 42.1907 20.95 43.172C20.31 44.1533 19.398 44.644 18.214 44.644C17.1153 44.644 16.2353 44.1533 15.574 43.172C14.9127 42.1907 14.582 40.884 14.582 39.252C14.582 37.6093 14.9127 36.3133 15.574 35.364C16.246 34.404 17.126 33.924 18.214 33.924C19.3447 33.924 20.2407 34.404 20.902 35.364C21.574 36.3133 21.91 37.6093 21.91 39.252ZM16.566 36.212C16.1073 36.9267 15.878 37.94 15.878 39.252C15.878 40.564 16.102 41.5933 16.55 42.34C16.998 43.076 17.5527 43.444 18.214 43.444C18.95 43.444 19.5313 43.0813 19.958 42.356C20.3953 41.6307 20.614 40.596 20.614 39.252C20.614 37.9187 20.3847 36.9 19.926 36.196C19.478 35.4813 18.9073 35.124 18.214 35.124C17.574 35.124 17.0247 35.4867 16.566 36.212ZM30.6131 39.252C30.6131 40.884 30.2931 42.1907 29.6531 43.172C29.0131 44.1533 28.1011 44.644 26.9171 44.644C25.8185 44.644 24.9385 44.1533 24.2771 43.172C23.6158 42.1907 23.2851 40.884 23.2851 39.252C23.2851 37.6093 23.6158 36.3133 24.2771 35.364C24.9491 34.404 25.8291 33.924 26.9171 33.924C28.0478 33.924 28.9438 34.404 29.6051 35.364C30.2771 36.3133 30.6131 37.6093 30.6131 39.252ZM25.2691 36.212C24.8105 36.9267 24.5811 37.94 24.5811 39.252C24.5811 40.564 24.8051 41.5933 25.2531 42.34C25.7011 43.076 26.2558 43.444 26.9171 43.444C27.6531 43.444 28.2345 43.0813 28.6611 42.356C29.0985 41.6307 29.3171 40.596 29.3171 39.252C29.3171 37.9187 29.0878 36.9 28.6291 36.196C28.1811 35.4813 27.6105 35.124 26.9171 35.124C26.2771 35.124 25.7278 35.4867 25.2691 36.212ZM39.4305 46.26L38.3265 46.26L38.3265 44.596C37.4518 44.5107 36.7105 44.292 36.1025 43.94L36.1025 42.548C36.8812 43.1347 37.8305 43.428 38.9505 43.428C39.6225 43.428 40.1505 43.2787 40.5345 42.98C40.9292 42.6707 41.1265 42.2387 41.1265 41.684C41.1265 41.428 41.0732 41.204 40.9665 41.012C40.8705 40.8093 40.6838 40.6173 40.4065 40.436C40.1398 40.2547 39.9265 40.1267 39.7665 40.052C39.6172 39.9667 39.3238 39.8333 38.8865 39.652C38.7585 39.5987 38.6625 39.556 38.5985 39.524C38.2145 39.3533 37.8945 39.1987 37.6385 39.06C37.3932 38.9107 37.1318 38.7187 36.8545 38.484C36.5878 38.2493 36.3852 37.972 36.2465 37.652C36.1185 37.332 36.0545 36.9693 36.0545 36.564C36.0545 35.7107 36.3425 35.028 36.9185 34.516C37.5052 34.004 38.2465 33.716 39.1425 33.652L39.1425 31.988L40.2465 31.988L40.2465 33.684C40.8758 33.7587 41.4198 33.908 41.8785 34.132L41.8785 35.492C41.2278 35.0653 40.4545 34.852 39.5585 34.852C38.9078 34.852 38.3905 35.0067 38.0065 35.316C37.6225 35.6147 37.4305 36.0093 37.4305 36.5C37.4305 36.7667 37.4785 37.0013 37.5745 37.204C37.6812 37.396 37.8678 37.5827 38.1345 37.764C38.4118 37.9453 38.6252 38.0787 38.7745 38.164C38.9345 38.2387 39.2225 38.3667 39.6385 38.548C39.7132 38.58 39.7718 38.6067 39.8145 38.628C40.2198 38.8093 40.5505 38.9747 40.8065 39.124C41.0625 39.2627 41.3345 39.4493 41.6225 39.684C41.9105 39.9187 42.1238 40.2013 42.2625 40.532C42.4012 40.8627 42.4705 41.236 42.4705 41.652C42.4705 42.5267 42.1878 43.22 41.6225 43.732C41.0678 44.244 40.3372 44.5373 39.4305 44.612L39.4305 46.26ZM56.2949 40.42C56.2949 41.8067 55.9429 42.8573 55.2389 43.572C54.5456 44.2867 53.5749 44.644 52.3269 44.644C51.1002 44.644 50.1402 44.2973 49.4469 43.604C48.7536 42.9 48.4069 41.8813 48.4069 40.548L48.4069 33.732L49.7029 33.732L49.7029 40.532C49.7029 41.524 49.9376 42.2547 50.4069 42.724C50.8869 43.1933 51.5269 43.428 52.3269 43.428C54.1082 43.428 54.9989 42.436 54.9989 40.452L54.9989 33.732L56.2949 33.732L56.2949 40.42ZM64.9754 41.652C64.9754 42.6013 64.6501 43.3373 63.9994 43.86C63.3487 44.372 62.5114 44.628 61.4874 44.628C60.3567 44.628 59.3967 44.3987 58.6074 43.94L58.6074 42.548C59.3861 43.1347 60.3354 43.428 61.4554 43.428C62.1274 43.428 62.6554 43.2787 63.0394 42.98C63.4234 42.6813 63.6154 42.2493 63.6154 41.684C63.6154 41.4493 63.5674 41.2413 63.4714 41.06C63.3861 40.868 63.2367 40.6973 63.0234 40.548C62.8207 40.388 62.6234 40.26 62.4314 40.164C62.2501 40.0573 61.9994 39.9293 61.6794 39.78C61.6154 39.748 61.5194 39.7053 61.3914 39.652C60.9327 39.4493 60.5807 39.284 60.3354 39.156C60.1007 39.028 59.8181 38.8413 59.4874 38.596C59.1674 38.34 58.9327 38.0467 58.7834 37.716C58.6341 37.3853 58.5594 37.0013 58.5594 36.564C58.5594 35.6467 58.8847 34.932 59.5354 34.42C60.1967 33.8973 61.0234 33.636 62.0154 33.636C62.9434 33.636 63.7327 33.8013 64.3834 34.132L64.3834 35.492C63.7327 35.0653 62.9541 34.852 62.0474 34.852C61.3967 34.852 60.8794 35.0067 60.4954 35.316C60.1114 35.6147 59.9194 36.0093 59.9194 36.5C59.9194 36.756 59.9674 36.9853 60.0634 37.188C60.1701 37.3907 60.3514 37.5827 60.6074 37.764C60.8634 37.9347 61.0821 38.068 61.2634 38.164C61.4447 38.2493 61.7274 38.3773 62.1114 38.548C62.4741 38.708 62.7514 38.836 62.9434 38.932C63.1354 39.0173 63.3807 39.1613 63.6794 39.364C63.9887 39.556 64.2181 39.748 64.3674 39.94C64.5274 40.1213 64.6661 40.3667 64.7834 40.676C64.9114 40.9747 64.9754 41.3 64.9754 41.652ZM70.39 44.516L67.126 44.516L67.126 33.732L70.326 33.732C71.9153 33.732 73.2167 34.228 74.23 35.22C75.254 36.2013 75.766 37.476 75.766 39.044C75.766 40.6013 75.2913 41.9027 74.342 42.948C73.4033 43.9933 72.086 44.516 70.39 44.516ZM70.31 34.884L68.438 34.884L68.438 43.38L70.374 43.38C71.7073 43.38 72.7153 42.9693 73.398 42.148C74.0807 41.316 74.422 40.2813 74.422 39.044C74.422 37.8707 74.038 36.884 73.27 36.084C72.5127 35.284 71.526 34.884 70.31 34.884Z" fill="rgb(117.938,116.955,116.955)" fill-rule="nonzero" />
	</g>
</svg>
