<svg viewBox="0 0 155.144 49" xmlns="http://www.w3.org/2000/svg" xmlns:xlink="http://www.w3.org/1999/xlink" width="155.143982" height="49.000000" fill="none" customFrame="#000000">
	<g id="text">
		<path id="Wedding Dress &quot;Gala&quot;" d="M15.008 5.82L15.008 6.14C14.7946 6.19333 14.5653 6.33733 14.32 6.572C14.0746 6.796 13.8666 7.17467 13.696 7.708L10.752 17.212C10.7093 17.212 10.6613 17.212 10.608 17.212C10.5653 17.212 10.5226 17.212 10.48 17.212C10.4266 17.212 10.3786 17.212 10.336 17.212C10.2933 17.212 10.2506 17.212 10.208 17.212L6.81598 7.116C6.68798 6.72133 6.53865 6.46533 6.36798 6.348C6.20798 6.22 6.05332 6.15067 5.90398 6.14L5.90398 5.82C6.12798 5.83067 6.40532 5.84133 6.73598 5.852C7.06665 5.86267 7.38665 5.868 7.69598 5.868C8.13332 5.868 8.53865 5.86267 8.91198 5.852C9.29598 5.84133 9.59998 5.83067 9.82398 5.82L9.82398 6.14C9.50398 6.15067 9.24798 6.188 9.05598 6.252C8.87465 6.30533 8.76798 6.42267 8.73598 6.604C8.71465 6.78533 8.76798 7.07867 8.89598 7.484L11.248 14.716L10.976 15.068L12.992 8.716C13.2053 8.05467 13.3013 7.54267 13.28 7.18C13.2693 6.80667 13.1466 6.54533 12.912 6.396C12.688 6.236 12.3573 6.15067 11.92 6.14L11.92 5.82C12.24 5.83067 12.56 5.84133 12.88 5.852C13.2 5.86267 13.5093 5.868 13.808 5.868C14.0746 5.868 14.2986 5.86267 14.48 5.852C14.672 5.84133 14.848 5.83067 15.008 5.82ZM3.74398 5.82L3.74398 6.14C3.48798 6.16133 3.30665 6.22533 3.19998 6.332C3.09332 6.428 3.03998 6.572 3.03998 6.764C3.05065 6.94533 3.10398 7.18533 3.19998 7.484L5.67998 14.892L5.26398 15.356L7.43998 8.588L7.67998 8.988L5.07198 17.212C5.02932 17.212 4.98665 17.212 4.94398 17.212C4.90132 17.212 4.85332 17.212 4.79998 17.212C4.75732 17.212 4.70932 17.212 4.65598 17.212C4.61332 17.212 4.57065 17.212 4.52798 17.212L1.07198 7.164C0.933315 6.75867 0.762649 6.492 0.559982 6.364C0.357315 6.22533 0.170649 6.15067 -1.80751e-05 6.14L-1.80751e-05 5.82C0.255982 5.83067 0.559982 5.84133 0.911982 5.852C1.26398 5.86267 1.60532 5.868 1.93598 5.868C2.31998 5.868 2.66665 5.86267 2.97598 5.852C3.29598 5.84133 3.55198 5.83067 3.74398 5.82ZM18.2471 8.668C19.1858 8.668 19.9218 8.95067 20.4551 9.516C20.9884 10.0813 21.2551 10.9773 21.2551 12.204L15.7351 12.204L15.7031 11.9L19.5591 11.9C19.5698 11.3773 19.5271 10.8973 19.4311 10.46C19.3351 10.012 19.1858 9.65467 18.9831 9.388C18.7804 9.12133 18.5138 8.988 18.1831 8.988C17.7244 8.988 17.3244 9.23333 16.9831 9.724C16.6524 10.204 16.4498 10.9773 16.3751 12.044L16.4231 12.124C16.4124 12.2733 16.4018 12.4387 16.3911 12.62C16.3804 12.7907 16.3751 12.9613 16.3751 13.132C16.3751 13.868 16.4871 14.4867 16.7111 14.988C16.9351 15.4893 17.2284 15.868 17.5911 16.124C17.9538 16.3693 18.3218 16.492 18.6951 16.492C18.9831 16.492 19.2604 16.4493 19.5271 16.364C19.8044 16.268 20.0658 16.1133 20.3111 15.9C20.5564 15.676 20.7751 15.372 20.9671 14.988L21.2871 15.116C21.1591 15.4787 20.9618 15.836 20.6951 16.188C20.4284 16.54 20.0871 16.828 19.6711 17.052C19.2551 17.2653 18.7698 17.372 18.2151 17.372C17.4684 17.372 16.8178 17.2067 16.2631 16.876C15.7084 16.5347 15.2818 16.0493 14.9831 15.42C14.6844 14.7907 14.5351 14.044 14.5351 13.18C14.5351 12.2307 14.6898 11.42 14.9991 10.748C15.3084 10.076 15.7404 9.564 16.2951 9.212C16.8604 8.84933 17.5111 8.668 18.2471 8.668ZM29.8452 4.604L29.8452 15.404C29.8452 15.884 29.9252 16.2413 30.0852 16.476C30.2559 16.7 30.5599 16.812 30.9972 16.812L30.9972 17.148C30.6666 17.116 30.3359 17.1 30.0052 17.1C29.6426 17.1 29.3012 17.116 28.9812 17.148C28.6719 17.18 28.3839 17.2387 28.1172 17.324L28.1172 6.524C28.1172 6.044 28.0319 5.692 27.8612 5.468C27.7012 5.23333 27.4026 5.116 26.9652 5.116L26.9652 4.78C27.3066 4.812 27.6372 4.828 27.9572 4.828C28.3092 4.828 28.6452 4.812 28.9652 4.78C29.2852 4.73733 29.5786 4.67867 29.8452 4.604ZM26.2452 8.668C26.7146 8.668 27.1412 8.76933 27.5252 8.972C27.9199 9.17467 28.1972 9.516 28.3572 9.996L28.1652 10.172C28.0159 9.788 27.7972 9.51067 27.5092 9.34C27.2212 9.15867 26.8959 9.068 26.5332 9.068C25.9252 9.068 25.4292 9.39333 25.0452 10.044C24.6612 10.684 24.4746 11.676 24.4852 13.02C24.4852 13.9053 24.5599 14.6307 24.7092 15.196C24.8586 15.7507 25.0772 16.1613 25.3652 16.428C25.6639 16.6947 26.0212 16.828 26.4372 16.828C26.8532 16.828 27.2266 16.652 27.5572 16.3C27.8986 15.948 28.1012 15.4413 28.1652 14.78L28.3092 15.116C28.2026 15.8413 27.9466 16.4013 27.5412 16.796C27.1359 17.18 26.5919 17.372 25.9092 17.372C25.2586 17.372 24.6826 17.2173 24.1812 16.908C23.6906 16.588 23.3119 16.108 23.0452 15.468C22.7786 14.8173 22.6452 14.0013 22.6452 13.02C22.6452 12.0493 22.8052 11.244 23.1252 10.604C23.4559 9.95333 23.8932 9.468 24.4372 9.148C24.9812 8.828 25.5839 8.668 26.2452 8.668ZM39.2359 4.604L39.2359 15.404C39.2359 15.884 39.3159 16.2413 39.4759 16.476C39.6465 16.7 39.9505 16.812 40.3879 16.812L40.3879 17.148C40.0572 17.116 39.7265 17.1 39.3959 17.1C39.0332 17.1 38.6919 17.116 38.3719 17.148C38.0625 17.18 37.7745 17.2387 37.5079 17.324L37.5079 6.524C37.5079 6.044 37.4225 5.692 37.2519 5.468C37.0919 5.23333 36.7932 5.116 36.3559 5.116L36.3559 4.78C36.6972 4.812 37.0279 4.828 37.3479 4.828C37.6999 4.828 38.0359 4.812 38.3559 4.78C38.6759 4.73733 38.9692 4.67867 39.2359 4.604ZM35.6359 8.668C36.1052 8.668 36.5319 8.76933 36.9159 8.972C37.3105 9.17467 37.5879 9.516 37.7479 9.996L37.5559 10.172C37.4065 9.788 37.1879 9.51067 36.8999 9.34C36.6119 9.15867 36.2865 9.068 35.9239 9.068C35.3159 9.068 34.8199 9.39333 34.4359 10.044C34.0519 10.684 33.8652 11.676 33.8759 13.02C33.8759 13.9053 33.9505 14.6307 34.0999 15.196C34.2492 15.7507 34.4679 16.1613 34.7559 16.428C35.0545 16.6947 35.4119 16.828 35.8279 16.828C36.2439 16.828 36.6172 16.652 36.9479 16.3C37.2892 15.948 37.4919 15.4413 37.5559 14.78L37.6999 15.116C37.5932 15.8413 37.3372 16.4013 36.9319 16.796C36.5265 17.18 35.9825 17.372 35.2999 17.372C34.6492 17.372 34.0732 17.2173 33.5719 16.908C33.0812 16.588 32.7025 16.108 32.4359 15.468C32.1692 14.8173 32.0359 14.0013 32.0359 13.02C32.0359 12.0493 32.1959 11.244 32.5159 10.604C32.8465 9.95333 33.2839 9.468 33.8279 9.148C34.3719 8.828 34.9745 8.668 35.6359 8.668ZM43.0585 4.86C43.3891 4.86 43.6665 4.96667 43.8905 5.18C44.1145 5.38267 44.2265 5.63867 44.2265 5.948C44.2265 6.25733 44.1145 6.51867 43.8905 6.732C43.6665 6.93467 43.3891 7.036 43.0585 7.036C42.7278 7.036 42.4505 6.93467 42.2265 6.732C42.0025 6.51867 41.8905 6.25733 41.8905 5.948C41.8905 5.63867 42.0025 5.38267 42.2265 5.18C42.4505 4.96667 42.7278 4.86 43.0585 4.86ZM44.0185 8.716L44.0185 15.66C44.0185 16.108 44.1038 16.412 44.2745 16.572C44.4558 16.732 44.7545 16.812 45.1705 16.812L45.1705 17.148C44.9892 17.1373 44.7065 17.1267 44.3225 17.116C43.9492 17.0947 43.5651 17.084 43.1705 17.084C42.7971 17.084 42.4131 17.0947 42.0185 17.116C41.6238 17.1267 41.3305 17.1373 41.1385 17.148L41.1385 16.812C41.5545 16.812 41.8478 16.732 42.0185 16.572C42.1998 16.412 42.2905 16.108 42.2905 15.66L42.2905 10.636C42.2905 10.156 42.2105 9.804 42.0505 9.58C41.8905 9.34533 41.5865 9.228 41.1385 9.228L41.1385 8.892C41.4798 8.924 41.8105 8.94 42.1305 8.94C42.4931 8.94 42.8291 8.924 43.1385 8.892C43.4585 8.84933 43.7518 8.79067 44.0185 8.716ZM51.5034 8.668C51.93 8.668 52.2767 8.72667 52.5434 8.844C52.8207 8.95067 53.05 9.1 53.2314 9.292C53.4234 9.49467 53.5567 9.756 53.6314 10.076C53.7167 10.396 53.7594 10.828 53.7594 11.372L53.7594 15.66C53.7594 16.108 53.8447 16.412 54.0154 16.572C54.1967 16.732 54.4954 16.812 54.9114 16.812L54.9114 17.148C54.73 17.1373 54.4474 17.1267 54.0634 17.116C53.6794 17.0947 53.3007 17.084 52.9274 17.084C52.5647 17.084 52.202 17.0947 51.8394 17.116C51.4874 17.1267 51.2207 17.1373 51.0394 17.148L51.0394 16.812C51.402 16.812 51.658 16.732 51.8074 16.572C51.9567 16.412 52.0314 16.108 52.0314 15.66L52.0314 10.924C52.0314 10.6147 52.0047 10.3373 51.9514 10.092C51.898 9.836 51.786 9.63333 51.6154 9.484C51.4447 9.324 51.1887 9.244 50.8474 9.244C50.4527 9.244 50.1007 9.356 49.7914 9.58C49.4927 9.804 49.2527 10.1133 49.0714 10.508C48.9007 10.892 48.8154 11.324 48.8154 11.804L48.8154 15.66C48.8154 16.108 48.89 16.412 49.0394 16.572C49.1994 16.732 49.4554 16.812 49.8074 16.812L49.8074 17.148C49.6367 17.1373 49.3754 17.1267 49.0234 17.116C48.682 17.0947 48.3247 17.084 47.9514 17.084C47.5887 17.084 47.21 17.0947 46.8154 17.116C46.4207 17.1267 46.1274 17.1373 45.9354 17.148L45.9354 16.812C46.3514 16.812 46.6447 16.732 46.8154 16.572C46.9967 16.412 47.0874 16.108 47.0874 15.66L47.0874 10.636C47.0874 10.156 47.0074 9.804 46.8474 9.58C46.6874 9.34533 46.3834 9.228 45.9354 9.228L45.9354 8.892C46.2767 8.924 46.6074 8.94 46.9274 8.94C47.29 8.94 47.626 8.924 47.9354 8.892C48.2554 8.84933 48.5487 8.79067 48.8154 8.716L48.8154 10.46C49.0927 9.79867 49.4714 9.33467 49.9514 9.068C50.442 8.80133 50.9594 8.668 51.5034 8.668ZM58.4434 20.156C57.846 20.156 57.2914 20.0973 56.7794 19.98C56.278 19.8627 55.8727 19.6813 55.5634 19.436C55.2647 19.2013 55.1154 18.8973 55.1154 18.524C55.1154 18.172 55.2647 17.8627 55.5634 17.596C55.862 17.3293 56.2834 17.1267 56.8274 16.988L56.9394 17.244C56.7154 17.34 56.5394 17.4947 56.4114 17.708C56.294 17.9213 56.2354 18.156 56.2354 18.412C56.2354 18.8813 56.454 19.244 56.8914 19.5C57.3287 19.756 57.9047 19.884 58.6194 19.884C59.0994 19.884 59.5527 19.82 59.9794 19.692C60.4167 19.5747 60.7687 19.3773 61.0354 19.1C61.3127 18.8227 61.4514 18.4653 61.4514 18.028C61.4514 17.6867 61.3287 17.3987 61.0834 17.164C60.838 16.94 60.3527 16.828 59.6274 16.828L58.5074 16.828C58.134 16.828 57.7874 16.796 57.4674 16.732C57.1474 16.668 56.886 16.5453 56.6834 16.364C56.4914 16.172 56.3954 15.9053 56.3954 15.564C56.3954 15.18 56.5554 14.8173 56.8754 14.476C57.1954 14.1347 57.734 13.7987 58.4914 13.468L58.6834 13.612C58.374 13.7827 58.0967 13.9587 57.8514 14.14C57.6167 14.3107 57.4994 14.524 57.4994 14.78C57.4994 15.1213 57.7447 15.292 58.2354 15.292L60.1394 15.292C60.6407 15.292 61.094 15.3613 61.4994 15.5C61.9047 15.628 62.23 15.836 62.4754 16.124C62.7207 16.412 62.8434 16.7907 62.8434 17.26C62.8434 17.7613 62.678 18.2307 62.3474 18.668C62.0274 19.116 61.542 19.4733 60.8914 19.74C60.2407 20.0173 59.4247 20.156 58.4434 20.156ZM58.5394 13.74C57.9954 13.74 57.4994 13.6547 57.0514 13.484C56.6034 13.3027 56.2514 13.0253 55.9954 12.652C55.7394 12.2787 55.6114 11.7987 55.6114 11.212C55.6114 10.6253 55.7394 10.1453 55.9954 9.772C56.2514 9.388 56.6034 9.11067 57.0514 8.94C57.4994 8.75867 57.9954 8.668 58.5394 8.668C59.1047 8.668 59.606 8.75867 60.0434 8.94C60.4807 9.11067 60.8274 9.388 61.0834 9.772C61.3394 10.1453 61.4674 10.6253 61.4674 11.212C61.4674 11.7987 61.3394 12.2787 61.0834 12.652C60.8274 13.0253 60.4807 13.3027 60.0434 13.484C59.606 13.6547 59.1047 13.74 58.5394 13.74ZM58.5394 13.452C58.9127 13.452 59.2007 13.292 59.4034 12.972C59.606 12.652 59.7074 12.0653 59.7074 11.212C59.7074 10.3587 59.606 9.772 59.4034 9.452C59.2007 9.12133 58.9127 8.956 58.5394 8.956C58.1874 8.956 57.9047 9.12133 57.6914 9.452C57.478 9.772 57.3714 10.3587 57.3714 11.212C57.3714 12.0653 57.478 12.652 57.6914 12.972C57.9047 13.292 58.1874 13.452 58.5394 13.452ZM60.9074 10.012L60.6194 9.9C60.7687 9.52667 61.0247 9.20133 61.3874 8.924C61.75 8.64667 62.1287 8.508 62.5234 8.508C62.822 8.508 63.0567 8.59333 63.2274 8.764C63.4087 8.924 63.4994 9.15333 63.4994 9.452C63.4994 9.78267 63.4087 10.0173 63.2274 10.156C63.0567 10.2947 62.8754 10.364 62.6834 10.364C62.5127 10.364 62.3527 10.3053 62.2034 10.188C62.0647 10.0707 61.9847 9.88933 61.9634 9.644C61.942 9.388 62.022 9.06267 62.2034 8.668L62.3794 8.732C61.9527 8.90267 61.638 9.084 61.4354 9.276C61.2434 9.45733 61.0674 9.70267 60.9074 10.012ZM72.6717 5.82C74.6451 5.82 76.1117 6.3 77.0717 7.26C78.0317 8.20933 78.5117 9.57467 78.5117 11.356C78.5117 12.5187 78.2771 13.5373 77.8077 14.412C77.3384 15.276 76.6557 15.948 75.7597 16.428C74.8744 16.908 73.7971 17.148 72.5277 17.148C72.3677 17.148 72.1491 17.1427 71.8717 17.132C71.6051 17.1213 71.3277 17.116 71.0397 17.116C70.7517 17.1053 70.4904 17.1 70.2557 17.1C69.8504 17.1 69.4504 17.1053 69.0557 17.116C68.6717 17.116 68.3571 17.1267 68.1117 17.148L68.1117 16.828C68.4744 16.8067 68.7464 16.764 68.9277 16.7C69.1091 16.636 69.2264 16.508 69.2797 16.316C69.3437 16.124 69.3757 15.836 69.3757 15.452L69.3757 7.516C69.3757 7.12133 69.3437 6.83333 69.2797 6.652C69.2264 6.46 69.1037 6.332 68.9117 6.268C68.7304 6.19333 68.4637 6.15067 68.1117 6.14L68.1117 5.82C68.3571 5.83067 68.6717 5.84667 69.0557 5.868C69.4504 5.87867 69.8397 5.87867 70.2237 5.868C70.6077 5.85733 71.0344 5.84667 71.5037 5.836C71.9837 5.82533 72.3731 5.82 72.6717 5.82ZM72.3997 6.108C71.9091 6.108 71.5891 6.19867 71.4397 6.38C71.2904 6.56133 71.2157 6.92933 71.2157 7.484L71.2157 15.484C71.2157 16.0387 71.2904 16.4067 71.4397 16.588C71.5997 16.7693 71.9251 16.86 72.4157 16.86C73.4931 16.86 74.3304 16.652 74.9277 16.236C75.5251 15.8093 75.9464 15.1907 76.1917 14.38C76.4371 13.5693 76.5597 12.5827 76.5597 11.42C76.5597 10.2253 76.4264 9.23867 76.1597 8.46C75.8931 7.67067 75.4557 7.084 74.8477 6.7C74.2504 6.30533 73.4344 6.108 72.3997 6.108ZM84.9311 8.668C85.2404 8.668 85.5018 8.732 85.7151 8.86C85.9391 8.988 86.1044 9.15333 86.2111 9.356C86.3284 9.548 86.3871 9.76667 86.3871 10.012C86.3871 10.3213 86.2911 10.588 86.0991 10.812C85.9178 11.0253 85.6724 11.132 85.3631 11.132C85.0964 11.132 84.8671 11.052 84.6751 10.892C84.4938 10.732 84.4031 10.5133 84.4031 10.236C84.4031 10.0013 84.4618 9.804 84.5791 9.644C84.7071 9.47333 84.8511 9.34 85.0111 9.244C84.9044 9.15867 84.7764 9.12133 84.6271 9.132C84.3391 9.14267 84.0724 9.23867 83.8271 9.42C83.5818 9.59067 83.3738 9.81467 83.2031 10.092C83.0324 10.3587 82.8991 10.6467 82.8031 10.956C82.7071 11.2653 82.6591 11.5533 82.6591 11.82L82.6591 15.5C82.6591 16.0227 82.8031 16.3747 83.0911 16.556C83.3791 16.7267 83.7791 16.812 84.2911 16.812L84.2911 17.148C84.0458 17.1373 83.6938 17.1267 83.2351 17.116C82.7871 17.0947 82.3124 17.084 81.8111 17.084C81.4271 17.084 81.0431 17.0947 80.6591 17.116C80.2751 17.1267 79.9818 17.1373 79.7791 17.148L79.7791 16.812C80.1951 16.812 80.4884 16.732 80.6591 16.572C80.8404 16.412 80.9311 16.108 80.9311 15.66L80.9311 10.636C80.9311 10.156 80.8511 9.804 80.6911 9.58C80.5311 9.34533 80.2271 9.228 79.7791 9.228L79.7791 8.892C80.1204 8.924 80.4511 8.94 80.7711 8.94C81.1338 8.94 81.4698 8.924 81.7791 8.892C82.0991 8.84933 82.3924 8.79067 82.6591 8.716L82.6591 10.556C82.7871 10.2467 82.9578 9.948 83.1711 9.66C83.3844 9.372 83.6404 9.13733 83.9391 8.956C84.2378 8.764 84.5684 8.668 84.9311 8.668ZM90.7002 8.668C91.6389 8.668 92.3749 8.95067 92.9082 9.516C93.4416 10.0813 93.7082 10.9773 93.7082 12.204L88.1882 12.204L88.1562 11.9L92.0122 11.9C92.0229 11.3773 91.9802 10.8973 91.8842 10.46C91.7882 10.012 91.6389 9.65467 91.4362 9.388C91.2336 9.12133 90.9669 8.988 90.6362 8.988C90.1776 8.988 89.7776 9.23333 89.4362 9.724C89.1056 10.204 88.9029 10.9773 88.8282 12.044L88.8762 12.124C88.8656 12.2733 88.8549 12.4387 88.8442 12.62C88.8336 12.7907 88.8282 12.9613 88.8282 13.132C88.8282 13.868 88.9402 14.4867 89.1642 14.988C89.3882 15.4893 89.6816 15.868 90.0442 16.124C90.4069 16.3693 90.7749 16.492 91.1482 16.492C91.4362 16.492 91.7136 16.4493 91.9802 16.364C92.2576 16.268 92.5189 16.1133 92.7642 15.9C93.0096 15.676 93.2282 15.372 93.4202 14.988L93.7402 15.116C93.6122 15.4787 93.4149 15.836 93.1482 16.188C92.8816 16.54 92.5402 16.828 92.1242 17.052C91.7082 17.2653 91.2229 17.372 90.6682 17.372C89.9216 17.372 89.2709 17.2067 88.7162 16.876C88.1616 16.5347 87.7349 16.0493 87.4362 15.42C87.1376 14.7907 86.9882 14.044 86.9882 13.18C86.9882 12.2307 87.1429 11.42 87.4522 10.748C87.7616 10.076 88.1936 9.564 88.7482 9.212C89.3136 8.84933 89.9642 8.668 90.7002 8.668ZM97.7864 8.668C98.213 8.668 98.581 8.73733 98.8904 8.876C99.2104 9.004 99.4397 9.12133 99.5784 9.228C99.9304 9.50533 100.149 9.324 100.234 8.684L100.586 8.684C100.565 8.98267 100.549 9.34533 100.538 9.772C100.528 10.188 100.522 10.7427 100.522 11.436L100.17 11.436C100.106 11.0413 99.9944 10.6573 99.8344 10.284C99.685 9.91067 99.461 9.60133 99.1624 9.356C98.8744 9.11067 98.4957 8.988 98.0264 8.988C97.6744 8.988 97.381 9.08933 97.1464 9.292C96.9117 9.484 96.7944 9.772 96.7944 10.156C96.7944 10.476 96.8904 10.7533 97.0824 10.988C97.2744 11.2227 97.5197 11.4413 97.8184 11.644C98.1277 11.8467 98.4584 12.0653 98.8104 12.3C99.205 12.5667 99.557 12.8333 99.8664 13.1C100.186 13.356 100.437 13.644 100.618 13.964C100.81 14.284 100.906 14.6573 100.906 15.084C100.906 15.5747 100.773 15.9907 100.506 16.332C100.25 16.6733 99.909 16.9347 99.4824 17.116C99.0557 17.2867 98.5864 17.372 98.0744 17.372C97.8184 17.372 97.5784 17.3453 97.3544 17.292C97.1304 17.2493 96.9224 17.1907 96.7304 17.116C96.613 17.052 96.4957 16.988 96.3784 16.924C96.2717 16.8493 96.165 16.78 96.0584 16.716C95.9517 16.6413 95.8557 16.652 95.7704 16.748C95.685 16.844 95.621 17.0147 95.5784 17.26L95.2264 17.26C95.2477 16.9187 95.2637 16.5027 95.2744 16.012C95.285 15.5213 95.2904 14.8707 95.2904 14.06L95.6424 14.06C95.717 14.6467 95.829 15.164 95.9784 15.612C96.1277 16.06 96.3464 16.412 96.6344 16.668C96.933 16.9133 97.3384 17.036 97.8504 17.036C98.053 17.036 98.2557 16.9933 98.4584 16.908C98.661 16.812 98.8264 16.6627 98.9544 16.46C99.093 16.2573 99.1624 15.9853 99.1624 15.644C99.1624 15.1747 98.997 14.7907 98.6664 14.492C98.3464 14.1827 97.9304 13.8573 97.4184 13.516C97.0557 13.26 96.709 13.0093 96.3784 12.764C96.0584 12.508 95.797 12.2253 95.5944 11.916C95.3917 11.596 95.2904 11.2173 95.2904 10.78C95.2904 10.3 95.4024 9.90533 95.6264 9.596C95.861 9.28667 96.1704 9.05733 96.5544 8.908C96.9384 8.748 97.349 8.668 97.7864 8.668ZM105.021 8.668C105.447 8.668 105.815 8.73733 106.125 8.876C106.445 9.004 106.674 9.12133 106.813 9.228C107.165 9.50533 107.383 9.324 107.469 8.684L107.821 8.684C107.799 8.98267 107.783 9.34533 107.773 9.772C107.762 10.188 107.757 10.7427 107.757 11.436L107.405 11.436C107.341 11.0413 107.229 10.6573 107.069 10.284C106.919 9.91067 106.695 9.60133 106.397 9.356C106.109 9.11067 105.73 8.988 105.261 8.988C104.909 8.988 104.615 9.08933 104.381 9.292C104.146 9.484 104.029 9.772 104.029 10.156C104.029 10.476 104.125 10.7533 104.317 10.988C104.509 11.2227 104.754 11.4413 105.053 11.644C105.362 11.8467 105.693 12.0653 106.045 12.3C106.439 12.5667 106.791 12.8333 107.101 13.1C107.421 13.356 107.671 13.644 107.853 13.964C108.045 14.284 108.141 14.6573 108.141 15.084C108.141 15.5747 108.007 15.9907 107.741 16.332C107.485 16.6733 107.143 16.9347 106.717 17.116C106.29 17.2867 105.821 17.372 105.309 17.372C105.053 17.372 104.813 17.3453 104.589 17.292C104.365 17.2493 104.157 17.1907 103.965 17.116C103.847 17.052 103.73 16.988 103.613 16.924C103.506 16.8493 103.399 16.78 103.293 16.716C103.186 16.6413 103.09 16.652 103.005 16.748C102.919 16.844 102.855 17.0147 102.813 17.26L102.461 17.26C102.482 16.9187 102.498 16.5027 102.509 16.012C102.519 15.5213 102.525 14.8707 102.525 14.06L102.877 14.06C102.951 14.6467 103.063 15.164 103.213 15.612C103.362 16.06 103.581 16.412 103.869 16.668C104.167 16.9133 104.573 17.036 105.085 17.036C105.287 17.036 105.49 16.9933 105.693 16.908C105.895 16.812 106.061 16.6627 106.189 16.46C106.327 16.2573 106.397 15.9853 106.397 15.644C106.397 15.1747 106.231 14.7907 105.901 14.492C105.581 14.1827 105.165 13.8573 104.653 13.516C104.29 13.26 103.943 13.0093 103.613 12.764C103.293 12.508 103.031 12.2253 102.829 11.916C102.626 11.596 102.525 11.2173 102.525 10.78C102.525 10.3 102.637 9.90533 102.861 9.596C103.095 9.28667 103.405 9.05733 103.789 8.908C104.173 8.748 104.583 8.668 105.021 8.668ZM114.056 5.468C114.258 5.468 114.429 5.54267 114.568 5.692C114.706 5.84133 114.776 6.04933 114.776 6.316C114.776 6.65733 114.744 6.97733 114.68 7.276C114.626 7.564 114.552 7.89467 114.456 8.268C114.37 8.63067 114.274 9.09467 114.168 9.66L113.944 9.66C113.848 9.116 113.752 8.66267 113.656 8.3C113.56 7.93733 113.48 7.60667 113.416 7.308C113.362 6.99867 113.336 6.67333 113.336 6.332C113.336 6.06533 113.405 5.85733 113.544 5.708C113.682 5.55867 113.853 5.47867 114.056 5.468ZM116.072 5.468C116.274 5.468 116.445 5.54267 116.584 5.692C116.722 5.84133 116.792 6.04933 116.792 6.316C116.792 6.65733 116.76 6.97733 116.696 7.276C116.642 7.564 116.568 7.89467 116.472 8.268C116.386 8.63067 116.29 9.09467 116.184 9.66L115.96 9.66C115.864 9.116 115.768 8.66267 115.672 8.3C115.576 7.93733 115.496 7.60667 115.432 7.308C115.378 6.99867 115.352 6.67333 115.352 6.332C115.352 6.06533 115.421 5.85733 115.56 5.708C115.698 5.55867 115.869 5.47867 116.072 5.468ZM123.789 5.596C124.493 5.596 125.063 5.70267 125.501 5.916C125.938 6.11867 126.338 6.35867 126.701 6.636C126.839 6.74267 126.946 6.796 127.021 6.796C127.223 6.796 127.357 6.47067 127.421 5.82L127.789 5.82C127.767 6.22533 127.751 6.716 127.741 7.292C127.73 7.85733 127.725 8.61467 127.725 9.564L127.357 9.564C127.282 9.052 127.181 8.57733 127.053 8.14C126.935 7.70267 126.727 7.32933 126.429 7.02C126.141 6.67867 125.762 6.412 125.293 6.22C124.834 6.028 124.365 5.932 123.885 5.932C123.33 5.932 122.839 6.07067 122.413 6.348C121.986 6.61467 121.623 6.99867 121.325 7.5C121.037 8.00133 120.813 8.59333 120.653 9.276C120.503 9.948 120.429 10.6893 120.429 11.5C120.429 13.42 120.722 14.828 121.309 15.724C121.906 16.6093 122.802 17.052 123.997 17.052C124.338 17.052 124.631 17.004 124.877 16.908C125.133 16.812 125.335 16.716 125.485 16.62C125.666 16.492 125.783 16.3693 125.837 16.252C125.89 16.124 125.917 15.9587 125.917 15.756L125.917 14.204C125.917 13.7453 125.874 13.4093 125.789 13.196C125.714 12.972 125.559 12.8227 125.325 12.748C125.09 12.6627 124.749 12.6147 124.301 12.604L124.301 12.284C124.503 12.2947 124.743 12.3053 125.021 12.316C125.298 12.316 125.586 12.3213 125.885 12.332C126.194 12.332 126.471 12.332 126.717 12.332C127.101 12.332 127.447 12.3267 127.757 12.316C128.077 12.3053 128.338 12.2947 128.541 12.284L128.541 12.604C128.317 12.6147 128.146 12.652 128.029 12.716C127.922 12.78 127.847 12.908 127.805 13.1C127.773 13.292 127.757 13.5853 127.757 13.98L127.757 17.148L127.437 17.148C127.426 16.9667 127.383 16.7693 127.309 16.556C127.245 16.3427 127.143 16.236 127.005 16.236C126.93 16.236 126.85 16.252 126.765 16.284C126.69 16.316 126.557 16.396 126.365 16.524C125.991 16.78 125.602 16.988 125.197 17.148C124.791 17.2973 124.333 17.372 123.821 17.372C122.679 17.372 121.703 17.148 120.893 16.7C120.082 16.2413 119.463 15.5853 119.037 14.732C118.621 13.868 118.413 12.844 118.413 11.66C118.413 10.4227 118.642 9.35067 119.101 8.444C119.57 7.53733 120.205 6.83867 121.005 6.348C121.815 5.84667 122.743 5.596 123.789 5.596ZM131.66 17.26C131.212 17.26 130.828 17.1747 130.508 17.004C130.188 16.8333 129.948 16.5987 129.788 16.3C129.628 16.0013 129.548 15.66 129.548 15.276C129.548 14.8067 129.655 14.428 129.868 14.14C130.081 13.8413 130.353 13.6013 130.684 13.42C131.025 13.2387 131.383 13.0893 131.756 12.972C132.14 12.844 132.497 12.7267 132.828 12.62C133.169 12.5027 133.447 12.3693 133.66 12.22C133.884 12.0707 133.996 11.8733 133.996 11.628L133.996 10.54C133.996 10.156 133.932 9.852 133.804 9.628C133.687 9.39333 133.521 9.228 133.308 9.132C133.105 9.036 132.86 8.988 132.572 8.988C132.327 8.988 132.065 9.02533 131.788 9.1C131.511 9.164 131.292 9.29733 131.132 9.5C131.367 9.564 131.559 9.692 131.708 9.884C131.868 10.0653 131.948 10.2947 131.948 10.572C131.948 10.8707 131.847 11.1053 131.644 11.276C131.452 11.4467 131.207 11.532 130.908 11.532C130.577 11.532 130.332 11.4307 130.172 11.228C130.012 11.0147 129.932 10.7693 129.932 10.492C129.932 10.204 130.001 9.96933 130.14 9.788C130.289 9.60667 130.481 9.436 130.716 9.276C130.972 9.10533 131.297 8.96133 131.692 8.844C132.097 8.72667 132.545 8.668 133.036 8.668C133.495 8.668 133.889 8.72133 134.22 8.828C134.561 8.924 134.844 9.084 135.068 9.308C135.335 9.55333 135.511 9.86267 135.596 10.236C135.681 10.5987 135.724 11.0413 135.724 11.564L135.724 15.98C135.724 16.2467 135.756 16.4387 135.82 16.556C135.895 16.6627 136.012 16.716 136.172 16.716C136.279 16.716 136.38 16.6893 136.476 16.636C136.583 16.5827 136.705 16.5027 136.844 16.396L137.004 16.668C136.78 16.8493 136.551 16.9933 136.316 17.1C136.092 17.2067 135.804 17.26 135.452 17.26C135.111 17.26 134.833 17.2067 134.62 17.1C134.407 16.9933 134.247 16.8387 134.14 16.636C134.044 16.4333 133.996 16.1827 133.996 15.884C133.719 16.332 133.388 16.6733 133.004 16.908C132.62 17.1427 132.172 17.26 131.66 17.26ZM132.428 16.492C132.727 16.492 133.004 16.4067 133.26 16.236C133.527 16.0653 133.772 15.8093 133.996 15.468L133.996 12.284C133.879 12.4547 133.708 12.604 133.484 12.732C133.26 12.8493 133.02 12.972 132.764 13.1C132.508 13.228 132.263 13.3773 132.028 13.548C131.804 13.708 131.617 13.916 131.468 14.172C131.319 14.428 131.244 14.7533 131.244 15.148C131.244 15.564 131.351 15.8947 131.564 16.14C131.777 16.3747 132.065 16.492 132.428 16.492ZM140.266 4.604L140.266 15.66C140.266 16.108 140.352 16.412 140.522 16.572C140.704 16.732 141.002 16.812 141.418 16.812L141.418 17.148C141.237 17.1373 140.954 17.1267 140.57 17.116C140.186 17.0947 139.802 17.084 139.418 17.084C139.034 17.084 138.645 17.0947 138.25 17.116C137.866 17.1267 137.578 17.1373 137.386 17.148L137.386 16.812C137.802 16.812 138.096 16.732 138.266 16.572C138.448 16.412 138.538 16.108 138.538 15.66L138.538 6.524C138.538 6.044 138.458 5.692 138.298 5.468C138.138 5.23333 137.834 5.116 137.386 5.116L137.386 4.78C137.728 4.812 138.058 4.828 138.378 4.828C138.73 4.828 139.066 4.812 139.386 4.78C139.706 4.73733 140 4.67867 140.266 4.604ZM144.441 17.26C143.993 17.26 143.609 17.1747 143.289 17.004C142.969 16.8333 142.729 16.5987 142.569 16.3C142.409 16.0013 142.329 15.66 142.329 15.276C142.329 14.8067 142.436 14.428 142.649 14.14C142.863 13.8413 143.135 13.6013 143.465 13.42C143.807 13.2387 144.164 13.0893 144.537 12.972C144.921 12.844 145.279 12.7267 145.609 12.62C145.951 12.5027 146.228 12.3693 146.441 12.22C146.665 12.0707 146.777 11.8733 146.777 11.628L146.777 10.54C146.777 10.156 146.713 9.852 146.585 9.628C146.468 9.39333 146.303 9.228 146.089 9.132C145.887 9.036 145.641 8.988 145.353 8.988C145.108 8.988 144.847 9.02533 144.569 9.1C144.292 9.164 144.073 9.29733 143.913 9.5C144.148 9.564 144.34 9.692 144.489 9.884C144.649 10.0653 144.729 10.2947 144.729 10.572C144.729 10.8707 144.628 11.1053 144.425 11.276C144.233 11.4467 143.988 11.532 143.689 11.532C143.359 11.532 143.113 11.4307 142.953 11.228C142.793 11.0147 142.713 10.7693 142.713 10.492C142.713 10.204 142.783 9.96933 142.921 9.788C143.071 9.60667 143.263 9.436 143.497 9.276C143.753 9.10533 144.079 8.96133 144.473 8.844C144.879 8.72667 145.327 8.668 145.817 8.668C146.276 8.668 146.671 8.72133 147.001 8.828C147.343 8.924 147.625 9.084 147.849 9.308C148.116 9.55333 148.292 9.86267 148.377 10.236C148.463 10.5987 148.505 11.0413 148.505 11.564L148.505 15.98C148.505 16.2467 148.537 16.4387 148.601 16.556C148.676 16.6627 148.793 16.716 148.953 16.716C149.06 16.716 149.161 16.6893 149.257 16.636C149.364 16.5827 149.487 16.5027 149.625 16.396L149.785 16.668C149.561 16.8493 149.332 16.9933 149.097 17.1C148.873 17.2067 148.585 17.26 148.233 17.26C147.892 17.26 147.615 17.2067 147.401 17.1C147.188 16.9933 147.028 16.8387 146.921 16.636C146.825 16.4333 146.777 16.1827 146.777 15.884C146.5 16.332 146.169 16.6733 145.785 16.908C145.401 17.1427 144.953 17.26 144.441 17.26ZM145.209 16.492C145.508 16.492 145.785 16.4067 146.041 16.236C146.308 16.0653 146.553 15.8093 146.777 15.468L146.777 12.284C146.66 12.4547 146.489 12.604 146.265 12.732C146.041 12.8493 145.801 12.972 145.545 13.1C145.289 13.228 145.044 13.3773 144.809 13.548C144.585 13.708 144.399 13.916 144.249 14.172C144.1 14.428 144.025 14.7533 144.025 15.148C144.025 15.564 144.132 15.8947 144.345 16.14C144.559 16.3747 144.847 16.492 145.209 16.492ZM151.009 5.468C151.212 5.468 151.382 5.54267 151.521 5.692C151.66 5.84133 151.729 6.04933 151.729 6.316C151.729 6.65733 151.697 6.97733 151.633 7.276C151.58 7.564 151.505 7.89467 151.409 8.268C151.324 8.63067 151.228 9.09467 151.121 9.66L150.897 9.66C150.801 9.116 150.705 8.66267 150.609 8.3C150.513 7.93733 150.433 7.60667 150.369 7.308C150.316 6.99867 150.289 6.67333 150.289 6.332C150.289 6.06533 150.358 5.85733 150.497 5.708C150.636 5.55867 150.806 5.47867 151.009 5.468ZM153.025 5.468C153.228 5.468 153.398 5.54267 153.537 5.692C153.676 5.84133 153.745 6.04933 153.745 6.316C153.745 6.65733 153.713 6.97733 153.649 7.276C153.596 7.564 153.521 7.89467 153.425 8.268C153.34 8.63067 153.244 9.09467 153.137 9.66L152.913 9.66C152.817 9.116 152.721 8.66267 152.625 8.3C152.529 7.93733 152.449 7.60667 152.385 7.308C152.332 6.99867 152.305 6.67333 152.305 6.332C152.305 6.06533 152.374 5.85733 152.513 5.708C152.652 5.55867 152.822 5.47867 153.025 5.468Z" fill="rgb(0,0,0)" fill-rule="nonzero" />
		<path id="2200 $ USD" d="M7.35998 44.516L0.751982 44.516L0.751982 43.444C4.05865 40.948 5.71198 38.868 5.71198 37.204C5.71198 36.5427 5.51998 36.036 5.13598 35.684C4.75198 35.3213 4.23465 35.14 3.58398 35.14C2.74132 35.14 1.90932 35.4547 1.08798 36.084L1.08798 34.82C1.84532 34.2333 2.71465 33.94 3.69598 33.94C4.63465 33.94 5.42398 34.212 6.06398 34.756C6.70398 35.3 7.02398 36.0733 7.02398 37.076C7.02398 38.964 5.51465 41.076 2.49598 43.412L7.35998 43.412L7.35998 44.516ZM15.2662 44.516L8.65823 44.516L8.65823 43.444C11.9649 40.948 13.6182 38.868 13.6182 37.204C13.6182 36.5427 13.4262 36.036 13.0422 35.684C12.6582 35.3213 12.1409 35.14 11.4902 35.14C10.6476 35.14 9.81557 35.4547 8.99423 36.084L8.99423 34.82C9.75157 34.2333 10.6209 33.94 11.6022 33.94C12.5409 33.94 13.3302 34.212 13.9702 34.756C14.6102 35.3 14.9302 36.0733 14.9302 37.076C14.9302 38.964 13.4209 41.076 10.4022 43.412L15.2662 43.412L15.2662 44.516ZM23.9725 39.252C23.9725 40.884 23.6525 42.1907 23.0125 43.172C22.3725 44.1533 21.4605 44.644 20.2765 44.644C19.1778 44.644 18.2978 44.1533 17.6365 43.172C16.9751 42.1907 16.6445 40.884 16.6445 39.252C16.6445 37.6093 16.9751 36.3133 17.6365 35.364C18.3085 34.404 19.1885 33.924 20.2765 33.924C21.4071 33.924 22.3031 34.404 22.9645 35.364C23.6365 36.3133 23.9725 37.6093 23.9725 39.252ZM18.6285 36.212C18.1698 36.9267 17.9405 37.94 17.9405 39.252C17.9405 40.564 18.1645 41.5933 18.6125 42.34C19.0605 43.076 19.6151 43.444 20.2765 43.444C21.0125 43.444 21.5938 43.0813 22.0205 42.356C22.4578 41.6307 22.6765 40.596 22.6765 39.252C22.6765 37.9187 22.4471 36.9 21.9885 36.196C21.5405 35.4813 20.9698 35.124 20.2765 35.124C19.6365 35.124 19.0871 35.4867 18.6285 36.212ZM32.6756 39.252C32.6756 40.884 32.3556 42.1907 31.7156 43.172C31.0756 44.1533 30.1636 44.644 28.9796 44.644C27.8809 44.644 27.0009 44.1533 26.3396 43.172C25.6783 42.1907 25.3476 40.884 25.3476 39.252C25.3476 37.6093 25.6783 36.3133 26.3396 35.364C27.0116 34.404 27.8916 33.924 28.9796 33.924C30.1103 33.924 31.0063 34.404 31.6676 35.364C32.3396 36.3133 32.6756 37.6093 32.6756 39.252ZM27.3316 36.212C26.8729 36.9267 26.6436 37.94 26.6436 39.252C26.6436 40.564 26.8676 41.5933 27.3156 42.34C27.7636 43.076 28.3183 43.444 28.9796 43.444C29.7156 43.444 30.2969 43.0813 30.7236 42.356C31.1609 41.6307 31.3796 40.596 31.3796 39.252C31.3796 37.9187 31.1503 36.9 30.6916 36.196C30.2436 35.4813 29.6729 35.124 28.9796 35.124C28.3396 35.124 27.7903 35.4867 27.3316 36.212ZM41.493 46.26L40.389 46.26L40.389 44.596C39.5143 44.5107 38.773 44.292 38.165 43.94L38.165 42.548C38.9436 43.1347 39.893 43.428 41.013 43.428C41.685 43.428 42.213 43.2787 42.597 42.98C42.9916 42.6707 43.189 42.2387 43.189 41.684C43.189 41.428 43.1357 41.204 43.029 41.012C42.933 40.8093 42.7463 40.6173 42.469 40.436C42.2023 40.2547 41.989 40.1267 41.829 40.052C41.6796 39.9667 41.3863 39.8333 40.949 39.652C40.821 39.5987 40.725 39.556 40.661 39.524C40.277 39.3533 39.957 39.1987 39.701 39.06C39.4557 38.9107 39.1943 38.7187 38.917 38.484C38.6503 38.2493 38.4476 37.972 38.309 37.652C38.181 37.332 38.117 36.9693 38.117 36.564C38.117 35.7107 38.405 35.028 38.981 34.516C39.5676 34.004 40.309 33.716 41.205 33.652L41.205 31.988L42.309 31.988L42.309 33.684C42.9383 33.7587 43.4823 33.908 43.941 34.132L43.941 35.492C43.2903 35.0653 42.517 34.852 41.621 34.852C40.9703 34.852 40.453 35.0067 40.069 35.316C39.685 35.6147 39.493 36.0093 39.493 36.5C39.493 36.7667 39.541 37.0013 39.637 37.204C39.7436 37.396 39.9303 37.5827 40.197 37.764C40.4743 37.9453 40.6876 38.0787 40.837 38.164C40.997 38.2387 41.285 38.3667 41.701 38.548C41.7757 38.58 41.8343 38.6067 41.877 38.628C42.2823 38.8093 42.613 38.9747 42.869 39.124C43.125 39.2627 43.397 39.4493 43.685 39.684C43.973 39.9187 44.1863 40.2013 44.325 40.532C44.4636 40.8627 44.533 41.236 44.533 41.652C44.533 42.5267 44.2503 43.22 43.685 43.732C43.1303 44.244 42.3997 44.5373 41.493 44.612L41.493 46.26ZM58.3574 40.42C58.3574 41.8067 58.0054 42.8573 57.3014 43.572C56.608 44.2867 55.6374 44.644 54.3894 44.644C53.1627 44.644 52.2027 44.2973 51.5094 43.604C50.816 42.9 50.4694 41.8813 50.4694 40.548L50.4694 33.732L51.7654 33.732L51.7654 40.532C51.7654 41.524 52 42.2547 52.4694 42.724C52.9494 43.1933 53.5894 43.428 54.3894 43.428C56.1707 43.428 57.0614 42.436 57.0614 40.452L57.0614 33.732L58.3574 33.732L58.3574 40.42ZM67.0379 41.652C67.0379 42.6013 66.7125 43.3373 66.0619 43.86C65.4112 44.372 64.5739 44.628 63.5499 44.628C62.4192 44.628 61.4592 44.3987 60.6699 43.94L60.6699 42.548C61.4485 43.1347 62.3979 43.428 63.5179 43.428C64.1899 43.428 64.7179 43.2787 65.1019 42.98C65.4859 42.6813 65.6779 42.2493 65.6779 41.684C65.6779 41.4493 65.6299 41.2413 65.5339 41.06C65.4485 40.868 65.2992 40.6973 65.0859 40.548C64.8832 40.388 64.6859 40.26 64.4939 40.164C64.3125 40.0573 64.0619 39.9293 63.7419 39.78C63.6779 39.748 63.5819 39.7053 63.4539 39.652C62.9952 39.4493 62.6432 39.284 62.3979 39.156C62.1632 39.028 61.8805 38.8413 61.5499 38.596C61.2299 38.34 60.9952 38.0467 60.8459 37.716C60.6965 37.3853 60.6219 37.0013 60.6219 36.564C60.6219 35.6467 60.9472 34.932 61.5979 34.42C62.2592 33.8973 63.0859 33.636 64.0779 33.636C65.0059 33.636 65.7952 33.8013 66.4459 34.132L66.4459 35.492C65.7952 35.0653 65.0165 34.852 64.1099 34.852C63.4592 34.852 62.9419 35.0067 62.5579 35.316C62.1739 35.6147 61.9819 36.0093 61.9819 36.5C61.9819 36.756 62.0299 36.9853 62.1259 37.188C62.2325 37.3907 62.4139 37.5827 62.6699 37.764C62.9259 37.9347 63.1445 38.068 63.3259 38.164C63.5072 38.2493 63.7899 38.3773 64.1739 38.548C64.5365 38.708 64.8139 38.836 65.0059 38.932C65.1979 39.0173 65.4432 39.1613 65.7419 39.364C66.0512 39.556 66.2805 39.748 66.4299 39.94C66.5899 40.1213 66.7285 40.3667 66.8459 40.676C66.9739 40.9747 67.0379 41.3 67.0379 41.652ZM72.4525 44.516L69.1885 44.516L69.1885 33.732L72.3885 33.732C73.9778 33.732 75.2792 34.228 76.2925 35.22C77.3165 36.2013 77.8285 37.476 77.8285 39.044C77.8285 40.6013 77.3538 41.9027 76.4045 42.948C75.4658 43.9933 74.1485 44.516 72.4525 44.516ZM72.3725 34.884L70.5005 34.884L70.5005 43.38L72.4365 43.38C73.7698 43.38 74.7778 42.9693 75.4605 42.148C76.1432 41.316 76.4845 40.2813 76.4845 39.044C76.4845 37.8707 76.1005 36.884 75.3325 36.084C74.5751 35.284 73.5885 34.884 72.3725 34.884Z" fill="rgb(117.938,116.955,116.955)" fill-rule="nonzero" />
	</g>
</svg>
