<svg viewBox="0 0 176.144 49" xmlns="http://www.w3.org/2000/svg" xmlns:xlink="http://www.w3.org/1999/xlink" width="176.143997" height="49.000000" fill="none" customFrame="#000000">
	<g id="text">
		<path id="Wedding Dress &quot;Monica&quot;" d="M15.008 5.82L15.008 6.14C14.7947 6.19333 14.5653 6.33733 14.32 6.572C14.0747 6.796 13.8667 7.17467 13.696 7.708L10.752 17.212C10.7093 17.212 10.6613 17.212 10.608 17.212C10.5653 17.212 10.5227 17.212 10.48 17.212C10.4267 17.212 10.3787 17.212 10.336 17.212C10.2933 17.212 10.2507 17.212 10.208 17.212L6.816 7.116C6.688 6.72133 6.53866 6.46533 6.368 6.348C6.208 6.22 6.05333 6.15067 5.904 6.14L5.904 5.82C6.128 5.83067 6.40533 5.84133 6.736 5.852C7.06666 5.86267 7.38666 5.868 7.696 5.868C8.13333 5.868 8.53866 5.86267 8.912 5.852C9.296 5.84133 9.6 5.83067 9.824 5.82L9.824 6.14C9.504 6.15067 9.248 6.188 9.056 6.252C8.87466 6.30533 8.768 6.42267 8.736 6.604C8.71466 6.78533 8.768 7.07867 8.896 7.484L11.248 14.716L10.976 15.068L12.992 8.716C13.2053 8.05467 13.3013 7.54267 13.28 7.18C13.2693 6.80667 13.1467 6.54533 12.912 6.396C12.688 6.236 12.3573 6.15067 11.92 6.14L11.92 5.82C12.24 5.83067 12.56 5.84133 12.88 5.852C13.2 5.86267 13.5093 5.868 13.808 5.868C14.0747 5.868 14.2987 5.86267 14.48 5.852C14.672 5.84133 14.848 5.83067 15.008 5.82ZM3.744 5.82L3.744 6.14C3.488 6.16133 3.30666 6.22533 3.2 6.332C3.09333 6.428 3.04 6.572 3.04 6.764C3.05066 6.94533 3.104 7.18533 3.2 7.484L5.68 14.892L5.264 15.356L7.44 8.588L7.68 8.988L5.072 17.212C5.02933 17.212 4.98666 17.212 4.944 17.212C4.90133 17.212 4.85333 17.212 4.8 17.212C4.75733 17.212 4.70933 17.212 4.656 17.212C4.61333 17.212 4.57066 17.212 4.528 17.212L1.072 7.164C0.933331 6.75867 0.762664 6.492 0.559997 6.364C0.357331 6.22533 0.170664 6.15067 -2.81632e-06 6.14L-2.81632e-06 5.82C0.255997 5.83067 0.559997 5.84133 0.911997 5.852C1.264 5.86267 1.60533 5.868 1.936 5.868C2.32 5.868 2.66666 5.86267 2.976 5.852C3.296 5.84133 3.552 5.83067 3.744 5.82ZM18.2471 8.668C19.1858 8.668 19.9218 8.95067 20.4551 9.516C20.9885 10.0813 21.2551 10.9773 21.2551 12.204L15.7351 12.204L15.7031 11.9L19.5591 11.9C19.5698 11.3773 19.5271 10.8973 19.4311 10.46C19.3351 10.012 19.1858 9.65467 18.9831 9.388C18.7805 9.12133 18.5138 8.988 18.1831 8.988C17.7245 8.988 17.3245 9.23333 16.9831 9.724C16.6525 10.204 16.4498 10.9773 16.3751 12.044L16.4231 12.124C16.4125 12.2733 16.4018 12.4387 16.3911 12.62C16.3805 12.7907 16.3751 12.9613 16.3751 13.132C16.3751 13.868 16.4871 14.4867 16.7111 14.988C16.9351 15.4893 17.2285 15.868 17.5911 16.124C17.9538 16.3693 18.3218 16.492 18.6951 16.492C18.9831 16.492 19.2605 16.4493 19.5271 16.364C19.8045 16.268 20.0658 16.1133 20.3111 15.9C20.5565 15.676 20.7751 15.372 20.9671 14.988L21.2871 15.116C21.1591 15.4787 20.9618 15.836 20.6951 16.188C20.4285 16.54 20.0871 16.828 19.6711 17.052C19.2551 17.2653 18.7698 17.372 18.2151 17.372C17.4685 17.372 16.8178 17.2067 16.2631 16.876C15.7085 16.5347 15.2818 16.0493 14.9831 15.42C14.6845 14.7907 14.5351 14.044 14.5351 13.18C14.5351 12.2307 14.6898 11.42 14.9991 10.748C15.3085 10.076 15.7405 9.564 16.2951 9.212C16.8605 8.84933 17.5111 8.668 18.2471 8.668ZM29.8452 4.604L29.8452 15.404C29.8452 15.884 29.9252 16.2413 30.0852 16.476C30.2559 16.7 30.5599 16.812 30.9972 16.812L30.9972 17.148C30.6666 17.116 30.3359 17.1 30.0052 17.1C29.6426 17.1 29.3012 17.116 28.9812 17.148C28.6719 17.18 28.3839 17.2387 28.1172 17.324L28.1172 6.524C28.1172 6.044 28.0319 5.692 27.8612 5.468C27.7012 5.23333 27.4026 5.116 26.9652 5.116L26.9652 4.78C27.3066 4.812 27.6372 4.828 27.9572 4.828C28.3092 4.828 28.6452 4.812 28.9652 4.78C29.2852 4.73733 29.5786 4.67867 29.8452 4.604ZM26.2452 8.668C26.7146 8.668 27.1412 8.76933 27.5252 8.972C27.9199 9.17467 28.1972 9.516 28.3572 9.996L28.1652 10.172C28.0159 9.788 27.7972 9.51067 27.5092 9.34C27.2212 9.15867 26.8959 9.068 26.5332 9.068C25.9252 9.068 25.4292 9.39333 25.0452 10.044C24.6612 10.684 24.4746 11.676 24.4852 13.02C24.4852 13.9053 24.5599 14.6307 24.7092 15.196C24.8586 15.7507 25.0772 16.1613 25.3652 16.428C25.6639 16.6947 26.0212 16.828 26.4372 16.828C26.8532 16.828 27.2266 16.652 27.5572 16.3C27.8986 15.948 28.1012 15.4413 28.1652 14.78L28.3092 15.116C28.2026 15.8413 27.9466 16.4013 27.5412 16.796C27.1359 17.18 26.5919 17.372 25.9092 17.372C25.2586 17.372 24.6826 17.2173 24.1812 16.908C23.6906 16.588 23.3119 16.108 23.0452 15.468C22.7786 14.8173 22.6452 14.0013 22.6452 13.02C22.6452 12.0493 22.8052 11.244 23.1252 10.604C23.4559 9.95333 23.8932 9.468 24.4372 9.148C24.9812 8.828 25.5839 8.668 26.2452 8.668ZM39.2359 4.604L39.2359 15.404C39.2359 15.884 39.3159 16.2413 39.4759 16.476C39.6465 16.7 39.9505 16.812 40.3879 16.812L40.3879 17.148C40.0572 17.116 39.7265 17.1 39.3959 17.1C39.0332 17.1 38.6919 17.116 38.3719 17.148C38.0625 17.18 37.7745 17.2387 37.5079 17.324L37.5079 6.524C37.5079 6.044 37.4225 5.692 37.2519 5.468C37.0919 5.23333 36.7932 5.116 36.3559 5.116L36.3559 4.78C36.6972 4.812 37.0279 4.828 37.3479 4.828C37.6999 4.828 38.0359 4.812 38.3559 4.78C38.6759 4.73733 38.9692 4.67867 39.2359 4.604ZM35.6359 8.668C36.1052 8.668 36.5319 8.76933 36.9159 8.972C37.3105 9.17467 37.5879 9.516 37.7479 9.996L37.5559 10.172C37.4065 9.788 37.1879 9.51067 36.8999 9.34C36.6119 9.15867 36.2865 9.068 35.9239 9.068C35.3159 9.068 34.8199 9.39333 34.4359 10.044C34.0519 10.684 33.8652 11.676 33.8759 13.02C33.8759 13.9053 33.9505 14.6307 34.0999 15.196C34.2492 15.7507 34.4679 16.1613 34.7559 16.428C35.0545 16.6947 35.4119 16.828 35.8279 16.828C36.2439 16.828 36.6172 16.652 36.9479 16.3C37.2892 15.948 37.4919 15.4413 37.5559 14.78L37.6999 15.116C37.5932 15.8413 37.3372 16.4013 36.9319 16.796C36.5265 17.18 35.9825 17.372 35.2999 17.372C34.6492 17.372 34.0732 17.2173 33.5719 16.908C33.0812 16.588 32.7025 16.108 32.4359 15.468C32.1692 14.8173 32.0359 14.0013 32.0359 13.02C32.0359 12.0493 32.1959 11.244 32.5159 10.604C32.8465 9.95333 33.2839 9.468 33.8279 9.148C34.3719 8.828 34.9745 8.668 35.6359 8.668ZM43.0585 4.86C43.3892 4.86 43.6665 4.96667 43.8905 5.18C44.1145 5.38267 44.2265 5.63867 44.2265 5.948C44.2265 6.25733 44.1145 6.51867 43.8905 6.732C43.6665 6.93467 43.3892 7.036 43.0585 7.036C42.7278 7.036 42.4505 6.93467 42.2265 6.732C42.0025 6.51867 41.8905 6.25733 41.8905 5.948C41.8905 5.63867 42.0025 5.38267 42.2265 5.18C42.4505 4.96667 42.7278 4.86 43.0585 4.86ZM44.0185 8.716L44.0185 15.66C44.0185 16.108 44.1038 16.412 44.2745 16.572C44.4558 16.732 44.7545 16.812 45.1705 16.812L45.1705 17.148C44.9892 17.1373 44.7065 17.1267 44.3225 17.116C43.9492 17.0947 43.5652 17.084 43.1705 17.084C42.7972 17.084 42.4132 17.0947 42.0185 17.116C41.6238 17.1267 41.3305 17.1373 41.1385 17.148L41.1385 16.812C41.5545 16.812 41.8478 16.732 42.0185 16.572C42.1998 16.412 42.2905 16.108 42.2905 15.66L42.2905 10.636C42.2905 10.156 42.2105 9.804 42.0505 9.58C41.8905 9.34533 41.5865 9.228 41.1385 9.228L41.1385 8.892C41.4798 8.924 41.8105 8.94 42.1305 8.94C42.4932 8.94 42.8292 8.924 43.1385 8.892C43.4585 8.84933 43.7518 8.79067 44.0185 8.716ZM51.5034 8.668C51.93 8.668 52.2767 8.72667 52.5434 8.844C52.8207 8.95067 53.05 9.1 53.2314 9.292C53.4234 9.49467 53.5567 9.756 53.6314 10.076C53.7167 10.396 53.7594 10.828 53.7594 11.372L53.7594 15.66C53.7594 16.108 53.8447 16.412 54.0154 16.572C54.1967 16.732 54.4954 16.812 54.9114 16.812L54.9114 17.148C54.73 17.1373 54.4474 17.1267 54.0634 17.116C53.6794 17.0947 53.3007 17.084 52.9274 17.084C52.5647 17.084 52.202 17.0947 51.8394 17.116C51.4874 17.1267 51.2207 17.1373 51.0394 17.148L51.0394 16.812C51.402 16.812 51.658 16.732 51.8074 16.572C51.9567 16.412 52.0314 16.108 52.0314 15.66L52.0314 10.924C52.0314 10.6147 52.0047 10.3373 51.9514 10.092C51.898 9.836 51.786 9.63333 51.6154 9.484C51.4447 9.324 51.1887 9.244 50.8474 9.244C50.4527 9.244 50.1007 9.356 49.7914 9.58C49.4927 9.804 49.2527 10.1133 49.0714 10.508C48.9007 10.892 48.8154 11.324 48.8154 11.804L48.8154 15.66C48.8154 16.108 48.89 16.412 49.0394 16.572C49.1994 16.732 49.4554 16.812 49.8074 16.812L49.8074 17.148C49.6367 17.1373 49.3754 17.1267 49.0234 17.116C48.682 17.0947 48.3247 17.084 47.9514 17.084C47.5887 17.084 47.21 17.0947 46.8154 17.116C46.4207 17.1267 46.1274 17.1373 45.9354 17.148L45.9354 16.812C46.3514 16.812 46.6447 16.732 46.8154 16.572C46.9967 16.412 47.0874 16.108 47.0874 15.66L47.0874 10.636C47.0874 10.156 47.0074 9.804 46.8474 9.58C46.6874 9.34533 46.3834 9.228 45.9354 9.228L45.9354 8.892C46.2767 8.924 46.6074 8.94 46.9274 8.94C47.29 8.94 47.626 8.924 47.9354 8.892C48.2554 8.84933 48.5487 8.79067 48.8154 8.716L48.8154 10.46C49.0927 9.79867 49.4714 9.33467 49.9514 9.068C50.442 8.80133 50.9594 8.668 51.5034 8.668ZM58.4434 20.156C57.846 20.156 57.2914 20.0973 56.7794 19.98C56.278 19.8627 55.8727 19.6813 55.5634 19.436C55.2647 19.2013 55.1154 18.8973 55.1154 18.524C55.1154 18.172 55.2647 17.8627 55.5634 17.596C55.862 17.3293 56.2834 17.1267 56.8274 16.988L56.9394 17.244C56.7154 17.34 56.5394 17.4947 56.4114 17.708C56.294 17.9213 56.2354 18.156 56.2354 18.412C56.2354 18.8813 56.454 19.244 56.8914 19.5C57.3287 19.756 57.9047 19.884 58.6194 19.884C59.0994 19.884 59.5527 19.82 59.9794 19.692C60.4167 19.5747 60.7687 19.3773 61.0354 19.1C61.3127 18.8227 61.4514 18.4653 61.4514 18.028C61.4514 17.6867 61.3287 17.3987 61.0834 17.164C60.838 16.94 60.3527 16.828 59.6274 16.828L58.5074 16.828C58.134 16.828 57.7874 16.796 57.4674 16.732C57.1474 16.668 56.886 16.5453 56.6834 16.364C56.4914 16.172 56.3954 15.9053 56.3954 15.564C56.3954 15.18 56.5554 14.8173 56.8754 14.476C57.1954 14.1347 57.734 13.7987 58.4914 13.468L58.6834 13.612C58.374 13.7827 58.0967 13.9587 57.8514 14.14C57.6167 14.3107 57.4994 14.524 57.4994 14.78C57.4994 15.1213 57.7447 15.292 58.2354 15.292L60.1394 15.292C60.6407 15.292 61.094 15.3613 61.4994 15.5C61.9047 15.628 62.23 15.836 62.4754 16.124C62.7207 16.412 62.8434 16.7907 62.8434 17.26C62.8434 17.7613 62.678 18.2307 62.3474 18.668C62.0274 19.116 61.542 19.4733 60.8914 19.74C60.2407 20.0173 59.4247 20.156 58.4434 20.156ZM58.5394 13.74C57.9954 13.74 57.4994 13.6547 57.0514 13.484C56.6034 13.3027 56.2514 13.0253 55.9954 12.652C55.7394 12.2787 55.6114 11.7987 55.6114 11.212C55.6114 10.6253 55.7394 10.1453 55.9954 9.772C56.2514 9.388 56.6034 9.11067 57.0514 8.94C57.4994 8.75867 57.9954 8.668 58.5394 8.668C59.1047 8.668 59.606 8.75867 60.0434 8.94C60.4807 9.11067 60.8274 9.388 61.0834 9.772C61.3394 10.1453 61.4674 10.6253 61.4674 11.212C61.4674 11.7987 61.3394 12.2787 61.0834 12.652C60.8274 13.0253 60.4807 13.3027 60.0434 13.484C59.606 13.6547 59.1047 13.74 58.5394 13.74ZM58.5394 13.452C58.9127 13.452 59.2007 13.292 59.4034 12.972C59.606 12.652 59.7074 12.0653 59.7074 11.212C59.7074 10.3587 59.606 9.772 59.4034 9.452C59.2007 9.12133 58.9127 8.956 58.5394 8.956C58.1874 8.956 57.9047 9.12133 57.6914 9.452C57.478 9.772 57.3714 10.3587 57.3714 11.212C57.3714 12.0653 57.478 12.652 57.6914 12.972C57.9047 13.292 58.1874 13.452 58.5394 13.452ZM60.9074 10.012L60.6194 9.9C60.7687 9.52667 61.0247 9.20133 61.3874 8.924C61.75 8.64667 62.1287 8.508 62.5234 8.508C62.822 8.508 63.0567 8.59333 63.2274 8.764C63.4087 8.924 63.4994 9.15333 63.4994 9.452C63.4994 9.78267 63.4087 10.0173 63.2274 10.156C63.0567 10.2947 62.8754 10.364 62.6834 10.364C62.5127 10.364 62.3527 10.3053 62.2034 10.188C62.0647 10.0707 61.9847 9.88933 61.9634 9.644C61.942 9.388 62.022 9.06267 62.2034 8.668L62.3794 8.732C61.9527 8.90267 61.638 9.084 61.4354 9.276C61.2434 9.45733 61.0674 9.70267 60.9074 10.012ZM72.6717 5.82C74.6451 5.82 76.1117 6.3 77.0717 7.26C78.0317 8.20933 78.5117 9.57467 78.5117 11.356C78.5117 12.5187 78.2771 13.5373 77.8077 14.412C77.3384 15.276 76.6557 15.948 75.7598 16.428C74.8744 16.908 73.7971 17.148 72.5277 17.148C72.3677 17.148 72.1491 17.1427 71.8717 17.132C71.6051 17.1213 71.3277 17.116 71.0397 17.116C70.7517 17.1053 70.4904 17.1 70.2557 17.1C69.8504 17.1 69.4504 17.1053 69.0557 17.116C68.6717 17.116 68.3571 17.1267 68.1117 17.148L68.1117 16.828C68.4744 16.8067 68.7464 16.764 68.9277 16.7C69.1091 16.636 69.2264 16.508 69.2797 16.316C69.3438 16.124 69.3757 15.836 69.3757 15.452L69.3757 7.516C69.3757 7.12133 69.3438 6.83333 69.2797 6.652C69.2264 6.46 69.1037 6.332 68.9118 6.268C68.7304 6.19333 68.4637 6.15067 68.1117 6.14L68.1117 5.82C68.3571 5.83067 68.6717 5.84667 69.0557 5.868C69.4504 5.87867 69.8397 5.87867 70.2237 5.868C70.6077 5.85733 71.0344 5.84667 71.5037 5.836C71.9837 5.82533 72.3731 5.82 72.6717 5.82ZM72.3997 6.108C71.9091 6.108 71.5891 6.19867 71.4398 6.38C71.2904 6.56133 71.2157 6.92933 71.2157 7.484L71.2157 15.484C71.2157 16.0387 71.2904 16.4067 71.4398 16.588C71.5997 16.7693 71.9251 16.86 72.4157 16.86C73.4931 16.86 74.3304 16.652 74.9277 16.236C75.5251 15.8093 75.9464 15.1907 76.1917 14.38C76.4371 13.5693 76.5597 12.5827 76.5597 11.42C76.5597 10.2253 76.4264 9.23867 76.1597 8.46C75.8931 7.67067 75.4557 7.084 74.8477 6.7C74.2504 6.30533 73.4344 6.108 72.3997 6.108ZM84.9311 8.668C85.2405 8.668 85.5018 8.732 85.7151 8.86C85.9391 8.988 86.1045 9.15333 86.2111 9.356C86.3285 9.548 86.3871 9.76667 86.3871 10.012C86.3871 10.3213 86.2911 10.588 86.0991 10.812C85.9178 11.0253 85.6725 11.132 85.3631 11.132C85.0965 11.132 84.8671 11.052 84.6751 10.892C84.4938 10.732 84.4031 10.5133 84.4031 10.236C84.4031 10.0013 84.4618 9.804 84.5791 9.644C84.7071 9.47333 84.8511 9.34 85.0111 9.244C84.9045 9.15867 84.7765 9.12133 84.6271 9.132C84.3391 9.14267 84.0725 9.23867 83.8271 9.42C83.5818 9.59067 83.3738 9.81467 83.2031 10.092C83.0325 10.3587 82.8991 10.6467 82.8031 10.956C82.7071 11.2653 82.6591 11.5533 82.6591 11.82L82.6591 15.5C82.6591 16.0227 82.8031 16.3747 83.0911 16.556C83.3791 16.7267 83.7791 16.812 84.2911 16.812L84.2911 17.148C84.0458 17.1373 83.6938 17.1267 83.2351 17.116C82.7871 17.0947 82.3125 17.084 81.8111 17.084C81.4271 17.084 81.0431 17.0947 80.6591 17.116C80.2751 17.1267 79.9818 17.1373 79.7791 17.148L79.7791 16.812C80.1951 16.812 80.4885 16.732 80.6591 16.572C80.8405 16.412 80.9311 16.108 80.9311 15.66L80.9311 10.636C80.9311 10.156 80.8511 9.804 80.6911 9.58C80.5311 9.34533 80.2271 9.228 79.7791 9.228L79.7791 8.892C80.1205 8.924 80.4511 8.94 80.7711 8.94C81.1338 8.94 81.4698 8.924 81.7791 8.892C82.0991 8.84933 82.3925 8.79067 82.6591 8.716L82.6591 10.556C82.7871 10.2467 82.9578 9.948 83.1711 9.66C83.3845 9.372 83.6405 9.13733 83.9391 8.956C84.2378 8.764 84.5685 8.668 84.9311 8.668ZM90.7002 8.668C91.6389 8.668 92.3749 8.95067 92.9082 9.516C93.4416 10.0813 93.7082 10.9773 93.7082 12.204L88.1882 12.204L88.1562 11.9L92.0122 11.9C92.0229 11.3773 91.9802 10.8973 91.8842 10.46C91.7882 10.012 91.6389 9.65467 91.4362 9.388C91.2336 9.12133 90.9669 8.988 90.6362 8.988C90.1776 8.988 89.7776 9.23333 89.4362 9.724C89.1056 10.204 88.9029 10.9773 88.8282 12.044L88.8763 12.124C88.8656 12.2733 88.8549 12.4387 88.8442 12.62C88.8336 12.7907 88.8282 12.9613 88.8282 13.132C88.8282 13.868 88.9402 14.4867 89.1642 14.988C89.3882 15.4893 89.6816 15.868 90.0443 16.124C90.4069 16.3693 90.7749 16.492 91.1482 16.492C91.4362 16.492 91.7136 16.4493 91.9802 16.364C92.2576 16.268 92.5189 16.1133 92.7642 15.9C93.0096 15.676 93.2282 15.372 93.4202 14.988L93.7402 15.116C93.6122 15.4787 93.4149 15.836 93.1482 16.188C92.8816 16.54 92.5402 16.828 92.1242 17.052C91.7082 17.2653 91.2229 17.372 90.6682 17.372C89.9216 17.372 89.2709 17.2067 88.7162 16.876C88.1616 16.5347 87.7349 16.0493 87.4362 15.42C87.1376 14.7907 86.9883 14.044 86.9883 13.18C86.9883 12.2307 87.1429 11.42 87.4522 10.748C87.7616 10.076 88.1936 9.564 88.7482 9.212C89.3136 8.84933 89.9642 8.668 90.7002 8.668ZM97.7864 8.668C98.213 8.668 98.581 8.73733 98.8904 8.876C99.2104 9.004 99.4397 9.12133 99.5784 9.228C99.9304 9.50533 100.149 9.324 100.234 8.684L100.586 8.684C100.565 8.98267 100.549 9.34533 100.538 9.772C100.528 10.188 100.522 10.7427 100.522 11.436L100.17 11.436C100.106 11.0413 99.9944 10.6573 99.8344 10.284C99.685 9.91067 99.461 9.60133 99.1624 9.356C98.8744 9.11067 98.4957 8.988 98.0264 8.988C97.6744 8.988 97.381 9.08933 97.1464 9.292C96.9117 9.484 96.7944 9.772 96.7944 10.156C96.7944 10.476 96.8904 10.7533 97.0824 10.988C97.2744 11.2227 97.5197 11.4413 97.8184 11.644C98.1277 11.8467 98.4584 12.0653 98.8104 12.3C99.205 12.5667 99.557 12.8333 99.8664 13.1C100.186 13.356 100.437 13.644 100.618 13.964C100.81 14.284 100.906 14.6573 100.906 15.084C100.906 15.5747 100.773 15.9907 100.506 16.332C100.25 16.6733 99.909 16.9347 99.4824 17.116C99.0557 17.2867 98.5864 17.372 98.0744 17.372C97.8184 17.372 97.5784 17.3453 97.3544 17.292C97.1304 17.2493 96.9224 17.1907 96.7304 17.116C96.613 17.052 96.4957 16.988 96.3784 16.924C96.2717 16.8493 96.165 16.78 96.0584 16.716C95.9517 16.6413 95.8557 16.652 95.7704 16.748C95.685 16.844 95.621 17.0147 95.5784 17.26L95.2264 17.26C95.2477 16.9187 95.2637 16.5027 95.2744 16.012C95.285 15.5213 95.2904 14.8707 95.2904 14.06L95.6424 14.06C95.717 14.6467 95.829 15.164 95.9784 15.612C96.1277 16.06 96.3464 16.412 96.6344 16.668C96.933 16.9133 97.3384 17.036 97.8504 17.036C98.053 17.036 98.2557 16.9933 98.4584 16.908C98.661 16.812 98.8264 16.6627 98.9544 16.46C99.093 16.2573 99.1624 15.9853 99.1624 15.644C99.1624 15.1747 98.997 14.7907 98.6664 14.492C98.3464 14.1827 97.9304 13.8573 97.4184 13.516C97.0557 13.26 96.709 13.0093 96.3784 12.764C96.0584 12.508 95.797 12.2253 95.5944 11.916C95.3917 11.596 95.2904 11.2173 95.2904 10.78C95.2904 10.3 95.4024 9.90533 95.6264 9.596C95.861 9.28667 96.1704 9.05733 96.5544 8.908C96.9384 8.748 97.349 8.668 97.7864 8.668ZM105.021 8.668C105.447 8.668 105.815 8.73733 106.125 8.876C106.445 9.004 106.674 9.12133 106.813 9.228C107.165 9.50533 107.383 9.324 107.469 8.684L107.821 8.684C107.799 8.98267 107.783 9.34533 107.773 9.772C107.762 10.188 107.757 10.7427 107.757 11.436L107.405 11.436C107.341 11.0413 107.229 10.6573 107.069 10.284C106.919 9.91067 106.695 9.60133 106.397 9.356C106.109 9.11067 105.73 8.988 105.261 8.988C104.909 8.988 104.615 9.08933 104.381 9.292C104.146 9.484 104.029 9.772 104.029 10.156C104.029 10.476 104.125 10.7533 104.317 10.988C104.509 11.2227 104.754 11.4413 105.053 11.644C105.362 11.8467 105.693 12.0653 106.045 12.3C106.439 12.5667 106.791 12.8333 107.101 13.1C107.421 13.356 107.671 13.644 107.853 13.964C108.045 14.284 108.141 14.6573 108.141 15.084C108.141 15.5747 108.007 15.9907 107.741 16.332C107.485 16.6733 107.143 16.9347 106.717 17.116C106.29 17.2867 105.821 17.372 105.309 17.372C105.053 17.372 104.813 17.3453 104.589 17.292C104.365 17.2493 104.157 17.1907 103.965 17.116C103.847 17.052 103.73 16.988 103.613 16.924C103.506 16.8493 103.399 16.78 103.293 16.716C103.186 16.6413 103.09 16.652 103.005 16.748C102.919 16.844 102.855 17.0147 102.813 17.26L102.461 17.26C102.482 16.9187 102.498 16.5027 102.509 16.012C102.519 15.5213 102.525 14.8707 102.525 14.06L102.877 14.06C102.951 14.6467 103.063 15.164 103.213 15.612C103.362 16.06 103.581 16.412 103.869 16.668C104.167 16.9133 104.573 17.036 105.085 17.036C105.287 17.036 105.49 16.9933 105.693 16.908C105.895 16.812 106.061 16.6627 106.189 16.46C106.327 16.2573 106.397 15.9853 106.397 15.644C106.397 15.1747 106.231 14.7907 105.901 14.492C105.581 14.1827 105.165 13.8573 104.653 13.516C104.29 13.26 103.943 13.0093 103.613 12.764C103.293 12.508 103.031 12.2253 102.829 11.916C102.626 11.596 102.525 11.2173 102.525 10.78C102.525 10.3 102.637 9.90533 102.861 9.596C103.095 9.28667 103.405 9.05733 103.789 8.908C104.173 8.748 104.583 8.668 105.021 8.668ZM114.056 5.468C114.258 5.468 114.429 5.54267 114.568 5.692C114.706 5.84133 114.776 6.04933 114.776 6.316C114.776 6.65733 114.744 6.97733 114.68 7.276C114.626 7.564 114.552 7.89467 114.456 8.268C114.37 8.63067 114.274 9.09467 114.168 9.66L113.944 9.66C113.848 9.116 113.752 8.66267 113.656 8.3C113.56 7.93733 113.48 7.60667 113.416 7.308C113.362 6.99867 113.336 6.67333 113.336 6.332C113.336 6.06533 113.405 5.85733 113.544 5.708C113.682 5.55867 113.853 5.47867 114.056 5.468ZM116.072 5.468C116.274 5.468 116.445 5.54267 116.584 5.692C116.722 5.84133 116.792 6.04933 116.792 6.316C116.792 6.65733 116.76 6.97733 116.696 7.276C116.642 7.564 116.568 7.89467 116.472 8.268C116.386 8.63067 116.29 9.09467 116.184 9.66L115.96 9.66C115.864 9.116 115.768 8.66267 115.672 8.3C115.576 7.93733 115.496 7.60667 115.432 7.308C115.378 6.99867 115.352 6.67333 115.352 6.332C115.352 6.06533 115.421 5.85733 115.56 5.708C115.698 5.55867 115.869 5.47867 116.072 5.468ZM131.26 5.82L131.26 6.14C130.897 6.15067 130.625 6.19333 130.444 6.268C130.263 6.332 130.14 6.46 130.076 6.652C130.023 6.83333 129.996 7.12133 129.996 7.516L129.996 15.452C129.996 15.836 130.023 16.124 130.076 16.316C130.14 16.508 130.263 16.636 130.444 16.7C130.625 16.764 130.897 16.8067 131.26 16.828L131.26 17.148C130.993 17.1267 130.663 17.116 130.268 17.116C129.873 17.1053 129.473 17.1 129.068 17.1C128.62 17.1 128.199 17.1053 127.804 17.116C127.409 17.116 127.095 17.1267 126.86 17.148L126.86 16.828C127.223 16.8067 127.495 16.764 127.676 16.7C127.868 16.636 127.996 16.508 128.06 16.316C128.124 16.124 128.156 15.836 128.156 15.452L128.156 6.7L128.236 6.732L124.3 17.212L124.044 17.212L119.916 6.844L119.916 15.036C119.916 15.484 119.948 15.836 120.012 16.092C120.076 16.3373 120.215 16.5133 120.428 16.62C120.641 16.7267 120.967 16.796 121.404 16.828L121.404 17.148C121.201 17.1267 120.94 17.116 120.62 17.116C120.311 17.1053 120.017 17.1 119.74 17.1C119.473 17.1 119.207 17.1053 118.94 17.116C118.673 17.116 118.455 17.1267 118.284 17.148L118.284 16.828C118.636 16.796 118.903 16.732 119.084 16.636C119.265 16.5293 119.388 16.3533 119.452 16.108C119.516 15.8627 119.548 15.5267 119.548 15.1L119.548 7.516C119.548 7.12133 119.516 6.83333 119.452 6.652C119.388 6.46 119.265 6.332 119.084 6.268C118.903 6.19333 118.636 6.15067 118.284 6.14L118.284 5.82C118.455 5.83067 118.673 5.84133 118.94 5.852C119.207 5.86267 119.473 5.868 119.74 5.868C120.049 5.868 120.359 5.86267 120.668 5.852C120.988 5.84133 121.26 5.83067 121.484 5.82L125.02 14.908L124.716 15.116L128.188 5.868C128.327 5.868 128.471 5.868 128.62 5.868C128.769 5.868 128.919 5.868 129.068 5.868C129.473 5.868 129.873 5.86267 130.268 5.852C130.663 5.84133 130.993 5.83067 131.26 5.82ZM136.029 8.668C136.744 8.668 137.378 8.81733 137.933 9.116C138.488 9.41467 138.93 9.884 139.261 10.524C139.592 11.164 139.757 12.0013 139.757 13.036C139.757 14.0707 139.592 14.908 139.261 15.548C138.93 16.1773 138.488 16.6413 137.933 16.94C137.378 17.228 136.744 17.372 136.029 17.372C135.325 17.372 134.69 17.228 134.125 16.94C133.56 16.6413 133.112 16.1773 132.781 15.548C132.461 14.908 132.301 14.0707 132.301 13.036C132.301 12.0013 132.461 11.164 132.781 10.524C133.112 9.884 133.56 9.41467 134.125 9.116C134.69 8.81733 135.325 8.668 136.029 8.668ZM136.029 8.988C135.474 8.988 135.021 9.308 134.669 9.948C134.317 10.5773 134.141 11.6067 134.141 13.036C134.141 14.4653 134.317 15.4947 134.669 16.124C135.021 16.7427 135.474 17.052 136.029 17.052C136.573 17.052 137.021 16.7427 137.373 16.124C137.736 15.4947 137.917 14.4653 137.917 13.036C137.917 11.6067 137.736 10.5773 137.373 9.948C137.021 9.308 136.573 8.988 136.029 8.988ZM146.456 8.668C146.883 8.668 147.23 8.72667 147.496 8.844C147.774 8.95067 148.003 9.1 148.184 9.292C148.376 9.49467 148.51 9.756 148.585 10.076C148.67 10.396 148.712 10.828 148.712 11.372L148.712 15.66C148.712 16.108 148.798 16.412 148.968 16.572C149.15 16.732 149.449 16.812 149.865 16.812L149.865 17.148C149.683 17.1373 149.4 17.1267 149.016 17.116C148.632 17.0947 148.254 17.084 147.88 17.084C147.518 17.084 147.155 17.0947 146.792 17.116C146.44 17.1267 146.174 17.1373 145.992 17.148L145.992 16.812C146.355 16.812 146.611 16.732 146.76 16.572C146.91 16.412 146.984 16.108 146.984 15.66L146.984 10.924C146.984 10.6147 146.958 10.3373 146.904 10.092C146.851 9.836 146.739 9.63333 146.568 9.484C146.398 9.324 146.142 9.244 145.8 9.244C145.406 9.244 145.054 9.356 144.744 9.58C144.446 9.804 144.206 10.1133 144.024 10.508C143.854 10.892 143.768 11.324 143.768 11.804L143.768 15.66C143.768 16.108 143.843 16.412 143.992 16.572C144.152 16.732 144.408 16.812 144.76 16.812L144.76 17.148C144.59 17.1373 144.328 17.1267 143.977 17.116C143.635 17.0947 143.278 17.084 142.904 17.084C142.542 17.084 142.163 17.0947 141.768 17.116C141.374 17.1267 141.08 17.1373 140.889 17.148L140.889 16.812C141.305 16.812 141.598 16.732 141.768 16.572C141.95 16.412 142.04 16.108 142.04 15.66L142.04 10.636C142.04 10.156 141.96 9.804 141.8 9.58C141.641 9.34533 141.337 9.228 140.889 9.228L140.889 8.892C141.23 8.924 141.561 8.94 141.88 8.94C142.243 8.94 142.579 8.924 142.889 8.892C143.208 8.84933 143.502 8.79067 143.768 8.716L143.768 10.46C144.046 9.79867 144.424 9.33467 144.904 9.068C145.395 8.80133 145.912 8.668 146.456 8.668ZM152.449 4.86C152.78 4.86 153.057 4.96667 153.281 5.18C153.505 5.38267 153.617 5.63867 153.617 5.948C153.617 6.25733 153.505 6.51867 153.281 6.732C153.057 6.93467 152.78 7.036 152.449 7.036C152.118 7.036 151.841 6.93467 151.617 6.732C151.393 6.51867 151.281 6.25733 151.281 5.948C151.281 5.63867 151.393 5.38267 151.617 5.18C151.841 4.96667 152.118 4.86 152.449 4.86ZM153.409 8.716L153.409 15.66C153.409 16.108 153.494 16.412 153.665 16.572C153.846 16.732 154.145 16.812 154.561 16.812L154.561 17.148C154.38 17.1373 154.097 17.1267 153.713 17.116C153.34 17.0947 152.956 17.084 152.561 17.084C152.188 17.084 151.804 17.0947 151.409 17.116C151.014 17.1267 150.721 17.1373 150.529 17.148L150.529 16.812C150.945 16.812 151.238 16.732 151.409 16.572C151.59 16.412 151.681 16.108 151.681 15.66L151.681 10.636C151.681 10.156 151.601 9.804 151.441 9.58C151.281 9.34533 150.977 9.228 150.529 9.228L150.529 8.892C150.87 8.924 151.201 8.94 151.521 8.94C151.884 8.94 152.22 8.924 152.529 8.892C152.849 8.84933 153.142 8.79067 153.409 8.716ZM159.39 8.668C159.753 8.668 160.099 8.716 160.43 8.812C160.761 8.89733 161.049 9.02 161.294 9.18C161.55 9.34 161.742 9.532 161.87 9.756C162.009 9.98 162.078 10.2253 162.078 10.492C162.078 10.812 161.987 11.0627 161.806 11.244C161.625 11.4253 161.39 11.516 161.102 11.516C160.814 11.516 160.574 11.436 160.382 11.276C160.19 11.116 160.094 10.8867 160.094 10.588C160.094 10.3107 160.174 10.0867 160.334 9.916C160.494 9.73467 160.681 9.61733 160.894 9.564C160.798 9.404 160.627 9.27067 160.382 9.164C160.147 9.04667 159.891 8.988 159.614 8.988C159.326 8.988 159.049 9.06267 158.782 9.212C158.526 9.36133 158.297 9.59067 158.094 9.9C157.891 10.2093 157.726 10.6093 157.598 11.1C157.481 11.5907 157.422 12.1827 157.422 12.876C157.422 13.772 157.523 14.4867 157.726 15.02C157.939 15.5427 158.217 15.916 158.558 16.14C158.899 16.364 159.267 16.476 159.662 16.476C159.918 16.476 160.179 16.428 160.446 16.332C160.723 16.236 160.985 16.076 161.23 15.852C161.486 15.628 161.71 15.324 161.902 14.94L162.206 15.052C162.089 15.404 161.902 15.7613 161.646 16.124C161.401 16.4867 161.075 16.7853 160.67 17.02C160.265 17.2547 159.769 17.372 159.182 17.372C158.51 17.372 157.902 17.2067 157.358 16.876C156.814 16.5453 156.382 16.0653 156.062 15.436C155.742 14.796 155.582 14.0173 155.582 13.1C155.582 12.204 155.742 11.4253 156.062 10.764C156.393 10.092 156.846 9.57467 157.422 9.212C157.998 8.84933 158.654 8.668 159.39 8.668ZM165.41 17.26C164.962 17.26 164.578 17.1747 164.258 17.004C163.938 16.8333 163.698 16.5987 163.538 16.3C163.378 16.0013 163.298 15.66 163.298 15.276C163.298 14.8067 163.405 14.428 163.618 14.14C163.831 13.8413 164.103 13.6013 164.434 13.42C164.775 13.2387 165.133 13.0893 165.506 12.972C165.89 12.844 166.247 12.7267 166.578 12.62C166.919 12.5027 167.197 12.3693 167.41 12.22C167.634 12.0707 167.746 11.8733 167.746 11.628L167.746 10.54C167.746 10.156 167.682 9.852 167.554 9.628C167.437 9.39333 167.271 9.228 167.058 9.132C166.855 9.036 166.61 8.988 166.322 8.988C166.077 8.988 165.815 9.02533 165.538 9.1C165.261 9.164 165.042 9.29733 164.882 9.5C165.117 9.564 165.309 9.692 165.458 9.884C165.618 10.0653 165.698 10.2947 165.698 10.572C165.698 10.8707 165.597 11.1053 165.394 11.276C165.202 11.4467 164.957 11.532 164.658 11.532C164.327 11.532 164.082 11.4307 163.922 11.228C163.762 11.0147 163.682 10.7693 163.682 10.492C163.682 10.204 163.751 9.96933 163.89 9.788C164.039 9.60667 164.231 9.436 164.466 9.276C164.722 9.10533 165.047 8.96133 165.442 8.844C165.847 8.72667 166.295 8.668 166.786 8.668C167.245 8.668 167.639 8.72133 167.97 8.828C168.311 8.924 168.594 9.084 168.818 9.308C169.085 9.55333 169.261 9.86267 169.346 10.236C169.431 10.5987 169.474 11.0413 169.474 11.564L169.474 15.98C169.474 16.2467 169.506 16.4387 169.57 16.556C169.645 16.6627 169.762 16.716 169.922 16.716C170.029 16.716 170.13 16.6893 170.226 16.636C170.333 16.5827 170.455 16.5027 170.594 16.396L170.754 16.668C170.53 16.8493 170.301 16.9933 170.066 17.1C169.842 17.2067 169.554 17.26 169.202 17.26C168.861 17.26 168.583 17.2067 168.37 17.1C168.157 16.9933 167.997 16.8387 167.89 16.636C167.794 16.4333 167.746 16.1827 167.746 15.884C167.469 16.332 167.138 16.6733 166.754 16.908C166.37 17.1427 165.922 17.26 165.41 17.26ZM166.178 16.492C166.477 16.492 166.754 16.4067 167.01 16.236C167.277 16.0653 167.522 15.8093 167.746 15.468L167.746 12.284C167.629 12.4547 167.458 12.604 167.234 12.732C167.01 12.8493 166.77 12.972 166.514 13.1C166.258 13.228 166.013 13.3773 165.778 13.548C165.554 13.708 165.367 13.916 165.218 14.172C165.069 14.428 164.994 14.7533 164.994 15.148C164.994 15.564 165.101 15.8947 165.314 16.14C165.527 16.3747 165.815 16.492 166.178 16.492ZM171.978 5.468C172.18 5.468 172.351 5.54267 172.49 5.692C172.628 5.84133 172.698 6.04933 172.698 6.316C172.698 6.65733 172.666 6.97733 172.602 7.276C172.548 7.564 172.474 7.89467 172.378 8.268C172.292 8.63067 172.196 9.09467 172.09 9.66L171.866 9.66C171.77 9.116 171.674 8.66267 171.578 8.3C171.482 7.93733 171.402 7.60667 171.338 7.308C171.284 6.99867 171.258 6.67333 171.258 6.332C171.258 6.06533 171.327 5.85733 171.466 5.708C171.604 5.55867 171.775 5.47867 171.978 5.468ZM173.994 5.468C174.196 5.468 174.367 5.54267 174.506 5.692C174.644 5.84133 174.714 6.04933 174.714 6.316C174.714 6.65733 174.682 6.97733 174.618 7.276C174.564 7.564 174.49 7.89467 174.394 8.268C174.308 8.63067 174.212 9.09467 174.106 9.66L173.882 9.66C173.786 9.116 173.69 8.66267 173.594 8.3C173.498 7.93733 173.418 7.60667 173.354 7.308C173.3 6.99867 173.274 6.67333 173.274 6.332C173.274 6.06533 173.343 5.85733 173.482 5.708C173.62 5.55867 173.791 5.47867 173.994 5.468Z" fill="rgb(0,0,0)" fill-rule="nonzero" />
		<path id="1500 $ USD" d="M4.096 44.516L2.848 44.516L2.848 35.428L0.431997 36.916L0.431997 35.556L2.912 34.052L4.096 34.052L4.096 44.516ZM12.7399 41.252C12.7399 42.2867 12.3985 43.1133 11.7159 43.732C11.0439 44.34 10.1212 44.644 8.94787 44.644C7.89187 44.644 6.99587 44.4627 6.25987 44.1L6.25987 42.852C6.94254 43.2573 7.76921 43.46 8.73987 43.46C10.5319 43.46 11.4279 42.708 11.4279 41.204C11.4279 40.596 11.2199 40.1267 10.8039 39.796C10.3879 39.4547 9.84921 39.284 9.18787 39.284C8.40921 39.284 7.60387 39.4707 6.77187 39.844L6.77187 34.052L12.0199 34.052L12.0199 35.156L8.01987 35.156L8.01987 38.292C8.49987 38.1853 8.91587 38.132 9.26787 38.132C10.3345 38.132 11.1772 38.4147 11.7959 38.98C12.4252 39.5453 12.7399 40.3027 12.7399 41.252ZM21.4725 39.252C21.4725 40.884 21.1525 42.1907 20.5125 43.172C19.8725 44.1533 18.9605 44.644 17.7765 44.644C16.6778 44.644 15.7978 44.1533 15.1365 43.172C14.4752 42.1907 14.1445 40.884 14.1445 39.252C14.1445 37.6093 14.4752 36.3133 15.1365 35.364C15.8085 34.404 16.6885 33.924 17.7765 33.924C18.9072 33.924 19.8032 34.404 20.4645 35.364C21.1365 36.3133 21.4725 37.6093 21.4725 39.252ZM16.1285 36.212C15.6698 36.9267 15.4405 37.94 15.4405 39.252C15.4405 40.564 15.6645 41.5933 16.1125 42.34C16.5605 43.076 17.1152 43.444 17.7765 43.444C18.5125 43.444 19.0938 43.0813 19.5205 42.356C19.9578 41.6307 20.1765 40.596 20.1765 39.252C20.1765 37.9187 19.9472 36.9 19.4885 36.196C19.0405 35.4813 18.4698 35.124 17.7765 35.124C17.1365 35.124 16.5872 35.4867 16.1285 36.212ZM30.1756 39.252C30.1756 40.884 29.8556 42.1907 29.2156 43.172C28.5756 44.1533 27.6636 44.644 26.4796 44.644C25.381 44.644 24.501 44.1533 23.8396 43.172C23.1783 42.1907 22.8476 40.884 22.8476 39.252C22.8476 37.6093 23.1783 36.3133 23.8396 35.364C24.5116 34.404 25.3916 33.924 26.4796 33.924C27.6103 33.924 28.5063 34.404 29.1676 35.364C29.8396 36.3133 30.1756 37.6093 30.1756 39.252ZM24.8316 36.212C24.373 36.9267 24.1436 37.94 24.1436 39.252C24.1436 40.564 24.3676 41.5933 24.8156 42.34C25.2636 43.076 25.8183 43.444 26.4796 43.444C27.2156 43.444 27.797 43.0813 28.2236 42.356C28.661 41.6307 28.8796 40.596 28.8796 39.252C28.8796 37.9187 28.6503 36.9 28.1916 36.196C27.7436 35.4813 27.173 35.124 26.4796 35.124C25.8396 35.124 25.2903 35.4867 24.8316 36.212ZM38.993 46.26L37.889 46.26L37.889 44.596C37.0143 44.5107 36.273 44.292 35.665 43.94L35.665 42.548C36.4437 43.1347 37.393 43.428 38.513 43.428C39.185 43.428 39.713 43.2787 40.097 42.98C40.4917 42.6707 40.689 42.2387 40.689 41.684C40.689 41.428 40.6357 41.204 40.529 41.012C40.433 40.8093 40.2463 40.6173 39.969 40.436C39.7023 40.2547 39.489 40.1267 39.329 40.052C39.1797 39.9667 38.8863 39.8333 38.449 39.652C38.321 39.5987 38.225 39.556 38.161 39.524C37.777 39.3533 37.457 39.1987 37.201 39.06C36.9557 38.9107 36.6943 38.7187 36.417 38.484C36.1503 38.2493 35.9477 37.972 35.809 37.652C35.681 37.332 35.617 36.9693 35.617 36.564C35.617 35.7107 35.905 35.028 36.481 34.516C37.0677 34.004 37.809 33.716 38.705 33.652L38.705 31.988L39.809 31.988L39.809 33.684C40.4383 33.7587 40.9823 33.908 41.441 34.132L41.441 35.492C40.7903 35.0653 40.017 34.852 39.121 34.852C38.4703 34.852 37.953 35.0067 37.569 35.316C37.185 35.6147 36.993 36.0093 36.993 36.5C36.993 36.7667 37.041 37.0013 37.137 37.204C37.2437 37.396 37.4303 37.5827 37.697 37.764C37.9743 37.9453 38.1877 38.0787 38.337 38.164C38.497 38.2387 38.785 38.3667 39.201 38.548C39.2757 38.58 39.3343 38.6067 39.377 38.628C39.7823 38.8093 40.113 38.9747 40.369 39.124C40.625 39.2627 40.897 39.4493 41.185 39.684C41.473 39.9187 41.6863 40.2013 41.825 40.532C41.9637 40.8627 42.033 41.236 42.033 41.652C42.033 42.5267 41.7503 43.22 41.185 43.732C40.6303 44.244 39.8997 44.5373 38.993 44.612L38.993 46.26ZM55.8574 40.42C55.8574 41.8067 55.5054 42.8573 54.8014 43.572C54.108 44.2867 53.1374 44.644 51.8894 44.644C50.6627 44.644 49.7027 44.2973 49.0094 43.604C48.316 42.9 47.9694 41.8813 47.9694 40.548L47.9694 33.732L49.2654 33.732L49.2654 40.532C49.2654 41.524 49.5 42.2547 49.9694 42.724C50.4494 43.1933 51.0894 43.428 51.8894 43.428C53.6707 43.428 54.5614 42.436 54.5614 40.452L54.5614 33.732L55.8574 33.732L55.8574 40.42ZM64.5379 41.652C64.5379 42.6013 64.2125 43.3373 63.5619 43.86C62.9112 44.372 62.0739 44.628 61.0499 44.628C59.9192 44.628 58.9592 44.3987 58.1699 43.94L58.1699 42.548C58.9485 43.1347 59.8979 43.428 61.0179 43.428C61.6899 43.428 62.2179 43.2787 62.6019 42.98C62.9859 42.6813 63.1779 42.2493 63.1779 41.684C63.1779 41.4493 63.1299 41.2413 63.0339 41.06C62.9485 40.868 62.7992 40.6973 62.5859 40.548C62.3832 40.388 62.1859 40.26 61.9939 40.164C61.8125 40.0573 61.5619 39.9293 61.2419 39.78C61.1779 39.748 61.0819 39.7053 60.9539 39.652C60.4952 39.4493 60.1432 39.284 59.8979 39.156C59.6632 39.028 59.3805 38.8413 59.0499 38.596C58.7299 38.34 58.4952 38.0467 58.3459 37.716C58.1965 37.3853 58.1219 37.0013 58.1219 36.564C58.1219 35.6467 58.4472 34.932 59.0979 34.42C59.7592 33.8973 60.5859 33.636 61.5779 33.636C62.5059 33.636 63.2952 33.8013 63.9459 34.132L63.9459 35.492C63.2952 35.0653 62.5165 34.852 61.6099 34.852C60.9592 34.852 60.4419 35.0067 60.0579 35.316C59.6739 35.6147 59.4819 36.0093 59.4819 36.5C59.4819 36.756 59.5299 36.9853 59.6259 37.188C59.7325 37.3907 59.9139 37.5827 60.1699 37.764C60.4259 37.9347 60.6445 38.068 60.8259 38.164C61.0072 38.2493 61.2899 38.3773 61.6739 38.548C62.0365 38.708 62.3139 38.836 62.5059 38.932C62.6979 39.0173 62.9432 39.1613 63.2419 39.364C63.5512 39.556 63.7805 39.748 63.9299 39.94C64.0899 40.1213 64.2285 40.3667 64.3459 40.676C64.4739 40.9747 64.5379 41.3 64.5379 41.652ZM69.9525 44.516L66.6885 44.516L66.6885 33.732L69.8885 33.732C71.4778 33.732 72.7792 34.228 73.7925 35.22C74.8165 36.2013 75.3285 37.476 75.3285 39.044C75.3285 40.6013 74.8538 41.9027 73.9045 42.948C72.9658 43.9933 71.6485 44.516 69.9525 44.516ZM69.8725 34.884L68.0005 34.884L68.0005 43.38L69.9365 43.38C71.2698 43.38 72.2778 42.9693 72.9605 42.148C73.6432 41.316 73.9845 40.2813 73.9845 39.044C73.9845 37.8707 73.6005 36.884 72.8325 36.084C72.0752 35.284 71.0885 34.884 69.8725 34.884Z" fill="rgb(117.938,116.955,116.955)" fill-rule="nonzero" />
	</g>
</svg>
